<svg
  width="13"
  height="12"
  viewBox="0 0 13 12"
  fill="none"
  xmlns="http://www.w3.org/2000/svg"
>
            <path
              d="M11.3586 9.1195L9.80281 1.72262C9.78269 1.62589 9.74366 1.53409 9.68795 1.45249C9.63224 1.37089 9.56096 1.30111 9.4782 1.24714C9.39544 1.19317 9.30283 1.15609 9.2057 1.13802C9.10857 1.11995 9.00882 1.12125 8.91219 1.14184L6.71797 1.6134C6.52388 1.6559 6.35443 1.77331 6.24645 1.9401C6.13848 2.10688 6.10073 2.30955 6.14141 2.50403L7.69719 9.9009C7.73186 10.0697 7.82357 10.2213 7.95691 10.3304C8.09026 10.4395 8.25709 10.4994 8.42938 10.5C8.48263 10.4999 8.53573 10.4942 8.58781 10.4831L10.782 10.0115C10.9764 9.96893 11.146 9.85129 11.254 9.68422C11.362 9.51714 11.3996 9.31417 11.3586 9.1195ZM6.875 2.35075C6.875 2.34794 6.875 2.34653 6.875 2.34653L9.06875 1.87778L9.22484 2.62169L7.03109 3.09372L6.875 2.35075ZM7.34375 4.57169L7.18672 3.82637L9.38141 3.35481L9.53797 4.10012L7.34375 4.57169ZM10.625 9.2784L8.43125 9.74715L8.27516 9.00325L10.4689 8.53122L10.625 9.27419C10.625 9.277 10.625 9.2784 10.625 9.2784ZM5.375 1.49997H3.125C2.92609 1.49997 2.73532 1.57899 2.59467 1.71964C2.45402 1.86029 2.375 2.05106 2.375 2.24997V9.74997C2.375 9.94888 2.45402 10.1396 2.59467 10.2803C2.73532 10.4209 2.92609 10.5 3.125 10.5H5.375C5.57391 10.5 5.76468 10.4209 5.90533 10.2803C6.04598 10.1396 6.125 9.94888 6.125 9.74997V2.24997C6.125 2.05106 6.04598 1.86029 5.90533 1.71964C5.76468 1.57899 5.57391 1.49997 5.375 1.49997ZM3.125 2.24997H5.375V2.99997H3.125V2.24997ZM5.375 9.74997H3.125V8.99997H5.375V9.74997Z"
              fill="#F05023"
            />
          </svg>
