 <svg
              width="13"
              height="13"
              viewBox="0 0 13 13"
              fill="none"
              xmlns="http://www.w3.org/2000/svg"
            >
              <path
                d="M6.15818 5.19334C6.25257 5.05573 6.35541 5.03834 6.43887 5.03834C6.52233 5.03834 6.66093 5.05573 6.75532 5.19334C7.49554 6.20182 8.71765 8.21134 9.61932 9.69426C10.2075 10.6605 10.6591 11.4032 10.752 11.4976C11.0998 11.8523 11.5767 11.6312 11.8539 11.2288C12.1266 10.8329 12.2021 10.5547 12.2021 10.2581C12.2021 10.0559 8.24868 2.76304 7.85075 2.15596C7.46822 1.57223 7.34303 1.42468 6.68826 1.42468H6.19743C5.54415 1.42468 5.44976 1.57223 5.06673 2.15596C4.6688 2.76304 0.714844 10.0559 0.714844 10.2576C0.714844 10.5547 0.790853 10.8329 1.06409 11.2288C1.3413 11.6312 1.81822 11.8523 2.16597 11.4971C2.25837 11.4027 2.70996 10.6605 3.29816 9.69376C4.19983 8.21134 5.41796 6.20182 6.15868 5.19284L6.15818 5.19334Z"
                fill="#23B2E7"
              />
            </svg>