<svg
              width="15"
              height="15"
              viewBox="0 0 15 15"
              fill="none"
              xmlns="http://www.w3.org/2000/svg"
            >
              <path
                d="M7.49967 8.72561C8.16012 8.72561 8.69551 8.17689 8.69551 7.50001C8.69551 6.82312 8.16012 6.2744 7.49967 6.2744C6.83923 6.2744 6.30384 6.82312 6.30384 7.50001C6.30384 8.17689 6.83923 8.72561 7.49967 8.72561Z"
                fill="#23B2E7"
              />
              <path
                d="M7.49967 8.72561C8.16012 8.72561 8.69551 8.17689 8.69551 7.50001C8.69551 6.82312 8.16012 6.2744 7.49967 6.2744C6.83923 6.2744 6.30384 6.82312 6.30384 7.50001C6.30384 8.17689 6.83923 8.72561 7.49967 8.72561Z"
                stroke="#23B2E7"
                strokeWidth="0.583333"
              />
              <path
                d="M7.49967 10.011C11.0435 10.011 13.9163 8.88679 13.9163 7.50001C13.9163 6.11322 11.0435 4.98901 7.49967 4.98901C3.95585 4.98901 1.08301 6.11322 1.08301 7.50001C1.08301 8.88679 3.95585 10.011 7.49967 10.011Z"
                stroke="#23B2E7"
                strokeWidth="0.583333"
              />
              <path
                d="M5.37791 8.75551C7.14983 11.901 9.53619 13.8888 10.708 13.1954C11.8798 12.502 11.3934 9.38996 9.62144 6.24451C7.84952 3.09905 5.46316 1.11126 4.29134 1.80465C3.11952 2.49805 3.606 5.61005 5.37791 8.75551Z"
                stroke="#23B2E7"
                strokeWidth="0.583333"
              />
              <path
                d="M5.37791 6.24451C3.606 9.38996 3.11952 12.502 4.29134 13.1954C5.46316 13.8888 7.84952 11.901 9.62144 8.75551C11.3934 5.61005 11.8798 2.49805 10.708 1.80465C9.53619 1.11126 7.14983 3.09905 5.37791 6.24451Z"
                stroke="#23B2E7"
                strokeWidth="0.583333"
              />
            </svg>