<svg width="946" height="551" viewBox="0 0 946 551" fill="none" xmlns="http://www.w3.org/2000/svg">
<path d="M78.8647 315.288V393.08H157.604V315.288H78.8647Z" fill="url(#paint0_linear_2007_4794)"/>
<path d="M236.344 471.747V393.08H157.604V471.747H236.344Z" fill="url(#paint1_linear_2007_4794)"/>
<path d="M865.385 79.2875V157.954H945V79.2875H865.385Z" fill="url(#paint2_linear_2007_4794)"/>
<path d="M708.781 393.08V471.747H787.521V393.08H708.781Z" fill="url(#paint3_linear_2007_4794)"/>
<path d="M551.302 471.747V550.413H630.042V471.747H551.302Z" fill="url(#paint4_linear_2007_4794)"/>
<path d="M945 315.288H865.385V393.08H945V315.288Z" fill="url(#paint5_linear_2007_4794)"/>
<path d="M787.521 315.288V393.08H865.385V315.288H787.521Z" fill="url(#paint6_linear_2007_4794)"/>
<path d="M78.8647 0.62085H1V79.2875H78.8647V0.62085Z" fill="url(#paint7_linear_2007_4794)"/>
<path d="M551.302 79.2875V0.62085H472.563V79.2875H551.302Z" fill="url(#paint8_linear_2007_4794)"/>
<path d="M1 550.413H78.8647V471.747H1V550.413Z" fill="url(#paint9_linear_2007_4794)"/>
<path d="M78.8647 0.62085H1V79.2875M78.8647 0.62085H157.604M78.8647 0.62085V79.2875M78.8647 550.413H1V471.747M78.8647 550.413H157.604M78.8647 550.413V471.747M78.8647 315.288H1M78.8647 315.288H157.604M78.8647 315.288V236.621M78.8647 315.288V393.08M1 315.288V393.08M1 315.288V236.621M945 315.288V393.08M945 315.288H865.386M945 315.288V236.621M865.386 550.413H945V471.747M865.386 550.413H787.521M865.386 550.413V393.08M865.386 0.62085H945V79.2875M865.386 0.62085H787.521M865.386 0.62085V79.2875M945 79.2875V157.954M945 79.2875H865.386M1 79.2875V157.954M1 79.2875H78.8647M157.604 315.288H236.344M157.604 315.288V393.08M157.604 550.413H236.344M157.604 550.413V471.747M236.344 315.288H315.083M236.344 315.288V393.08M236.344 550.413H315.083M236.344 550.413V471.747M315.083 315.288V550.413M315.083 315.288H393.823M315.083 550.413H393.823M393.823 550.413H473M393.823 550.413V471.747M393.823 315.288H473M393.823 315.288V393.08M473 315.288V550.413M473 315.288H551.302M473 550.413H551.302M551.302 550.413H630.042M551.302 550.413V471.747M551.302 315.288H630.042M551.302 315.288V471.747M630.042 315.288H708.781M630.042 315.288V471.747M630.042 550.413H708.781M630.042 550.413V471.747M708.781 550.413H787.521M708.781 550.413V471.747M708.781 315.288H787.521M708.781 315.288V393.08M787.521 315.288V393.08M787.521 315.288H865.386M787.521 550.413V471.747M393.823 471.747V393.08M393.823 471.747H236.344M393.823 471.747H551.302M1 471.747V393.08M1 471.747H78.8647M945 471.747V393.08M945 471.747H787.521M393.823 393.08H236.344M393.823 393.08H708.781M1 393.08H78.8647M945 393.08H865.386M865.386 315.288V236.621M865.386 315.288V393.08M865.386 236.621H945M865.386 236.621V157.954M945 236.621V157.954M865.386 157.954H945M865.386 157.954V79.2875M787.521 79.2875V0.62085M787.521 79.2875H708.781M787.521 79.2875H865.386M787.521 0.62085H708.781M708.781 79.2875V0.62085M708.781 79.2875H630.042M708.781 0.62085H630.042M630.042 79.2875V0.62085M630.042 79.2875H551.302M630.042 0.62085H551.302M551.302 79.2875V0.62085M551.302 79.2875H472.563M551.302 0.62085H472.563M472.563 79.2875V0.62085M472.563 79.2875H393.823M472.563 0.62085H393.823M393.823 79.2875V0.62085M393.823 79.2875H315.083M393.823 0.62085H315.083M315.083 79.2875V0.62085M315.083 79.2875H236.344M315.083 0.62085H236.344M236.344 79.2875V0.62085M236.344 79.2875H157.604M236.344 0.62085H157.604M157.604 79.2875V0.62085M157.604 79.2875H78.8647M1 157.954H78.8647M1 157.954V236.621M78.8647 157.954V236.621M78.8647 157.954V79.2875M1 236.621H78.8647M78.8647 393.08H157.604M78.8647 393.08V471.747M157.604 393.08H236.344M157.604 393.08V471.747M236.344 471.747V393.08M236.344 471.747H157.604M157.604 471.747H78.8647M708.781 393.08V471.747M708.781 393.08H787.521M708.781 471.747H787.521M708.781 471.747H630.042M787.521 471.747V393.08M787.521 393.08H865.386M551.302 471.747H630.042" stroke="#E2E2E2" strokeWidth="0.874074"/>
<rect x="73.5" y="309" width="12" height="12" rx="1" fill="white" stroke="#E2E2E2"/>
<rect x="859.5" y="310" width="12" height="12" rx="1" fill="white" stroke="#E2E2E2"/>
<rect x="859.5" y="74" width="12" height="12" rx="1" fill="white" stroke="#E2E2E2"/>
<rect x="72.5" y="73" width="12" height="12" rx="1" fill="white" stroke="#E2E2E2"/>
<path d="M743.058 430.442L740.558 427.942C740.5 427.884 740.454 427.815 740.423 427.739C740.391 427.663 740.375 427.582 740.375 427.5C740.375 427.418 740.391 427.337 740.423 427.261C740.454 427.185 740.5 427.116 740.558 427.058L743.058 424.558C743.176 424.441 743.335 424.375 743.5 424.375C743.666 424.375 743.825 424.441 743.943 424.558C744.06 424.675 744.126 424.834 744.126 425C744.126 425.166 744.06 425.325 743.943 425.442L741.884 427.5L743.943 429.558C744.06 429.675 744.126 429.834 744.126 430C744.126 430.166 744.06 430.325 743.943 430.442C743.825 430.559 743.666 430.625 743.5 430.625C743.335 430.625 743.176 430.559 743.058 430.442ZM746.183 430.442C746.241 430.5 746.31 430.546 746.386 430.578C746.462 430.609 746.543 430.625 746.625 430.625C746.708 430.625 746.789 430.609 746.865 430.578C746.941 430.546 747.01 430.5 747.068 430.442L749.568 427.942C749.626 427.884 749.672 427.815 749.703 427.739C749.735 427.663 749.751 427.582 749.751 427.5C749.751 427.418 749.735 427.337 749.703 427.261C749.672 427.185 749.626 427.116 749.568 427.058L747.068 424.558C746.95 424.441 746.791 424.375 746.625 424.375C746.46 424.375 746.301 424.441 746.183 424.558C746.066 424.675 746 424.834 746 425C746 425.166 746.066 425.325 746.183 425.442L748.242 427.5L746.183 429.558C746.125 429.616 746.079 429.685 746.048 429.761C746.016 429.837 746 429.918 746 430C746 430.082 746.016 430.163 746.048 430.239C746.079 430.315 746.125 430.384 746.183 430.442ZM754.125 425.625H752.25C752.085 425.625 751.926 425.691 751.809 425.808C751.691 425.925 751.625 426.084 751.625 426.25C751.625 426.416 751.691 426.575 751.809 426.692C751.926 426.809 752.085 426.875 752.25 426.875H754.125V438.125H742.875V433.125C742.875 432.959 742.81 432.8 742.692 432.683C742.575 432.566 742.416 432.5 742.25 432.5C742.085 432.5 741.926 432.566 741.809 432.683C741.691 432.8 741.625 432.959 741.625 433.125V438.125C741.625 438.457 741.757 438.774 741.992 439.009C742.226 439.243 742.544 439.375 742.875 439.375H754.125C754.457 439.375 754.775 439.243 755.009 439.009C755.244 438.774 755.375 438.457 755.375 438.125V426.875C755.375 426.543 755.244 426.226 755.009 425.991C754.775 425.757 754.457 425.625 754.125 425.625Z" fill="#242424" fillOpacity="0.2"/>
<path d="M832.125 356.875C831.573 356.875 831.036 357.058 830.599 357.397L828.794 355.991C828.93 355.678 829 355.341 829 355C829 354.942 829 354.884 828.994 354.827L830.027 354.483C830.354 354.987 830.852 355.357 831.43 355.524C832.007 355.691 832.625 355.645 833.171 355.393C833.717 355.142 834.154 354.702 834.402 354.155C834.65 353.607 834.693 352.989 834.522 352.412C834.351 351.836 833.979 351.341 833.472 351.017C832.966 350.693 832.36 350.562 831.765 350.649C831.17 350.735 830.627 351.033 830.234 351.488C829.841 351.943 829.625 352.524 829.625 353.125C829.625 353.183 829.625 353.241 829.631 353.298L828.598 353.642C828.371 353.292 828.061 353.004 827.694 352.804C827.328 352.605 826.917 352.5 826.5 352.5C826.362 352.5 826.224 352.512 826.088 352.534L825.554 351.328C826.015 350.959 826.331 350.439 826.446 349.86C826.561 349.281 826.466 348.679 826.18 348.163C825.893 347.646 825.433 347.248 824.881 347.038C824.329 346.828 823.721 346.821 823.163 347.017C822.606 347.213 822.137 347.6 821.838 348.109C821.539 348.618 821.429 349.217 821.53 349.799C821.63 350.381 821.933 350.909 822.385 351.289C822.837 351.669 823.409 351.877 824 351.875C824.138 351.875 824.276 351.863 824.412 351.841L824.946 353.044C824.493 353.402 824.179 353.907 824.056 354.472C823.934 355.037 824.012 355.627 824.277 356.141L822.268 357.925C821.763 357.584 821.15 357.44 820.546 357.518C819.941 357.596 819.386 357.893 818.984 358.351C818.582 358.81 818.362 359.399 818.363 360.009C818.365 360.618 818.589 361.206 818.993 361.663C819.397 362.119 819.954 362.412 820.559 362.487C821.164 362.563 821.776 362.415 822.279 362.071C822.783 361.728 823.144 361.212 823.295 360.621C823.446 360.031 823.376 359.405 823.099 358.862L825.107 357.078C825.542 357.371 826.058 357.519 826.582 357.502C827.106 357.484 827.611 357.302 828.026 356.981L829.831 358.387C829.695 358.699 829.625 359.035 829.625 359.375C829.625 359.869 829.772 360.353 830.046 360.764C830.321 361.175 830.712 361.495 831.168 361.685C831.625 361.874 832.128 361.923 832.613 361.827C833.098 361.73 833.543 361.492 833.893 361.143C834.242 360.793 834.481 360.348 834.577 359.863C834.674 359.378 834.624 358.875 834.435 358.418C834.246 357.961 833.925 357.571 833.514 357.296C833.103 357.022 832.62 356.875 832.125 356.875ZM832.125 351.875C832.372 351.875 832.614 351.948 832.82 352.086C833.025 352.223 833.185 352.418 833.28 352.647C833.375 352.875 833.399 353.126 833.351 353.369C833.303 353.611 833.184 353.834 833.009 354.009C832.834 354.184 832.611 354.303 832.369 354.351C832.126 354.399 831.875 354.374 831.647 354.28C831.418 354.185 831.223 354.025 831.086 353.819C830.948 353.614 830.875 353.372 830.875 353.125C830.875 352.793 831.007 352.476 831.241 352.241C831.476 352.007 831.794 351.875 832.125 351.875ZM822.75 349.375C822.75 349.128 822.823 348.886 822.961 348.681C823.098 348.475 823.293 348.315 823.522 348.22C823.75 348.126 824.001 348.101 824.244 348.149C824.486 348.197 824.709 348.316 824.884 348.491C825.059 348.666 825.178 348.889 825.226 349.131C825.274 349.374 825.25 349.625 825.155 349.853C825.06 350.082 824.9 350.277 824.695 350.414C824.489 350.552 824.247 350.625 824 350.625C823.669 350.625 823.351 350.493 823.116 350.259C822.882 350.024 822.75 349.707 822.75 349.375ZM820.875 361.25C820.628 361.25 820.386 361.177 820.181 361.039C819.975 360.902 819.815 360.707 819.72 360.478C819.626 360.25 819.601 359.999 819.649 359.756C819.697 359.514 819.816 359.291 819.991 359.116C820.166 358.941 820.389 358.822 820.631 358.774C820.874 358.726 821.125 358.751 821.353 358.845C821.582 358.94 821.777 359.1 821.914 359.306C822.052 359.511 822.125 359.753 822.125 360C822.125 360.332 821.993 360.649 821.759 360.884C821.525 361.118 821.207 361.25 820.875 361.25ZM825.25 355C825.25 354.753 825.323 354.511 825.461 354.306C825.598 354.1 825.793 353.94 826.022 353.845C826.25 353.751 826.501 353.726 826.744 353.774C826.986 353.822 827.209 353.941 827.384 354.116C827.559 354.291 827.678 354.514 827.726 354.756C827.774 354.999 827.75 355.25 827.655 355.478C827.56 355.707 827.4 355.902 827.195 356.039C826.989 356.177 826.747 356.25 826.5 356.25C826.169 356.25 825.851 356.118 825.616 355.884C825.382 355.649 825.25 355.332 825.25 355ZM832.125 360.625C831.878 360.625 831.636 360.552 831.431 360.414C831.225 360.277 831.065 360.082 830.97 359.853C830.876 359.625 830.851 359.374 830.899 359.131C830.947 358.889 831.066 358.666 831.241 358.491C831.416 358.316 831.639 358.197 831.881 358.149C832.124 358.101 832.375 358.126 832.603 358.22C832.832 358.315 833.027 358.475 833.164 358.681C833.302 358.886 833.375 359.128 833.375 359.375C833.375 359.707 833.243 360.024 833.009 360.259C832.775 360.493 832.457 360.625 832.125 360.625Z" fill="#242424" fillOpacity="0.2"/>
<path d="M902.844 345.875C901.096 345.875 899.875 347.417 899.875 349.625C899.875 351.833 901.096 353.375 902.844 353.375C904.591 353.375 905.813 351.833 905.813 349.625C905.813 347.417 904.591 345.875 902.844 345.875ZM902.844 352.125C901.487 352.125 901.125 350.554 901.125 349.625C901.125 348.696 901.487 347.125 902.844 347.125C904.201 347.125 904.563 348.696 904.563 349.625C904.563 350.554 904.201 352.125 902.844 352.125ZM908.469 354.625C906.721 354.625 905.5 356.167 905.5 358.375C905.5 360.583 906.721 362.125 908.469 362.125C910.216 362.125 911.438 360.583 911.438 358.375C911.438 356.167 910.216 354.625 908.469 354.625ZM908.469 360.875C907.112 360.875 906.75 359.304 906.75 358.375C906.75 357.446 907.112 355.875 908.469 355.875C909.826 355.875 910.188 357.446 910.188 358.375C910.188 359.304 909.826 360.875 908.469 360.875ZM906.828 347.845C906.788 347.774 906.763 347.695 906.754 347.613C906.744 347.532 906.751 347.449 906.774 347.37C906.796 347.291 906.834 347.217 906.885 347.153C906.936 347.089 906.999 347.035 907.071 346.995L908.946 345.954C909.041 345.901 909.149 345.874 909.257 345.875C909.366 345.876 909.473 345.906 909.567 345.961C909.661 346.016 909.738 346.095 909.792 346.19C909.847 346.284 909.875 346.391 909.875 346.5V352.75C909.875 352.916 909.809 353.075 909.692 353.192C909.575 353.309 909.416 353.375 909.25 353.375C909.084 353.375 908.925 353.309 908.808 353.192C908.691 353.075 908.625 352.916 908.625 352.75V347.562L907.678 348.088C907.606 348.128 907.527 348.153 907.446 348.163C907.364 348.172 907.282 348.165 907.203 348.143C907.124 348.12 907.05 348.082 906.986 348.031C906.922 347.98 906.868 347.917 906.828 347.845ZM903.625 355.25V361.5C903.625 361.666 903.559 361.825 903.442 361.942C903.325 362.059 903.166 362.125 903 362.125C902.834 362.125 902.675 362.059 902.558 361.942C902.441 361.825 902.375 361.666 902.375 361.5V356.313L901.428 356.838C901.283 356.919 901.112 356.938 900.953 356.892C900.793 356.847 900.659 356.74 900.578 356.595C900.498 356.449 900.478 356.278 900.524 356.119C900.57 355.96 900.677 355.825 900.822 355.745L902.697 354.703C902.792 354.65 902.899 354.623 903.008 354.625C903.117 354.626 903.224 354.656 903.317 354.711C903.411 354.766 903.489 354.845 903.543 354.94C903.597 355.034 903.625 355.141 903.625 355.25Z" fill="#242424" fillOpacity="0.2"/>
<path d="M587.791 506.469L582.688 511L587.787 515.531C587.849 515.586 587.899 515.652 587.935 515.726C587.971 515.8 587.992 515.88 587.997 515.962C588.002 516.044 587.991 516.126 587.964 516.204C587.938 516.282 587.896 516.353 587.841 516.415C587.787 516.476 587.721 516.527 587.647 516.563C587.573 516.599 587.493 516.62 587.411 516.625C587.329 516.63 587.246 516.619 587.169 516.592C587.091 516.565 587.019 516.523 586.958 516.469L581.333 511.469C581.266 511.41 581.213 511.338 581.176 511.257C581.14 511.176 581.121 511.089 581.121 511C581.121 510.911 581.14 510.824 581.176 510.743C581.213 510.662 581.266 510.59 581.333 510.531L586.958 505.531C587.019 505.477 587.091 505.435 587.169 505.408C587.247 505.381 587.329 505.369 587.411 505.374C587.493 505.379 587.574 505.4 587.648 505.436C587.722 505.472 587.788 505.522 587.843 505.584C587.898 505.645 587.94 505.717 587.967 505.795C587.993 505.872 588.005 505.955 588 506.037C587.995 506.119 587.974 506.2 587.938 506.274C587.902 506.348 587.852 506.414 587.791 506.469ZM599.666 510.531L594.041 505.531C593.916 505.421 593.753 505.365 593.588 505.375C593.422 505.385 593.267 505.461 593.157 505.585C593.047 505.709 592.991 505.872 593.001 506.038C593.011 506.204 593.087 506.359 593.211 506.469L598.313 511L593.214 515.531C593.152 515.586 593.102 515.652 593.066 515.726C593.03 515.8 593.009 515.88 593.004 515.962C592.999 516.044 593.01 516.126 593.037 516.204C593.064 516.282 593.106 516.353 593.16 516.415C593.215 516.476 593.281 516.527 593.354 516.563C593.428 516.599 593.509 516.62 593.591 516.625C593.673 516.63 593.755 516.619 593.833 516.592C593.91 516.565 593.982 516.523 594.044 516.469L599.669 511.469C599.735 511.41 599.788 511.338 599.825 511.257C599.861 511.176 599.88 511.089 599.88 511C599.88 510.911 599.861 510.824 599.825 510.743C599.788 510.662 599.735 510.59 599.669 510.531H599.666Z" fill="#242424" fillOpacity="0.2"/>
<path d="M204.771 433.782C204.307 431.977 203.192 430.408 201.641 429.375H206.25C206.416 429.375 206.575 429.309 206.692 429.192C206.809 429.075 206.875 428.916 206.875 428.75C206.875 428.584 206.809 428.425 206.692 428.308C206.575 428.191 206.416 428.125 206.25 428.125H199.922C199.784 427.587 199.472 427.111 199.033 426.77C198.595 426.43 198.055 426.245 197.5 426.245C196.945 426.245 196.406 426.43 195.967 426.77C195.529 427.111 195.216 427.587 195.078 428.125H188.75C188.584 428.125 188.425 428.191 188.308 428.308C188.191 428.425 188.125 428.584 188.125 428.75C188.125 428.916 188.191 429.075 188.308 429.192C188.425 429.309 188.584 429.375 188.75 429.375H193.36C191.808 430.408 190.693 431.977 190.229 433.782C189.629 433.878 189.084 434.189 188.697 434.657C188.31 435.125 188.106 435.718 188.124 436.326C188.142 436.933 188.381 437.513 188.796 437.957C189.211 438.401 189.773 438.679 190.378 438.739C190.983 438.798 191.589 438.636 192.082 438.281C192.576 437.926 192.923 437.404 193.059 436.812C193.196 436.22 193.112 435.598 192.823 435.063C192.534 434.528 192.061 434.117 191.491 433.906C191.759 432.981 192.236 432.13 192.885 431.418C193.534 430.706 194.338 430.152 195.235 429.8C195.435 430.233 195.755 430.599 196.157 430.855C196.559 431.112 197.026 431.248 197.503 431.248C197.979 431.248 198.446 431.112 198.848 430.855C199.25 430.599 199.57 430.233 199.771 429.8C200.666 430.153 201.469 430.707 202.117 431.419C202.765 432.131 203.242 432.982 203.51 433.906C202.939 434.116 202.465 434.527 202.176 435.062C201.887 435.596 201.802 436.217 201.938 436.81C202.073 437.402 202.42 437.925 202.913 438.28C203.406 438.635 204.011 438.799 204.616 438.74C205.221 438.681 205.784 438.404 206.199 437.961C206.615 437.517 206.854 436.937 206.873 436.33C206.892 435.723 206.689 435.129 206.302 434.66C205.916 434.192 205.371 433.88 204.771 433.784V433.782ZM191.875 436.25C191.875 436.497 191.802 436.739 191.665 436.944C191.527 437.15 191.332 437.31 191.104 437.405C190.875 437.499 190.624 437.524 190.381 437.476C190.139 437.428 189.916 437.309 189.741 437.134C189.567 436.959 189.447 436.736 189.399 436.494C189.351 436.251 189.376 436 189.47 435.772C189.565 435.543 189.725 435.348 189.931 435.211C190.136 435.073 190.378 435 190.625 435C190.957 435 191.275 435.132 191.509 435.366C191.744 435.601 191.875 435.918 191.875 436.25ZM197.5 430C197.253 430 197.011 429.927 196.806 429.789C196.6 429.652 196.44 429.457 196.345 429.228C196.251 429 196.226 428.749 196.274 428.506C196.322 428.264 196.442 428.041 196.616 427.866C196.791 427.691 197.014 427.572 197.256 427.524C197.499 427.476 197.75 427.501 197.979 427.595C198.207 427.69 198.402 427.85 198.54 428.056C198.677 428.261 198.75 428.503 198.75 428.75C198.75 429.082 198.619 429.399 198.384 429.634C198.15 429.868 197.832 430 197.5 430ZM204.375 437.5C204.128 437.5 203.886 437.427 203.681 437.289C203.475 437.152 203.315 436.957 203.22 436.728C203.126 436.5 203.101 436.249 203.149 436.006C203.197 435.764 203.317 435.541 203.491 435.366C203.666 435.191 203.889 435.072 204.131 435.024C204.374 434.976 204.625 435.001 204.854 435.095C205.082 435.19 205.277 435.35 205.415 435.556C205.552 435.761 205.625 436.003 205.625 436.25C205.625 436.582 205.494 436.899 205.259 437.134C205.025 437.368 204.707 437.5 204.375 437.5Z" fill="#242424" fillOpacity="0.2"/>
<path d="M122.874 354.5C122.879 357.025 122.387 359.527 121.426 361.863C121.379 361.978 121.3 362.076 121.197 362.146C121.094 362.216 120.972 362.253 120.848 362.253C120.768 362.252 120.688 362.236 120.614 362.206C120.538 362.175 120.468 362.129 120.41 362.071C120.352 362.013 120.306 361.945 120.274 361.869C120.242 361.793 120.226 361.712 120.226 361.629C120.226 361.547 120.242 361.466 120.273 361.39C121.171 359.204 121.63 356.863 121.624 354.5C121.624 354.334 121.69 354.175 121.808 354.058C121.925 353.941 122.084 353.875 122.249 353.875C122.415 353.875 122.574 353.941 122.691 354.058C122.809 354.175 122.874 354.334 122.874 354.5ZM118.499 351.375C118.939 351.375 119.374 351.468 119.775 351.648C120.176 351.827 120.535 352.089 120.828 352.416C120.883 352.479 120.949 352.53 121.023 352.567C121.098 352.604 121.178 352.626 121.261 352.631C121.344 352.636 121.427 352.625 121.505 352.598C121.584 352.57 121.656 352.528 121.717 352.473C121.779 352.417 121.829 352.35 121.865 352.275C121.901 352.201 121.921 352.119 121.925 352.037C121.929 351.954 121.916 351.871 121.888 351.793C121.859 351.715 121.816 351.644 121.76 351.583C121.169 350.923 120.392 350.457 119.531 350.249C118.67 350.04 117.766 350.097 116.938 350.413C116.11 350.73 115.398 351.29 114.896 352.019C114.394 352.749 114.125 353.614 114.124 354.5C114.124 356.3 113.667 358.07 112.796 359.645C112.757 359.716 112.731 359.795 112.722 359.877C112.713 359.958 112.72 360.041 112.742 360.12C112.765 360.199 112.803 360.273 112.854 360.337C112.905 360.401 112.968 360.455 113.04 360.495C113.112 360.534 113.191 360.56 113.272 360.569C113.354 360.578 113.437 360.571 113.516 360.549C113.594 360.526 113.668 360.488 113.732 360.437C113.797 360.386 113.85 360.323 113.89 360.251C114.864 358.49 115.374 356.512 115.374 354.5C115.374 353.671 115.704 352.876 116.29 352.29C116.876 351.704 117.671 351.375 118.499 351.375ZM118.499 346.375C117.577 346.374 116.661 346.53 115.791 346.838C115.637 346.895 115.513 347.01 115.443 347.159C115.374 347.307 115.366 347.477 115.421 347.632C115.475 347.786 115.588 347.913 115.736 347.985C115.883 348.057 116.053 348.068 116.208 348.016C117.245 347.65 118.355 347.538 119.444 347.69C120.533 347.842 121.57 348.252 122.468 348.887C123.366 349.522 124.098 350.363 124.604 351.34C125.11 352.317 125.374 353.4 125.374 354.5C125.375 356.136 125.193 357.766 124.832 359.362C124.796 359.523 124.824 359.692 124.912 359.832C125 359.973 125.14 360.072 125.301 360.109C125.347 360.12 125.393 360.125 125.44 360.125C125.582 360.125 125.719 360.077 125.83 359.988C125.941 359.9 126.018 359.776 126.049 359.638C126.431 357.952 126.624 356.229 126.624 354.5C126.622 352.346 125.765 350.281 124.242 348.757C122.719 347.234 120.654 346.377 118.499 346.375ZM113.917 349.377C113.978 349.322 114.028 349.256 114.063 349.182C114.099 349.108 114.12 349.027 114.124 348.945C114.129 348.863 114.117 348.781 114.09 348.704C114.063 348.626 114.021 348.555 113.966 348.494C113.911 348.433 113.845 348.383 113.771 348.347C113.697 348.312 113.617 348.291 113.535 348.286C113.453 348.282 113.371 348.293 113.293 348.321C113.216 348.348 113.144 348.39 113.083 348.445C112.232 349.207 111.55 350.14 111.084 351.184C110.617 352.227 110.375 353.357 110.374 354.5C110.376 355.489 110.163 356.466 109.749 357.364C109.715 357.439 109.696 357.519 109.693 357.601C109.69 357.683 109.703 357.765 109.731 357.842C109.789 357.998 109.906 358.124 110.056 358.193C110.207 358.262 110.379 358.269 110.535 358.211C110.69 358.154 110.816 358.037 110.885 357.886C111.374 356.824 111.627 355.669 111.624 354.5C111.625 353.533 111.83 352.577 112.225 351.694C112.62 350.811 113.196 350.022 113.917 349.377ZM117.399 360.183C117.325 360.149 117.244 360.129 117.162 360.126C117.08 360.123 116.998 360.136 116.921 360.165C116.844 360.193 116.774 360.237 116.714 360.292C116.653 360.348 116.605 360.415 116.571 360.49C116.421 360.818 116.258 361.145 116.079 361.462C116.039 361.534 116.014 361.613 116.004 361.694C115.995 361.776 116.002 361.859 116.024 361.938C116.047 362.017 116.085 362.091 116.136 362.155C116.188 362.219 116.251 362.273 116.323 362.313C116.415 362.364 116.519 362.391 116.625 362.391C116.737 362.391 116.846 362.361 116.943 362.304C117.039 362.248 117.118 362.166 117.172 362.069C117.363 361.724 117.542 361.366 117.706 361.013C117.741 360.938 117.76 360.857 117.763 360.775C117.767 360.693 117.754 360.611 117.725 360.534C117.697 360.457 117.653 360.386 117.597 360.326C117.541 360.266 117.474 360.217 117.399 360.183ZM118.499 353.875C118.334 353.875 118.175 353.941 118.058 354.058C117.94 354.175 117.874 354.334 117.874 354.5C117.875 355.712 117.723 356.92 117.422 358.094C117.381 358.254 117.405 358.425 117.489 358.567C117.573 358.71 117.711 358.813 117.871 358.855C117.922 358.868 117.975 358.874 118.028 358.874C118.166 358.874 118.301 358.828 118.41 358.743C118.519 358.658 118.598 358.54 118.632 358.405C118.96 357.129 119.125 355.817 119.124 354.499C119.124 354.334 119.058 354.175 118.941 354.058C118.824 353.941 118.665 353.875 118.499 353.875Z" fill="#242424" fillOpacity="0.2"/>
<path d="M49.1923 506.308L46.6923 503.808C46.575 503.691 46.4159 503.625 46.2501 503.625C46.0842 503.625 45.9252 503.691 45.8079 503.808C45.6906 503.925 45.6247 504.084 45.6247 504.25C45.6247 504.416 45.6906 504.575 45.8079 504.692L47.2415 506.125H46.2501C42.3962 506.125 41.4805 508.322 40.6735 510.259C39.9407 512.018 39.3516 513.43 36.8079 513.606C36.6483 512.848 36.213 512.177 35.5863 511.722C34.9597 511.267 34.1865 511.061 33.4165 511.143C32.6465 511.226 31.9346 511.591 31.4188 512.169C30.9031 512.747 30.6202 513.496 30.6251 514.27C30.6299 515.044 30.9221 515.789 31.445 516.361C31.968 516.932 32.6844 517.288 33.4553 517.361C34.2263 517.434 34.9969 517.219 35.6178 516.756C36.2387 516.293 36.6656 515.616 36.8157 514.856C40.1954 514.649 41.061 512.579 41.8266 510.74C42.6102 508.859 43.229 507.375 46.2501 507.375H47.2415L45.8079 508.808C45.6906 508.925 45.6247 509.084 45.6247 509.25C45.6247 509.416 45.6906 509.575 45.8079 509.692C45.9252 509.809 46.0842 509.875 46.2501 509.875C46.4159 509.875 46.575 509.809 46.6923 509.692L49.1923 507.192C49.2504 507.134 49.2965 507.065 49.3279 506.989C49.3594 506.913 49.3756 506.832 49.3756 506.75C49.3756 506.668 49.3594 506.587 49.3279 506.511C49.2965 506.435 49.2504 506.366 49.1923 506.308ZM33.7501 516.125C33.3792 516.125 33.0167 516.015 32.7084 515.809C32.4 515.603 32.1597 515.31 32.0178 514.968C31.8759 514.625 31.8388 514.248 31.9111 513.884C31.9835 513.52 32.162 513.186 32.4243 512.924C32.6865 512.662 33.0206 512.483 33.3843 512.411C33.748 512.339 34.125 512.376 34.4676 512.518C34.8102 512.66 35.1031 512.9 35.3091 513.208C35.5151 513.517 35.6251 513.879 35.6251 514.25C35.6251 514.747 35.4275 515.224 35.0759 515.576C34.7243 515.927 34.2474 516.125 33.7501 516.125Z" fill="#242424" fillOpacity="0.2"/>
<path d="M49.875 38.875H44.8297C44.6787 37.8344 44.1581 36.883 43.3629 36.1949C42.5678 35.5068 41.5515 35.1281 40.5 35.1281C39.4485 35.1281 38.4322 35.5068 37.6371 36.1949C36.8419 36.883 36.3213 37.8344 36.1703 38.875H31.125C30.9592 38.875 30.8003 38.9409 30.6831 39.0581C30.5658 39.1753 30.5 39.3343 30.5 39.5C30.5 39.6658 30.5658 39.8247 30.6831 39.942C30.8003 40.0592 30.9592 40.125 31.125 40.125H36.1703C36.3213 41.1656 36.8419 42.1171 37.6371 42.8052C38.4322 43.4933 39.4485 43.872 40.5 43.872C41.5515 43.872 42.5678 43.4933 43.3629 42.8052C44.1581 42.1171 44.6787 41.1656 44.8297 40.125H49.875C50.0408 40.125 50.1997 40.0592 50.3169 39.942C50.4342 39.8247 50.5 39.6658 50.5 39.5C50.5 39.3343 50.4342 39.1753 50.3169 39.0581C50.1997 38.9409 50.0408 38.875 49.875 38.875ZM40.5 42.625C39.8819 42.625 39.2777 42.4417 38.7638 42.0984C38.2499 41.755 37.8494 41.2669 37.6129 40.6959C37.3764 40.1249 37.3145 39.4965 37.435 38.8904C37.5556 38.2842 37.8533 37.7273 38.2903 37.2903C38.7273 36.8533 39.2842 36.5556 39.8903 36.4351C40.4965 36.3145 41.1249 36.3764 41.6959 36.6129C42.2669 36.8494 42.755 37.25 43.0983 37.7639C43.4417 38.2778 43.625 38.8819 43.625 39.5C43.625 40.3288 43.2958 41.1237 42.7097 41.7097C42.1237 42.2958 41.3288 42.625 40.5 42.625Z" fill="#242424" fillOpacity="0.2"/>
<path d="M519.625 35C519.625 34.5325 519.493 34.0744 519.246 33.6777C518.998 33.2811 518.645 32.9618 518.225 32.7561C517.805 32.5505 517.336 32.4667 516.871 32.5142C516.406 32.5618 515.963 32.7388 515.594 33.0252C515.224 33.3116 514.942 33.6959 514.78 34.1344C514.618 34.5729 514.582 35.0481 514.677 35.506C514.771 35.9639 514.992 36.3862 515.314 36.7249C515.636 37.0635 516.047 37.305 516.5 37.4219V38.75C516.5 38.9158 516.434 39.0747 516.317 39.1919C516.2 39.3091 516.041 39.375 515.875 39.375H509C508.787 39.3749 508.576 39.4114 508.375 39.4828V37.4219C508.964 37.2697 509.478 36.908 509.819 36.4044C510.161 35.9008 510.307 35.2899 510.23 34.6862C510.153 34.0826 509.859 33.5277 509.403 33.1254C508.946 32.7232 508.358 32.5013 507.75 32.5013C507.142 32.5013 506.554 32.7232 506.097 33.1254C505.641 33.5277 505.347 34.0826 505.27 34.6862C505.193 35.2899 505.339 35.9008 505.681 36.4044C506.022 36.908 506.536 37.2697 507.125 37.4219V42.5781C506.536 42.7302 506.022 43.092 505.681 43.5956C505.339 44.0992 505.193 44.7101 505.27 45.3137C505.347 45.9174 505.641 46.4723 506.097 46.8746C506.554 47.2768 507.142 47.4987 507.75 47.4987C508.358 47.4987 508.946 47.2768 509.403 46.8746C509.859 46.4723 510.153 45.9174 510.23 45.3137C510.307 44.7101 510.161 44.0992 509.819 43.5956C509.478 43.092 508.964 42.7302 508.375 42.5781V41.25C508.375 41.0842 508.441 40.9253 508.558 40.808C508.675 40.6908 508.834 40.625 509 40.625H515.875C516.372 40.625 516.849 40.4274 517.201 40.0758C517.552 39.7242 517.75 39.2473 517.75 38.75V37.4219C518.286 37.2825 518.762 36.9692 519.101 36.5309C519.44 36.0927 519.624 35.5542 519.625 35ZM506.5 35C506.5 34.7528 506.573 34.5111 506.711 34.3055C506.848 34.1 507.043 33.9398 507.272 33.8451C507.5 33.7505 507.751 33.7258 507.994 33.774C508.236 33.8222 508.459 33.9413 508.634 34.1161C508.809 34.2909 508.928 34.5137 508.976 34.7561C509.024 34.9986 508.999 35.2499 508.905 35.4783C508.81 35.7068 508.65 35.902 508.444 36.0393C508.239 36.1767 507.997 36.25 507.75 36.25C507.418 36.25 507.101 36.1183 506.866 35.8839C506.632 35.6495 506.5 35.3315 506.5 35ZM509 45C509 45.2472 508.927 45.4889 508.789 45.6945C508.652 45.9 508.457 46.0602 508.228 46.1548C508 46.2495 507.749 46.2742 507.506 46.226C507.264 46.1777 507.041 46.0587 506.866 45.8839C506.691 45.7091 506.572 45.4863 506.524 45.2439C506.476 45.0014 506.501 44.75 506.595 44.5216C506.69 44.2932 506.85 44.098 507.056 43.9607C507.261 43.8233 507.503 43.75 507.75 43.75C508.082 43.75 508.399 43.8817 508.634 44.1161C508.868 44.3505 509 44.6685 509 45ZM517.125 36.25C516.878 36.25 516.636 36.1767 516.431 36.0393C516.225 35.902 516.065 35.7068 515.97 35.4783C515.876 35.2499 515.851 34.9986 515.899 34.7561C515.947 34.5137 516.066 34.2909 516.241 34.1161C516.416 33.9413 516.639 33.8222 516.881 33.774C517.124 33.7258 517.375 33.7505 517.603 33.8451C517.832 33.9398 518.027 34.1 518.164 34.3055C518.302 34.5111 518.375 34.7528 518.375 35C518.375 35.3315 518.243 35.6495 518.009 35.8839C517.774 36.1183 517.457 36.25 517.125 36.25Z" fill="#242424" fillOpacity="0.2"/>
<path d="M913 116.375H909.203L909.865 112.737C909.891 112.575 909.853 112.409 909.759 112.275C909.664 112.141 909.521 112.05 909.36 112.02C909.199 111.991 909.032 112.026 908.897 112.119C908.761 112.211 908.667 112.353 908.635 112.513L907.932 116.375H904.203L904.865 112.737C904.891 112.575 904.853 112.409 904.759 112.275C904.664 112.141 904.521 112.05 904.36 112.02C904.199 111.991 904.032 112.026 903.897 112.119C903.761 112.211 903.667 112.353 903.635 112.513L902.933 116.375H899.25C899.084 116.375 898.925 116.441 898.808 116.558C898.691 116.675 898.625 116.834 898.625 117C898.625 117.166 898.691 117.325 898.808 117.442C898.925 117.559 899.084 117.625 899.25 117.625H902.705L902.023 121.375H898C897.834 121.375 897.675 121.441 897.558 121.558C897.441 121.675 897.375 121.834 897.375 122C897.375 122.166 897.441 122.325 897.558 122.442C897.675 122.559 897.834 122.625 898 122.625H901.797L901.135 126.263C901.106 126.426 901.142 126.595 901.236 126.731C901.331 126.867 901.475 126.96 901.638 126.99C901.675 126.997 901.713 127 901.75 127C901.896 127 902.038 126.948 902.15 126.855C902.262 126.761 902.338 126.631 902.364 126.487L903.067 122.625H906.797L906.135 126.263C906.106 126.426 906.142 126.595 906.236 126.731C906.331 126.867 906.475 126.96 906.638 126.99C906.675 126.997 906.713 127 906.75 127C906.896 127 907.038 126.948 907.15 126.855C907.262 126.761 907.338 126.631 907.364 126.487L908.067 122.625H911.75C911.916 122.625 912.075 122.559 912.192 122.442C912.309 122.325 912.375 122.166 912.375 122C912.375 121.834 912.309 121.675 912.192 121.558C912.075 121.441 911.916 121.375 911.75 121.375H908.295L908.977 117.625H913C913.166 117.625 913.325 117.559 913.442 117.442C913.559 117.325 913.625 117.166 913.625 117C913.625 116.834 913.559 116.675 913.442 116.558C913.325 116.441 913.166 116.375 913 116.375ZM907.023 121.375H903.295L903.977 117.625H907.705L907.023 121.375Z" fill="#242424" fillOpacity="0.2"/>
<defs>
<linearGradient id="paint0_linear_2007_4794" x1="473" y1="0.62085" x2="473" y2="629.08" gradientUnits="userSpaceOnUse">
<stop stop-color="white" stop-opacity="0.7"/>
<stop offset="1" stop-color="white" stop-opacity="0.5"/>
</linearGradient>
<linearGradient id="paint1_linear_2007_4794" x1="473" y1="0.62085" x2="473" y2="629.08" gradientUnits="userSpaceOnUse">
<stop stop-color="white" stop-opacity="0.7"/>
<stop offset="1" stop-color="white" stop-opacity="0.5"/>
</linearGradient>
<linearGradient id="paint2_linear_2007_4794" x1="473" y1="0.62085" x2="473" y2="629.08" gradientUnits="userSpaceOnUse">
<stop stop-color="white" stop-opacity="0.7"/>
<stop offset="1" stop-color="white" stop-opacity="0.5"/>
</linearGradient>
<linearGradient id="paint3_linear_2007_4794" x1="473" y1="0.62085" x2="473" y2="629.08" gradientUnits="userSpaceOnUse">
<stop stop-color="white" stop-opacity="0.7"/>
<stop offset="1" stop-color="white" stop-opacity="0.5"/>
</linearGradient>
<linearGradient id="paint4_linear_2007_4794" x1="473" y1="0.62085" x2="473" y2="629.08" gradientUnits="userSpaceOnUse">
<stop stop-color="white" stop-opacity="0.7"/>
<stop offset="1" stop-color="white" stop-opacity="0.5"/>
</linearGradient>
<linearGradient id="paint5_linear_2007_4794" x1="473" y1="0.62085" x2="473" y2="629.08" gradientUnits="userSpaceOnUse">
<stop stop-color="white" stop-opacity="0.7"/>
<stop offset="1" stop-color="white" stop-opacity="0.5"/>
</linearGradient>
<linearGradient id="paint6_linear_2007_4794" x1="473" y1="0.62085" x2="473" y2="629.08" gradientUnits="userSpaceOnUse">
<stop stop-color="white" stop-opacity="0.7"/>
<stop offset="1" stop-color="white" stop-opacity="0.5"/>
</linearGradient>
<linearGradient id="paint7_linear_2007_4794" x1="473" y1="0.62085" x2="473" y2="629.08" gradientUnits="userSpaceOnUse">
<stop stop-color="white" stop-opacity="0.7"/>
<stop offset="1" stop-color="white" stop-opacity="0.5"/>
</linearGradient>
<linearGradient id="paint8_linear_2007_4794" x1="473" y1="0.62085" x2="473" y2="629.08" gradientUnits="userSpaceOnUse">
<stop stop-color="white" stop-opacity="0.7"/>
<stop offset="1" stop-color="white" stop-opacity="0.5"/>
</linearGradient>
<linearGradient id="paint9_linear_2007_4794" x1="473" y1="0.62085" x2="473" y2="629.08" gradientUnits="userSpaceOnUse">
<stop stop-color="white" stop-opacity="0.7"/>
<stop offset="1" stop-color="white" stop-opacity="0.5"/>
</linearGradient>
</defs>
</svg>
