<svg width="1081" height="721" viewBox="0 0 1081 721" fill="none" xmlns="http://www.w3.org/2000/svg">
<path d="M89.5825 451V540H179.666V451H89.5825Z" fill="url(#paint0_linear_2007_4795)"/>
<path d="M269.749 630V540H179.666V630H269.749Z" fill="url(#paint1_linear_2007_4795)"/>
<path d="M989.416 91V181H1080.5V91H989.416Z" fill="url(#paint2_linear_2007_4795)"/>
<path d="M810.25 540V630H900.333V540H810.25Z" fill="url(#paint3_linear_2007_4795)"/>
<path d="M630.083 630V720H720.166V630H630.083Z" fill="url(#paint4_linear_2007_4795)"/>
<path d="M1080.5 451H989.416V540H1080.5V451Z" fill="url(#paint5_linear_2007_4795)"/>
<path d="M900.333 451V540H989.416V451H900.333Z" fill="url(#paint6_linear_2007_4795)"/>
<path d="M89.5825 1H0.5V91H89.5825V1Z" fill="url(#paint7_linear_2007_4795)"/>
<path d="M630.083 91V1H540V91H630.083Z" fill="url(#paint8_linear_2007_4795)"/>
<path d="M0.5 720H89.5825V630H0.5V720Z" fill="url(#paint9_linear_2007_4795)"/>
<path d="M89.5825 1H0.5V91M89.5825 1H179.666M89.5825 1V91M89.5825 720H0.5V630M89.5825 720H179.666M89.5825 720V630M89.5825 451H0.5M89.5825 451H179.666M89.5825 451V361M89.5825 451V540M0.5 451V540M0.5 451V361M1080.5 451V540M1080.5 451V361M1080.5 451H989.416M989.416 720H1080.5V630M989.416 720H900.333M989.416 720V540M989.416 1H1080.5V91M989.416 1H900.333M989.416 1V91M1080.5 91V181M1080.5 91H989.416M0.5 91V181M0.5 91H89.5825M179.666 451H269.749M179.666 451V540M179.666 720H269.749M179.666 720V630M269.749 451H359.833M269.749 451V540M269.749 720H359.833M269.749 720V630M359.833 451V720M359.833 451H449.916M359.833 720H449.916M449.916 720H540.5M449.916 720V630M449.916 451H540.5M449.916 451V540M540.5 451V720M540.5 451H630.083M540.5 720H630.083M630.083 720H720.166M630.083 720V630M630.083 451H720.166M630.083 451V630M720.166 451H810.25M720.166 451V630M720.166 720H810.25M720.166 720V630M810.25 720H900.333M810.25 720V630M810.25 451H900.333M810.25 451V540M900.333 451V540M900.333 451H989.416M900.333 720V630M449.916 630V540M449.916 630H269.749M449.916 630H630.083M0.5 630V540M0.5 630H89.5825M1080.5 630V540M1080.5 630H900.333M449.916 540H269.749M449.916 540H810.25M0.5 540H89.5825M1080.5 540H989.416M989.416 361H1080.5M989.416 361V271M989.416 361V451M1080.5 361V271M989.416 271H1080.5M989.416 271V181M1080.5 271V181M989.416 181H1080.5M989.416 181V91M900.333 91V1M900.333 91H810.25M900.333 91H989.416M900.333 1H810.25M810.25 91V1M810.25 91H720.166M810.25 1H720.166M720.166 91V1M720.166 91H630.083M720.166 1H630.083M630.083 91V1M630.083 91H540M630.083 1H540M540 91V1M540 91H449.916M540 1H449.916M449.916 91V1M449.916 91H359.833M449.916 1H359.833M359.833 91V1M359.833 91H269.749M359.833 1H269.749M269.749 91V1M269.749 91H179.666M269.749 1H179.666M179.666 91V1M179.666 91H89.5825M0.5 181H89.5825M0.5 181V271M89.5825 181V271M89.5825 181V91M0.5 271H89.5825M0.5 271V361M89.5825 271V361M0.5 361H89.5825M89.5825 540H179.666M89.5825 540V630M179.666 540H269.749M179.666 540V630M269.749 630V540M269.749 630H179.666M179.666 630H89.5825M810.25 540V630M810.25 540H900.333M810.25 630H900.333M810.25 630H720.166M900.333 630V540M900.333 540H989.416M630.083 630H720.166M989.416 451V540" stroke="#E2E2E2"/>
<rect x="83.5" y="445" width="12" height="12" rx="1" fill="white" stroke="#E2E2E2"/>
<rect x="982.5" y="445" width="12" height="12" rx="1" fill="white" stroke="#E2E2E2"/>
<rect x="982.5" y="85" width="12" height="12" rx="1" fill="white" stroke="#E2E2E2"/>
<rect x="83.5" y="85" width="12" height="12" rx="1" fill="white" stroke="#E2E2E2"/>
<path d="M848.97 582.531L845.97 579.531C845.9 579.461 845.845 579.378 845.807 579.287C845.769 579.196 845.75 579.099 845.75 579C845.75 578.901 845.769 578.804 845.807 578.713C845.845 578.622 845.9 578.539 845.97 578.469L848.97 575.469C849.111 575.329 849.302 575.25 849.501 575.25C849.7 575.25 849.89 575.329 850.031 575.469C850.172 575.61 850.251 575.801 850.251 576C850.251 576.199 850.172 576.39 850.031 576.531L847.561 579L850.031 581.469C850.172 581.61 850.251 581.801 850.251 582C850.251 582.199 850.172 582.39 850.031 582.531C849.89 582.671 849.7 582.75 849.501 582.75C849.302 582.75 849.111 582.671 848.97 582.531ZM852.72 582.531C852.79 582.6 852.872 582.656 852.963 582.693C853.054 582.731 853.152 582.751 853.251 582.751C853.349 582.751 853.447 582.731 853.538 582.693C853.629 582.656 853.712 582.6 853.781 582.531L856.781 579.531C856.851 579.461 856.906 579.378 856.944 579.287C856.982 579.196 857.001 579.099 857.001 579C857.001 578.901 856.982 578.804 856.944 578.713C856.906 578.622 856.851 578.539 856.781 578.469L853.781 575.469C853.64 575.329 853.45 575.25 853.251 575.25C853.052 575.25 852.861 575.329 852.72 575.469C852.579 575.61 852.5 575.801 852.5 576C852.5 576.199 852.579 576.39 852.72 576.531L855.19 579L852.72 581.469C852.65 581.539 852.595 581.622 852.557 581.713C852.519 581.804 852.5 581.901 852.5 582C852.5 582.099 852.519 582.196 852.557 582.287C852.595 582.378 852.65 582.461 852.72 582.531ZM862.251 576.75H860.001C859.802 576.75 859.611 576.829 859.47 576.97C859.33 577.11 859.251 577.301 859.251 577.5C859.251 577.699 859.33 577.89 859.47 578.03C859.611 578.171 859.802 578.25 860.001 578.25H862.251V591.75H848.751V585.75C848.751 585.551 848.672 585.36 848.531 585.22C848.39 585.079 848.2 585 848.001 585C847.802 585 847.611 585.079 847.47 585.22C847.33 585.36 847.251 585.551 847.251 585.75V591.75C847.251 592.148 847.409 592.529 847.69 592.811C847.971 593.092 848.353 593.25 848.751 593.25H862.251C862.648 593.25 863.03 593.092 863.311 592.811C863.593 592.529 863.751 592.148 863.751 591.75V578.25C863.751 577.852 863.593 577.471 863.311 577.189C863.03 576.908 862.648 576.75 862.251 576.75Z" fill="#242424" fillOpacity="0.2"/>
<path d="M951.75 497.75C951.087 497.75 950.442 497.97 949.919 498.376L947.752 496.689C947.916 496.314 948 495.909 948 495.5C948 495.431 948 495.361 947.992 495.293L949.232 494.879C949.625 495.485 950.222 495.928 950.915 496.129C951.608 496.329 952.35 496.274 953.005 495.972C953.66 495.67 954.184 495.143 954.482 494.486C954.78 493.829 954.831 493.086 954.626 492.395C954.421 491.703 953.974 491.109 953.366 490.72C952.759 490.331 952.031 490.175 951.318 490.279C950.604 490.382 949.951 490.74 949.48 491.286C949.008 491.831 948.749 492.529 948.75 493.25C948.75 493.319 948.75 493.389 948.757 493.457L947.517 493.871C947.245 493.45 946.872 493.105 946.432 492.865C945.993 492.626 945.5 492.5 945 492.5C944.834 492.5 944.669 492.514 944.505 492.541L943.864 491.094C944.418 490.651 944.797 490.027 944.935 489.332C945.072 488.637 944.959 487.915 944.615 487.295C944.272 486.675 943.72 486.197 943.057 485.946C942.394 485.694 941.664 485.685 940.996 485.92C940.327 486.155 939.763 486.62 939.405 487.231C939.046 487.842 938.915 488.561 939.035 489.259C939.155 489.958 939.519 490.591 940.062 491.047C940.604 491.503 941.291 491.752 942 491.75C942.165 491.75 942.33 491.736 942.494 491.709L943.135 493.152C942.591 493.583 942.214 494.189 942.067 494.867C941.921 495.544 942.014 496.252 942.331 496.869L939.921 499.01C939.315 498.601 938.58 498.427 937.854 498.522C937.129 498.616 936.462 498.971 935.98 499.521C935.498 500.072 935.233 500.779 935.235 501.51C935.237 502.242 935.506 502.948 935.991 503.495C936.476 504.043 937.144 504.395 937.87 504.485C938.596 504.575 939.33 504.397 939.935 503.985C940.539 503.573 940.972 502.955 941.153 502.246C941.334 501.537 941.25 500.786 940.918 500.135L943.328 497.994C943.85 498.345 944.469 498.523 945.098 498.502C945.727 498.481 946.333 498.263 946.83 497.877L948.997 499.565C948.834 499.939 948.75 500.342 948.75 500.75C948.75 501.343 948.925 501.923 949.255 502.417C949.585 502.91 950.053 503.295 950.601 503.522C951.15 503.749 951.753 503.808 952.335 503.692C952.917 503.577 953.451 503.291 953.871 502.871C954.29 502.452 954.576 501.917 954.692 501.335C954.808 500.753 954.748 500.15 954.521 499.602C954.294 499.054 953.91 498.585 953.416 498.256C952.923 497.926 952.343 497.75 951.75 497.75ZM951.75 491.75C952.046 491.75 952.336 491.838 952.583 492.003C952.83 492.168 953.022 492.402 953.135 492.676C953.249 492.95 953.279 493.252 953.221 493.543C953.163 493.834 953.02 494.101 952.81 494.311C952.6 494.52 952.333 494.663 952.042 494.721C951.751 494.779 951.45 494.749 951.175 494.636C950.901 494.522 950.667 494.33 950.502 494.083C950.337 493.837 950.25 493.547 950.25 493.25C950.25 492.852 950.408 492.471 950.689 492.189C950.97 491.908 951.352 491.75 951.75 491.75ZM940.5 488.75C940.5 488.453 940.587 488.163 940.752 487.917C940.917 487.67 941.151 487.478 941.425 487.364C941.7 487.251 942.001 487.221 942.292 487.279C942.583 487.337 942.85 487.48 943.06 487.689C943.27 487.899 943.413 488.166 943.471 488.457C943.529 488.748 943.499 489.05 943.385 489.324C943.272 489.598 943.08 489.832 942.833 489.997C942.586 490.162 942.296 490.25 942 490.25C941.602 490.25 941.22 490.092 940.939 489.811C940.658 489.529 940.5 489.148 940.5 488.75ZM938.25 503C937.953 503 937.663 502.912 937.416 502.747C937.169 502.582 936.977 502.348 936.864 502.074C936.75 501.8 936.72 501.498 936.778 501.207C936.836 500.916 936.979 500.649 937.189 500.439C937.399 500.23 937.666 500.087 937.957 500.029C938.248 499.971 938.549 500.001 938.824 500.114C939.098 500.228 939.332 500.42 939.497 500.667C939.662 500.913 939.75 501.203 939.75 501.5C939.75 501.898 939.591 502.279 939.31 502.561C939.029 502.842 938.647 503 938.25 503ZM943.5 495.5C943.5 495.203 943.587 494.913 943.752 494.667C943.917 494.42 944.151 494.228 944.425 494.114C944.7 494.001 945.001 493.971 945.292 494.029C945.583 494.087 945.85 494.23 946.06 494.439C946.27 494.649 946.413 494.916 946.471 495.207C946.529 495.498 946.499 495.8 946.385 496.074C946.272 496.348 946.08 496.582 945.833 496.747C945.586 496.912 945.296 497 945 497C944.602 497 944.22 496.842 943.939 496.561C943.658 496.279 943.5 495.898 943.5 495.5ZM951.75 502.25C951.453 502.25 951.163 502.162 950.916 501.997C950.669 501.832 950.477 501.598 950.364 501.324C950.25 501.05 950.22 500.748 950.278 500.457C950.336 500.166 950.479 499.899 950.689 499.689C950.899 499.48 951.166 499.337 951.457 499.279C951.748 499.221 952.049 499.251 952.324 499.364C952.598 499.478 952.832 499.67 952.997 499.917C953.162 500.163 953.25 500.453 953.25 500.75C953.25 501.148 953.091 501.529 952.81 501.811C952.529 502.092 952.147 502.25 951.75 502.25Z" fill="#242424" fillOpacity="0.2"/>
<path d="M1031.81 485.75C1029.72 485.75 1028.25 487.601 1028.25 490.25C1028.25 492.899 1029.72 494.75 1031.81 494.75C1033.91 494.75 1035.38 492.899 1035.38 490.25C1035.38 487.601 1033.91 485.75 1031.81 485.75ZM1031.81 493.25C1030.18 493.25 1029.75 491.365 1029.75 490.25C1029.75 489.135 1030.18 487.25 1031.81 487.25C1033.44 487.25 1033.88 489.135 1033.88 490.25C1033.88 491.365 1033.44 493.25 1031.81 493.25ZM1038.56 496.25C1036.47 496.25 1035 498.101 1035 500.75C1035 503.399 1036.47 505.25 1038.56 505.25C1040.66 505.25 1042.12 503.399 1042.12 500.75C1042.12 498.101 1040.66 496.25 1038.56 496.25ZM1038.56 503.75C1036.93 503.75 1036.5 501.865 1036.5 500.75C1036.5 499.635 1036.93 497.75 1038.56 497.75C1040.19 497.75 1040.62 499.635 1040.62 500.75C1040.62 501.865 1040.19 503.75 1038.56 503.75ZM1036.59 488.114C1036.55 488.028 1036.52 487.934 1036.5 487.836C1036.49 487.738 1036.5 487.639 1036.53 487.544C1036.56 487.449 1036.6 487.361 1036.66 487.284C1036.72 487.207 1036.8 487.142 1036.89 487.094L1039.14 485.845C1039.25 485.781 1039.38 485.749 1039.51 485.75C1039.64 485.752 1039.77 485.787 1039.88 485.854C1039.99 485.92 1040.09 486.014 1040.15 486.128C1040.22 486.241 1040.25 486.369 1040.25 486.5V494C1040.25 494.199 1040.17 494.39 1040.03 494.53C1039.89 494.671 1039.7 494.75 1039.5 494.75C1039.3 494.75 1039.11 494.671 1038.97 494.53C1038.83 494.39 1038.75 494.199 1038.75 494V487.775L1037.61 488.406C1037.53 488.454 1037.43 488.484 1037.34 488.495C1037.24 488.507 1037.14 488.499 1037.04 488.471C1036.95 488.444 1036.86 488.399 1036.78 488.338C1036.71 488.276 1036.64 488.201 1036.59 488.114ZM1032.75 497V504.5C1032.75 504.699 1032.67 504.89 1032.53 505.03C1032.39 505.171 1032.2 505.25 1032 505.25C1031.8 505.25 1031.61 505.171 1031.47 505.03C1031.33 504.89 1031.25 504.699 1031.25 504.5V498.275L1030.11 498.906C1029.94 499.002 1029.73 499.026 1029.54 498.971C1029.35 498.916 1029.19 498.787 1029.09 498.613C1029 498.439 1028.97 498.234 1029.03 498.043C1029.08 497.852 1029.21 497.69 1029.39 497.593L1031.64 496.344C1031.75 496.28 1031.88 496.248 1032.01 496.25C1032.14 496.251 1032.27 496.287 1032.38 496.353C1032.49 496.42 1032.59 496.514 1032.65 496.628C1032.72 496.741 1032.75 496.869 1032.75 497Z" fill="#242424" fillOpacity="0.2"/>
<path d="M672.248 670.063L666.126 675.5L672.245 680.938C672.319 681.003 672.379 681.082 672.422 681.171C672.465 681.26 672.491 681.356 672.497 681.454C672.503 681.553 672.489 681.651 672.457 681.745C672.425 681.838 672.375 681.924 672.309 681.998C672.244 682.072 672.165 682.132 672.076 682.175C671.987 682.218 671.891 682.244 671.793 682.25C671.694 682.256 671.595 682.242 671.502 682.21C671.409 682.178 671.323 682.128 671.249 682.063L664.499 676.063C664.419 675.992 664.355 675.906 664.312 675.809C664.268 675.712 664.245 675.606 664.245 675.5C664.245 675.394 664.268 675.288 664.312 675.191C664.355 675.094 664.419 675.008 664.499 674.938L671.249 668.938C671.323 668.872 671.409 668.821 671.502 668.789C671.596 668.757 671.695 668.743 671.793 668.749C671.892 668.755 671.988 668.78 672.077 668.823C672.166 668.866 672.246 668.926 672.311 669C672.377 669.074 672.427 669.16 672.46 669.254C672.492 669.347 672.506 669.446 672.5 669.544C672.494 669.643 672.469 669.74 672.426 669.829C672.383 669.917 672.322 669.997 672.248 670.063ZM686.498 674.938L679.748 668.938C679.599 668.806 679.404 668.738 679.205 668.75C679.006 668.762 678.82 668.853 678.688 669.002C678.556 669.151 678.489 669.347 678.501 669.546C678.513 669.745 678.604 669.931 678.753 670.063L684.876 675.5L678.757 680.938C678.683 681.003 678.622 681.082 678.579 681.171C678.536 681.26 678.511 681.356 678.505 681.454C678.499 681.553 678.512 681.651 678.544 681.745C678.576 681.838 678.626 681.924 678.692 681.998C678.757 682.072 678.837 682.132 678.925 682.175C679.014 682.218 679.11 682.244 679.209 682.25C679.307 682.256 679.406 682.242 679.499 682.21C679.592 682.178 679.678 682.128 679.752 682.063L686.502 676.063C686.582 675.992 686.646 675.906 686.69 675.809C686.733 675.712 686.756 675.606 686.756 675.5C686.756 675.394 686.733 675.288 686.69 675.191C686.646 675.094 686.582 675.008 686.502 674.938H686.498Z" fill="#242424" fillOpacity="0.2"/>
<path d="M233.225 586.538C232.668 584.373 231.33 582.489 229.468 581.25H235C235.199 581.25 235.389 581.171 235.53 581.03C235.671 580.89 235.75 580.699 235.75 580.5C235.75 580.301 235.671 580.11 235.53 579.97C235.389 579.829 235.199 579.75 235 579.75H227.406C227.241 579.105 226.865 578.533 226.339 578.124C225.813 577.716 225.166 577.494 224.5 577.494C223.834 577.494 223.186 577.716 222.66 578.124C222.134 578.533 221.759 579.105 221.593 579.75H214C213.801 579.75 213.61 579.829 213.469 579.97C213.329 580.11 213.25 580.301 213.25 580.5C213.25 580.699 213.329 580.89 213.469 581.03C213.61 581.171 213.801 581.25 214 581.25H219.531C217.669 582.489 216.331 584.373 215.774 586.538C215.054 586.653 214.401 587.027 213.936 587.588C213.471 588.15 213.227 588.862 213.248 589.591C213.27 590.32 213.557 591.016 214.055 591.549C214.553 592.082 215.227 592.415 215.953 592.487C216.679 592.558 217.406 592.363 217.998 591.937C218.59 591.511 219.007 590.885 219.171 590.174C219.334 589.464 219.233 588.718 218.887 588.076C218.541 587.434 217.972 586.941 217.288 586.688C217.61 585.577 218.183 584.556 218.962 583.701C219.741 582.847 220.705 582.183 221.781 581.76C222.022 582.279 222.406 582.718 222.888 583.026C223.37 583.334 223.93 583.498 224.502 583.498C225.075 583.498 225.635 583.334 226.117 583.026C226.599 582.718 226.983 582.279 227.224 581.76C228.299 582.184 229.262 582.848 230.04 583.702C230.818 584.557 231.39 585.578 231.711 586.688C231.027 586.94 230.458 587.433 230.111 588.074C229.763 588.715 229.662 589.461 229.824 590.172C229.987 590.883 230.403 591.51 230.995 591.936C231.587 592.363 232.313 592.559 233.039 592.488C233.765 592.418 234.44 592.085 234.939 591.553C235.437 591.021 235.724 590.325 235.747 589.596C235.77 588.867 235.527 588.155 235.062 587.593C234.598 587.03 233.945 586.656 233.225 586.54V586.538ZM217.75 589.5C217.75 589.797 217.662 590.087 217.497 590.333C217.332 590.58 217.098 590.772 216.824 590.886C216.55 590.999 216.248 591.029 215.957 590.971C215.666 590.913 215.399 590.77 215.189 590.561C214.979 590.351 214.836 590.084 214.779 589.793C214.721 589.502 214.75 589.2 214.864 588.926C214.977 588.652 215.17 588.418 215.416 588.253C215.663 588.088 215.953 588 216.25 588C216.648 588 217.029 588.158 217.31 588.439C217.592 588.721 217.75 589.102 217.75 589.5ZM224.5 582C224.203 582 223.913 581.912 223.666 581.747C223.42 581.582 223.227 581.348 223.114 581.074C223 580.8 222.971 580.498 223.029 580.207C223.086 579.916 223.229 579.649 223.439 579.439C223.649 579.23 223.916 579.087 224.207 579.029C224.498 578.971 224.8 579.001 225.074 579.114C225.348 579.228 225.582 579.42 225.747 579.667C225.912 579.913 226 580.203 226 580.5C226 580.898 225.842 581.279 225.56 581.561C225.279 581.842 224.898 582 224.5 582ZM232.75 591C232.453 591 232.163 590.912 231.916 590.747C231.67 590.582 231.477 590.348 231.364 590.074C231.25 589.8 231.221 589.498 231.279 589.207C231.336 588.916 231.479 588.649 231.689 588.439C231.899 588.23 232.166 588.087 232.457 588.029C232.748 587.971 233.05 588.001 233.324 588.114C233.598 588.228 233.832 588.42 233.997 588.667C234.162 588.913 234.25 589.203 234.25 589.5C234.25 589.898 234.092 590.279 233.81 590.561C233.529 590.842 233.148 591 232.75 591Z" fill="#242424" fillOpacity="0.2"/>
<path d="M139.749 495.5C139.754 498.53 139.164 501.532 138.011 504.335C137.955 504.473 137.859 504.592 137.736 504.675C137.612 504.759 137.466 504.803 137.317 504.804C137.221 504.803 137.125 504.784 137.036 504.748C136.945 504.71 136.862 504.655 136.792 504.586C136.722 504.516 136.666 504.433 136.629 504.342C136.591 504.251 136.571 504.154 136.571 504.055C136.57 503.957 136.59 503.859 136.627 503.768C137.705 501.145 138.256 498.336 138.249 495.5C138.249 495.301 138.328 495.11 138.469 494.97C138.609 494.829 138.8 494.75 138.999 494.75C139.198 494.75 139.389 494.829 139.529 494.97C139.67 495.11 139.749 495.301 139.749 495.5ZM134.499 491.75C135.027 491.75 135.548 491.862 136.03 492.077C136.511 492.292 136.942 492.607 137.294 493C137.359 493.075 137.438 493.136 137.528 493.18C137.617 493.225 137.714 493.251 137.813 493.257C137.912 493.263 138.012 493.25 138.106 493.217C138.2 493.185 138.287 493.134 138.361 493.067C138.435 493.001 138.495 492.92 138.538 492.831C138.581 492.741 138.605 492.643 138.61 492.544C138.614 492.445 138.599 492.345 138.565 492.252C138.531 492.158 138.479 492.072 138.411 491.999C137.702 491.207 136.77 490.649 135.736 490.398C134.703 490.148 133.618 490.217 132.625 490.596C131.632 490.976 130.778 491.648 130.175 492.523C129.572 493.399 129.249 494.437 129.249 495.5C129.249 497.66 128.701 499.784 127.655 501.673C127.608 501.76 127.577 501.854 127.566 501.952C127.555 502.05 127.563 502.149 127.59 502.244C127.618 502.339 127.663 502.427 127.724 502.504C127.786 502.581 127.862 502.646 127.948 502.693C128.034 502.741 128.129 502.772 128.227 502.783C128.325 502.794 128.424 502.786 128.518 502.758C128.613 502.731 128.702 502.686 128.779 502.624C128.856 502.563 128.92 502.487 128.968 502.401C130.136 500.288 130.749 497.914 130.749 495.5C130.749 494.505 131.144 493.552 131.848 492.848C132.551 492.145 133.505 491.75 134.499 491.75ZM134.499 485.75C133.392 485.749 132.293 485.936 131.249 486.305C131.065 486.374 130.915 486.512 130.832 486.691C130.749 486.869 130.739 487.072 130.805 487.258C130.87 487.443 131.006 487.595 131.183 487.682C131.359 487.768 131.563 487.781 131.749 487.719C132.994 487.28 134.326 487.146 135.633 487.328C136.94 487.51 138.184 488.003 139.262 488.765C140.339 489.527 141.218 490.536 141.825 491.708C142.432 492.88 142.749 494.18 142.749 495.5C142.75 497.463 142.532 499.42 142.099 501.334C142.054 501.528 142.089 501.731 142.194 501.899C142.3 502.067 142.468 502.187 142.661 502.231C142.716 502.244 142.772 502.25 142.828 502.25C142.998 502.25 143.163 502.192 143.296 502.086C143.429 501.98 143.522 501.832 143.559 501.666C144.017 499.643 144.249 497.575 144.249 495.5C144.246 492.915 143.218 490.437 141.39 488.609C139.563 486.781 137.084 485.753 134.499 485.75ZM129 489.352C129.073 489.286 129.133 489.207 129.176 489.118C129.218 489.029 129.243 488.933 129.249 488.834C129.254 488.736 129.24 488.638 129.208 488.545C129.175 488.452 129.125 488.366 129.059 488.293C128.993 488.219 128.914 488.159 128.825 488.117C128.736 488.074 128.64 488.049 128.541 488.044C128.443 488.038 128.345 488.052 128.252 488.085C128.159 488.117 128.073 488.168 127.999 488.233C126.978 489.148 126.16 490.268 125.6 491.52C125.04 492.773 124.75 494.128 124.749 495.5C124.751 496.686 124.495 497.859 123.999 498.937C123.958 499.026 123.935 499.123 123.931 499.222C123.927 499.32 123.943 499.418 123.977 499.511C124.046 499.697 124.187 499.849 124.368 499.932C124.548 500.015 124.755 500.022 124.941 499.953C125.128 499.884 125.279 499.744 125.362 499.563C125.949 498.289 126.252 496.903 126.249 495.5C126.25 494.34 126.496 493.192 126.97 492.133C127.443 491.074 128.135 490.126 129 489.352ZM133.179 502.319C133.09 502.278 132.993 502.255 132.894 502.251C132.796 502.248 132.698 502.263 132.605 502.298C132.513 502.332 132.428 502.384 132.356 502.451C132.284 502.518 132.226 502.598 132.184 502.688C132.004 503.082 131.809 503.474 131.595 503.854C131.547 503.94 131.516 504.035 131.505 504.133C131.494 504.231 131.502 504.33 131.529 504.425C131.556 504.52 131.602 504.609 131.663 504.686C131.725 504.763 131.801 504.827 131.887 504.875C131.998 504.937 132.123 504.969 132.25 504.969C132.384 504.969 132.515 504.933 132.631 504.865C132.746 504.797 132.841 504.7 132.906 504.583C133.135 504.169 133.351 503.739 133.548 503.315C133.589 503.225 133.612 503.129 133.616 503.03C133.62 502.932 133.604 502.833 133.57 502.741C133.536 502.648 133.483 502.563 133.416 502.491C133.349 502.419 133.269 502.36 133.179 502.319ZM134.499 494.75C134.3 494.75 134.109 494.829 133.969 494.97C133.828 495.11 133.749 495.301 133.749 495.5C133.75 496.955 133.567 498.403 133.206 499.813C133.157 500.005 133.186 500.209 133.287 500.381C133.388 500.552 133.553 500.676 133.745 500.726C133.807 500.741 133.87 500.749 133.933 500.749C134.099 500.749 134.261 500.694 134.392 500.592C134.523 500.49 134.617 500.347 134.659 500.187C135.052 498.655 135.25 497.08 135.249 495.499C135.249 495.3 135.17 495.11 135.029 494.969C134.889 494.829 134.698 494.75 134.499 494.75Z" fill="#242424" fillOpacity="0.2"/>
<path d="M56.0307 669.969L53.0307 666.969C52.89 666.829 52.6991 666.75 52.5001 666.75C52.3011 666.75 52.1102 666.829 51.9695 666.969C51.8287 667.11 51.7497 667.301 51.7497 667.5C51.7497 667.699 51.8287 667.89 51.9695 668.031L53.6898 669.75H52.5001C47.8754 669.75 46.7767 672.386 45.8082 674.711C44.9288 676.822 44.222 678.517 41.1695 678.728C40.9779 677.818 40.4555 677.012 39.7036 676.466C38.9517 675.92 38.0238 675.673 37.0998 675.772C36.1758 675.871 35.3215 676.31 34.7026 677.003C34.0837 677.696 33.7443 678.595 33.7501 679.524C33.7559 680.453 34.1065 681.347 34.7341 682.033C35.3616 682.718 36.2212 683.146 37.1464 683.234C38.0716 683.321 38.9963 683.062 39.7414 682.507C40.4864 681.951 40.9987 681.139 41.1788 680.228C45.2345 679.979 46.2732 677.495 47.192 675.288C48.1323 673.031 48.8748 671.25 52.5001 671.25H53.6898L51.9695 672.969C51.8287 673.11 51.7497 673.301 51.7497 673.5C51.7497 673.699 51.8287 673.89 51.9695 674.031C52.1102 674.171 52.3011 674.25 52.5001 674.25C52.6991 674.25 52.89 674.171 53.0307 674.031L56.0307 671.031C56.1005 670.961 56.1558 670.878 56.1935 670.787C56.2313 670.696 56.2507 670.599 56.2507 670.5C56.2507 670.401 56.2313 670.304 56.1935 670.213C56.1558 670.122 56.1005 670.039 56.0307 669.969ZM37.5001 681.75C37.0551 681.75 36.6201 681.618 36.2501 681.371C35.8801 681.124 35.5917 680.772 35.4214 680.361C35.2511 679.95 35.2065 679.498 35.2933 679.061C35.3801 678.625 35.5944 678.224 35.9091 677.909C36.2238 677.594 36.6247 677.38 37.0611 677.293C37.4976 677.206 37.95 677.251 38.3611 677.421C38.7723 677.592 39.1237 677.88 39.3709 678.25C39.6181 678.62 39.7501 679.055 39.7501 679.5C39.7501 680.097 39.513 680.669 39.0911 681.091C38.6691 681.513 38.0968 681.75 37.5001 681.75Z" fill="#242424" fillOpacity="0.2"/>
<path d="M56.25 45.25H50.1956C50.0145 44.0013 49.3897 42.8595 48.4355 42.0338C47.4814 41.2081 46.2618 40.7537 45 40.7537C43.7382 40.7537 42.5186 41.2081 41.5645 42.0338C40.6103 42.8595 39.9855 44.0013 39.8044 45.25H33.75C33.5511 45.25 33.3603 45.329 33.2197 45.4697C33.079 45.6103 33 45.8011 33 46C33 46.1989 33.079 46.3897 33.2197 46.5303C33.3603 46.671 33.5511 46.75 33.75 46.75H39.8044C39.9855 47.9988 40.6103 49.1405 41.5645 49.9662C42.5186 50.7919 43.7382 51.2464 45 51.2464C46.2618 51.2464 47.4814 50.7919 48.4355 49.9662C49.3897 49.1405 50.0145 47.9988 50.1956 46.75H56.25C56.4489 46.75 56.6397 46.671 56.7803 46.5303C56.921 46.3897 57 46.1989 57 46C57 45.8011 56.921 45.6103 56.7803 45.4697C56.6397 45.329 56.4489 45.25 56.25 45.25ZM45 49.75C44.2583 49.75 43.5333 49.5301 42.9166 49.118C42.2999 48.706 41.8193 48.1203 41.5355 47.4351C41.2516 46.7499 41.1774 45.9959 41.3221 45.2684C41.4667 44.541 41.8239 43.8728 42.3483 43.3484C42.8728 42.8239 43.541 42.4668 44.2684 42.3221C44.9958 42.1774 45.7498 42.2516 46.4351 42.5355C47.1203 42.8193 47.706 43.2999 48.118 43.9166C48.5301 44.5333 48.75 45.2583 48.75 46C48.75 46.9946 48.3549 47.9484 47.6517 48.6517C46.9484 49.3549 45.9946 49.75 45 49.75Z" fill="#242424" fillOpacity="0.2"/>
<path d="M594.75 40C594.75 39.4389 594.592 38.8892 594.295 38.4133C593.998 37.9373 593.574 37.5542 593.07 37.3074C592.566 37.0606 592.003 36.96 591.445 37.0171C590.887 37.0741 590.356 37.2866 589.912 37.6303C589.469 37.9739 589.131 38.4351 588.936 38.9613C588.742 39.4875 588.699 40.0578 588.812 40.6072C588.925 41.1567 589.19 41.6634 589.577 42.0698C589.964 42.4762 590.457 42.766 591 42.9062V44.5C591 44.6989 590.921 44.8897 590.78 45.0303C590.64 45.171 590.449 45.25 590.25 45.25H582C581.744 45.2499 581.491 45.2937 581.25 45.3794V42.9062C581.957 42.7237 582.573 42.2896 582.983 41.6852C583.393 41.0809 583.568 40.3478 583.476 39.6235C583.384 38.8991 583.031 38.2332 582.483 37.7505C581.935 37.2678 581.23 37.0015 580.5 37.0015C579.77 37.0015 579.065 37.2678 578.517 37.7505C577.969 38.2332 577.616 38.8991 577.524 39.6235C577.432 40.3478 577.607 41.0809 578.017 41.6852C578.427 42.2896 579.043 42.7237 579.75 42.9062V49.0937C579.043 49.2763 578.427 49.7104 578.017 50.3147C577.607 50.9191 577.432 51.6521 577.524 52.3765C577.616 53.1008 577.969 53.7668 578.517 54.2495C579.065 54.7322 579.77 54.9985 580.5 54.9985C581.23 54.9985 581.935 54.7322 582.483 54.2495C583.031 53.7668 583.384 53.1008 583.476 52.3765C583.568 51.6521 583.393 50.9191 582.983 50.3147C582.573 49.7104 581.957 49.2763 581.25 49.0937V47.5C581.25 47.3011 581.329 47.1103 581.47 46.9697C581.61 46.829 581.801 46.75 582 46.75H590.25C590.847 46.75 591.419 46.5129 591.841 46.091C592.263 45.669 592.5 45.0967 592.5 44.5V42.9062C593.144 42.739 593.714 42.363 594.121 41.8371C594.528 41.3112 594.749 40.6651 594.75 40ZM579 40C579 39.7033 579.088 39.4133 579.253 39.1666C579.418 38.92 579.652 38.7277 579.926 38.6142C580.2 38.5006 580.502 38.4709 580.793 38.5288C581.084 38.5867 581.351 38.7295 581.561 38.9393C581.77 39.1491 581.913 39.4164 581.971 39.7073C582.029 39.9983 581.999 40.2999 581.886 40.574C581.772 40.8481 581.58 41.0824 581.333 41.2472C581.087 41.412 580.797 41.5 580.5 41.5C580.102 41.5 579.721 41.3419 579.439 41.0606C579.158 40.7793 579 40.3978 579 40ZM582 52C582 52.2967 581.912 52.5867 581.747 52.8333C581.582 53.08 581.348 53.2723 581.074 53.3858C580.8 53.4993 580.498 53.529 580.207 53.4712C579.916 53.4133 579.649 53.2704 579.439 53.0606C579.23 52.8509 579.087 52.5836 579.029 52.2926C578.971 52.0016 579.001 51.7 579.114 51.426C579.228 51.1519 579.42 50.9176 579.667 50.7528C579.913 50.588 580.203 50.5 580.5 50.5C580.898 50.5 581.279 50.658 581.561 50.9393C581.842 51.2206 582 51.6022 582 52ZM591.75 41.5C591.453 41.5 591.163 41.412 590.917 41.2472C590.67 41.0824 590.478 40.8481 590.364 40.574C590.251 40.2999 590.221 39.9983 590.279 39.7073C590.337 39.4164 590.48 39.1491 590.689 38.9393C590.899 38.7295 591.166 38.5867 591.457 38.5288C591.748 38.4709 592.05 38.5006 592.324 38.6142C592.598 38.7277 592.832 38.92 592.997 39.1666C593.162 39.4133 593.25 39.7033 593.25 40C593.25 40.3978 593.092 40.7793 592.811 41.0606C592.529 41.3419 592.148 41.5 591.75 41.5Z" fill="#242424" fillOpacity="0.2"/>
<path d="M1044 132.25H1039.44L1040.24 127.884C1040.27 127.69 1040.22 127.491 1040.11 127.33C1040 127.17 1039.83 127.06 1039.63 127.025C1039.44 126.989 1039.24 127.032 1039.08 127.142C1038.91 127.253 1038.8 127.423 1038.76 127.616L1037.92 132.25H1033.44L1034.24 127.884C1034.27 127.69 1034.22 127.491 1034.11 127.33C1034 127.17 1033.83 127.06 1033.63 127.025C1033.44 126.989 1033.24 127.032 1033.08 127.142C1032.91 127.253 1032.8 127.423 1032.76 127.616L1031.92 132.25H1027.5C1027.3 132.25 1027.11 132.329 1026.97 132.47C1026.83 132.61 1026.75 132.801 1026.75 133C1026.75 133.199 1026.83 133.39 1026.97 133.53C1027.11 133.671 1027.3 133.75 1027.5 133.75H1031.65L1030.83 138.25H1026C1025.8 138.25 1025.61 138.329 1025.47 138.47C1025.33 138.61 1025.25 138.801 1025.25 139C1025.25 139.199 1025.33 139.39 1025.47 139.53C1025.61 139.671 1025.8 139.75 1026 139.75H1030.56L1029.76 144.116C1029.73 144.312 1029.77 144.513 1029.88 144.677C1030 144.84 1030.17 144.952 1030.37 144.988C1030.41 144.996 1030.46 145 1030.5 145C1030.68 145 1030.85 144.938 1030.98 144.825C1031.11 144.713 1031.21 144.557 1031.24 144.384L1032.08 139.75H1036.56L1035.76 144.116C1035.73 144.312 1035.77 144.513 1035.88 144.677C1036 144.84 1036.17 144.952 1036.37 144.988C1036.41 144.996 1036.46 145 1036.5 145C1036.68 145 1036.85 144.938 1036.98 144.825C1037.11 144.713 1037.21 144.557 1037.24 144.384L1038.08 139.75H1042.5C1042.7 139.75 1042.89 139.671 1043.03 139.53C1043.17 139.39 1043.25 139.199 1043.25 139C1043.25 138.801 1043.17 138.61 1043.03 138.47C1042.89 138.329 1042.7 138.25 1042.5 138.25H1038.35L1039.17 133.75H1044C1044.2 133.75 1044.39 133.671 1044.53 133.53C1044.67 133.39 1044.75 133.199 1044.75 133C1044.75 132.801 1044.67 132.61 1044.53 132.47C1044.39 132.329 1044.2 132.25 1044 132.25ZM1036.83 138.25H1032.35L1033.17 133.75H1037.65L1036.83 138.25Z" fill="#242424" fillOpacity="0.2"/>
<defs>
<linearGradient id="paint0_linear_2007_4795" x1="540.5" y1="1" x2="540.5" y2="720" gradientUnits="userSpaceOnUse">
<stop stop-color="white" stop-opacity="0.7"/>
<stop offset="1" stop-color="white" stop-opacity="0.5"/>
</linearGradient>
<linearGradient id="paint1_linear_2007_4795" x1="540.5" y1="1" x2="540.5" y2="720" gradientUnits="userSpaceOnUse">
<stop stop-color="white" stop-opacity="0.7"/>
<stop offset="1" stop-color="white" stop-opacity="0.5"/>
</linearGradient>
<linearGradient id="paint2_linear_2007_4795" x1="540.5" y1="1" x2="540.5" y2="720" gradientUnits="userSpaceOnUse">
<stop stop-color="white" stop-opacity="0.7"/>
<stop offset="1" stop-color="white" stop-opacity="0.5"/>
</linearGradient>
<linearGradient id="paint3_linear_2007_4795" x1="540.5" y1="1" x2="540.5" y2="720" gradientUnits="userSpaceOnUse">
<stop stop-color="white" stop-opacity="0.7"/>
<stop offset="1" stop-color="white" stop-opacity="0.5"/>
</linearGradient>
<linearGradient id="paint4_linear_2007_4795" x1="540.5" y1="1" x2="540.5" y2="720" gradientUnits="userSpaceOnUse">
<stop stop-color="white" stop-opacity="0.7"/>
<stop offset="1" stop-color="white" stop-opacity="0.5"/>
</linearGradient>
<linearGradient id="paint5_linear_2007_4795" x1="540.5" y1="1" x2="540.5" y2="720" gradientUnits="userSpaceOnUse">
<stop stop-color="white" stop-opacity="0.7"/>
<stop offset="1" stop-color="white" stop-opacity="0.5"/>
</linearGradient>
<linearGradient id="paint6_linear_2007_4795" x1="540.5" y1="1" x2="540.5" y2="720" gradientUnits="userSpaceOnUse">
<stop stop-color="white" stop-opacity="0.7"/>
<stop offset="1" stop-color="white" stop-opacity="0.5"/>
</linearGradient>
<linearGradient id="paint7_linear_2007_4795" x1="540.5" y1="1" x2="540.5" y2="720" gradientUnits="userSpaceOnUse">
<stop stop-color="white" stop-opacity="0.7"/>
<stop offset="1" stop-color="white" stop-opacity="0.5"/>
</linearGradient>
<linearGradient id="paint8_linear_2007_4795" x1="540.5" y1="1" x2="540.5" y2="720" gradientUnits="userSpaceOnUse">
<stop stop-color="white" stop-opacity="0.7"/>
<stop offset="1" stop-color="white" stop-opacity="0.5"/>
</linearGradient>
<linearGradient id="paint9_linear_2007_4795" x1="540.5" y1="1" x2="540.5" y2="720" gradientUnits="userSpaceOnUse">
<stop stop-color="white" stop-opacity="0.7"/>
<stop offset="1" stop-color="white" stop-opacity="0.5"/>
</linearGradient>
</defs>
</svg>
