<svg width="722" height="388" viewBox="0 0 722 388" fill="none" xmlns="http://www.w3.org/2000/svg">
<path d="M720.999 328.671V270.658H660.277V328.671H720.999Z" fill="url(#paint0_linear_2004_4792)"/>
<path d="M600.888 270.658V328.671H660.277V270.658H600.888Z" fill="url(#paint1_linear_2004_4792)"/>
<path d="M540.833 328.671V387.335H600.888V328.671H540.833Z" fill="url(#paint2_linear_2004_4792)"/>
<path d="M120.444 270.658H60.3883V328.671H120.444V270.658Z" fill="url(#paint3_linear_2004_4792)"/>
<path d="M180.499 387.335V328.671H120.444V387.335H180.499Z" fill="url(#paint4_linear_2004_4792)"/>
<path d="M420.722 59.6647V1H360.666V59.6647H420.722Z" fill="url(#paint5_linear_2004_4792)"/>
<path d="M720.999 118.329V59.6647H660.277V118.329H720.999Z" fill="url(#paint6_linear_2004_4792)"/>
<path d="M240.555 270.658V328.671H300.611V270.658H240.555Z" fill="url(#paint7_linear_2004_4792)"/>
<path d="M300.611 328.671V387.335H361V328.671H300.611Z" fill="url(#paint8_linear_2004_4792)"/>
<path d="M60.3883 1H1V59.6647M60.3883 1H120.444M60.3883 1V59.6647M60.3883 270.658H1M60.3883 270.658H120.444M60.3883 270.658V176.994M60.3883 270.658V328.671M1 270.658V328.671M1 270.658V176.994M720.999 270.658V328.671M720.999 270.658H660.277M720.999 270.658V176.994M660.277 1H720.999V59.6647M660.277 1H600.888M660.277 1V59.6647M720.999 59.6647V118.329M720.999 59.6647H660.277M1 59.6647V118.329M1 59.6647H60.3883M120.444 270.658H180.499M120.444 270.658V328.671M180.499 270.658H240.555M180.499 270.658V328.671M240.555 270.658H300.611M240.555 270.658V328.671M300.611 270.658H361M300.611 270.658V328.671M361 270.658H420.722M361 270.658V328.671M420.722 270.658H480.777M420.722 270.658V387.335M480.777 270.658H540.833M480.777 270.658V387.335M540.833 270.658H600.888M540.833 270.658V328.671M600.888 270.658V328.671M600.888 270.658H660.277M300.611 387.335V328.671M300.611 387.335H361M300.611 387.335H240.555M300.611 328.671H361M300.611 328.671H240.555M1 328.671V387.335H60.3883M1 328.671H60.3883M720.999 328.671V387.335H600.888M720.999 328.671H660.277M660.277 270.658V176.994M660.277 270.658V328.671M660.277 176.994H720.999M660.277 176.994V118.329M720.999 176.994V118.329M660.277 118.329H720.999M660.277 118.329V59.6647M600.888 59.6647V1M600.888 59.6647H540.833M600.888 59.6647H660.277M600.888 1H540.833M540.833 59.6647V1M540.833 59.6647H480.777M540.833 1H480.777M480.777 59.6647V1M480.777 59.6647H420.722M480.777 1H420.722M420.722 59.6647V1M420.722 59.6647H360.666M420.722 1H360.666M360.666 59.6647V1M360.666 59.6647H300.611M360.666 1H300.611M300.611 59.6647V1M300.611 59.6647H240.555M300.611 1H240.555M240.555 59.6647V1M240.555 59.6647H180.499M240.555 1H180.499M180.499 59.6647V1M180.499 59.6647H120.444M180.499 1H120.444M120.444 59.6647V1M120.444 59.6647H60.3883M1 118.329H60.3883M1 118.329V176.994M60.3883 118.329V176.994M60.3883 118.329V59.6647M1 176.994H60.3883M60.3883 328.671H120.444M60.3883 328.671V387.335M120.444 328.671H180.499M120.444 328.671V387.335M180.499 387.335V328.671M180.499 387.335H120.444M180.499 387.335H240.555M180.499 328.671H240.555M120.444 387.335H60.3883M540.833 328.671V387.335M540.833 328.671H600.888M540.833 328.671H361M540.833 387.335H600.888M540.833 387.335H480.777M600.888 387.335V328.671M600.888 328.671H660.277M420.722 387.335H480.777M420.722 387.335H361M660.277 224.993H721M1 225.993H60.3883M361 387.335V328.671M240.555 328.671V387.335" stroke="#E2E2E2" strokeWidth="0.651852"/>
<path d="M337.817 358.526C337.445 357.082 336.553 355.826 335.312 355H339C339.132 355 339.26 354.947 339.353 354.854C339.447 354.76 339.5 354.633 339.5 354.5C339.5 354.367 339.447 354.24 339.353 354.146C339.26 354.053 339.132 354 339 354H333.937C333.827 353.57 333.577 353.188 333.226 352.916C332.875 352.644 332.444 352.496 332 352.496C331.556 352.496 331.124 352.644 330.773 352.916C330.423 353.188 330.172 353.57 330.062 354H325C324.867 354 324.74 354.053 324.646 354.146C324.552 354.24 324.5 354.367 324.5 354.5C324.5 354.633 324.552 354.76 324.646 354.854C324.74 354.947 324.867 355 325 355H328.687C327.446 355.826 326.554 357.082 326.183 358.526C325.703 358.602 325.267 358.851 324.957 359.226C324.647 359.6 324.484 360.075 324.499 360.561C324.514 361.047 324.705 361.511 325.037 361.866C325.368 362.221 325.818 362.443 326.302 362.491C326.786 362.539 327.271 362.408 327.665 362.125C328.06 361.841 328.338 361.423 328.447 360.949C328.556 360.476 328.489 359.978 328.258 359.551C328.027 359.123 327.648 358.794 327.192 358.625C327.407 357.885 327.789 357.204 328.308 356.634C328.827 356.065 329.47 355.622 330.187 355.34C330.348 355.686 330.604 355.979 330.925 356.184C331.247 356.389 331.62 356.499 332.002 356.499C332.383 356.499 332.757 356.389 333.078 356.184C333.399 355.979 333.656 355.686 333.816 355.34C334.533 355.622 335.175 356.065 335.693 356.635C336.212 357.204 336.593 357.885 336.807 358.625C336.351 358.793 335.972 359.122 335.74 359.549C335.509 359.977 335.441 360.474 335.55 360.948C335.658 361.422 335.936 361.84 336.33 362.124C336.724 362.408 337.209 362.539 337.693 362.492C338.177 362.445 338.627 362.223 338.959 361.869C339.291 361.514 339.483 361.05 339.498 360.564C339.513 360.078 339.351 359.603 339.042 359.228C338.732 358.853 338.297 358.604 337.817 358.527V358.526ZM327.5 360.5C327.5 360.698 327.441 360.891 327.331 361.056C327.221 361.22 327.065 361.348 326.882 361.424C326.7 361.5 326.499 361.519 326.305 361.481C326.111 361.442 325.933 361.347 325.793 361.207C325.653 361.067 325.558 360.889 325.519 360.695C325.48 360.501 325.5 360.3 325.576 360.117C325.652 359.935 325.78 359.778 325.944 359.669C326.109 359.559 326.302 359.5 326.5 359.5C326.765 359.5 327.019 359.605 327.207 359.793C327.394 359.98 327.5 360.235 327.5 360.5ZM332 355.5C331.802 355.5 331.609 355.441 331.444 355.331C331.28 355.222 331.152 355.065 331.076 354.883C331 354.7 330.98 354.499 331.019 354.305C331.058 354.111 331.153 353.933 331.293 353.793C331.433 353.653 331.611 353.558 331.805 353.519C331.999 353.481 332.2 353.5 332.382 353.576C332.565 353.652 332.721 353.78 332.831 353.944C332.941 354.109 333 354.302 333 354.5C333 354.765 332.894 355.02 332.707 355.207C332.519 355.395 332.265 355.5 332 355.5ZM337.5 361.5C337.302 361.5 337.109 361.441 336.944 361.331C336.78 361.222 336.652 361.065 336.576 360.883C336.5 360.7 336.48 360.499 336.519 360.305C336.558 360.111 336.653 359.933 336.793 359.793C336.933 359.653 337.111 359.558 337.305 359.519C337.499 359.481 337.7 359.5 337.882 359.576C338.065 359.652 338.221 359.78 338.331 359.944C338.441 360.109 338.5 360.302 338.5 360.5C338.5 360.765 338.394 361.02 338.207 361.207C338.019 361.395 337.765 361.5 337.5 361.5Z" fill="#242424" fillOpacity="0.2"/>
<path d="M276.001 299.5C276.004 301.52 275.61 303.522 274.842 305.39C274.805 305.482 274.741 305.561 274.658 305.617C274.576 305.672 274.479 305.702 274.379 305.703C274.315 305.702 274.252 305.689 274.192 305.665C274.131 305.64 274.076 305.603 274.029 305.557C273.983 305.511 273.946 305.456 273.92 305.395C273.895 305.334 273.882 305.269 273.882 305.203C273.882 305.138 273.894 305.073 273.919 305.012C274.638 303.263 275.005 301.39 275.001 299.5C275.001 299.367 275.053 299.24 275.147 299.146C275.241 299.053 275.368 299 275.501 299C275.633 299 275.761 299.053 275.854 299.146C275.948 299.24 276.001 299.367 276.001 299.5ZM272.501 297C272.852 297 273.2 297.075 273.521 297.218C273.842 297.362 274.129 297.571 274.364 297.833C274.407 297.883 274.46 297.924 274.52 297.954C274.579 297.983 274.644 298 274.71 298.005C274.776 298.009 274.843 298 274.905 297.978C274.968 297.956 275.026 297.922 275.075 297.878C275.125 297.834 275.165 297.78 275.193 297.72C275.222 297.66 275.238 297.596 275.241 297.529C275.244 297.463 275.234 297.397 275.211 297.334C275.189 297.272 275.154 297.215 275.109 297.166C274.636 296.638 274.014 296.266 273.326 296.099C272.637 295.932 271.914 295.978 271.252 296.231C270.589 296.484 270.02 296.932 269.618 297.515C269.216 298.099 269.001 298.791 269.001 299.5C269.001 300.94 268.635 302.356 267.938 303.616C267.906 303.673 267.886 303.736 267.879 303.802C267.871 303.867 267.877 303.933 267.895 303.996C267.913 304.059 267.943 304.118 267.984 304.17C268.025 304.221 268.076 304.264 268.133 304.296C268.191 304.327 268.254 304.348 268.319 304.355C268.384 304.363 268.45 304.357 268.514 304.339C268.577 304.321 268.636 304.29 268.687 304.25C268.739 304.209 268.781 304.158 268.813 304.101C269.592 302.692 270.001 301.109 270.001 299.5C270.001 298.837 270.264 298.201 270.733 297.732C271.202 297.263 271.838 297 272.501 297ZM272.501 293C271.763 292.999 271.03 293.124 270.334 293.37C270.211 293.416 270.111 293.508 270.056 293.627C270 293.746 269.994 293.882 270.038 294.005C270.081 294.129 270.172 294.23 270.29 294.288C270.408 294.345 270.543 294.354 270.668 294.313C271.497 294.02 272.385 293.931 273.257 294.052C274.128 294.173 274.957 294.502 275.676 295.01C276.394 295.518 276.98 296.191 277.384 296.972C277.789 297.753 278 298.62 278.001 299.5C278.001 300.809 277.856 302.113 277.567 303.389C277.538 303.518 277.561 303.654 277.631 303.766C277.701 303.878 277.813 303.958 277.942 303.988C277.978 303.996 278.016 304 278.053 304C278.167 304 278.277 303.961 278.365 303.891C278.454 303.82 278.516 303.721 278.541 303.611C278.846 302.262 279 300.883 279.001 299.5C278.999 297.777 278.314 296.124 277.095 294.906C275.876 293.687 274.224 293.002 272.501 293ZM268.834 295.401C268.883 295.357 268.923 295.304 268.952 295.245C268.98 295.186 268.997 295.122 269 295.056C269.004 294.991 268.995 294.925 268.973 294.863C268.951 294.801 268.918 294.744 268.874 294.695C268.83 294.646 268.777 294.606 268.718 294.578C268.659 294.549 268.594 294.533 268.529 294.529C268.463 294.525 268.398 294.535 268.336 294.556C268.274 294.578 268.217 294.612 268.168 294.656C267.486 295.266 266.941 296.012 266.568 296.847C266.195 297.682 266.001 298.586 266.001 299.5C266.002 300.291 265.832 301.073 265.501 301.791C265.473 301.851 265.458 301.915 265.455 301.981C265.453 302.047 265.463 302.112 265.486 302.174C265.532 302.298 265.626 302.399 265.746 302.454C265.867 302.51 266.004 302.515 266.129 302.469C266.253 302.423 266.354 302.329 266.409 302.209C266.801 301.359 267.002 300.435 267.001 299.5C267.001 298.726 267.165 297.961 267.481 297.255C267.797 296.549 268.258 295.917 268.834 295.401ZM271.621 304.046C271.561 304.019 271.497 304.003 271.431 304.001C271.365 303.998 271.3 304.009 271.238 304.032C271.177 304.055 271.12 304.089 271.072 304.134C271.024 304.179 270.985 304.232 270.958 304.292C270.838 304.554 270.708 304.816 270.564 305.069C270.533 305.127 270.512 305.19 270.505 305.255C270.497 305.321 270.503 305.387 270.521 305.45C270.539 305.513 270.569 305.572 270.61 305.624C270.651 305.675 270.702 305.718 270.759 305.75C270.833 305.791 270.917 305.813 271.001 305.813C271.091 305.813 271.178 305.789 271.255 305.743C271.332 305.698 271.396 305.633 271.439 305.555C271.591 305.279 271.735 304.993 271.866 304.71C271.894 304.65 271.909 304.586 271.912 304.52C271.914 304.454 271.904 304.389 271.881 304.327C271.858 304.266 271.824 304.209 271.779 304.161C271.734 304.113 271.68 304.074 271.621 304.046ZM272.501 299C272.368 299 272.241 299.053 272.147 299.146C272.053 299.24 272.001 299.367 272.001 299.5C272.001 300.47 271.88 301.436 271.639 302.375C271.606 302.503 271.625 302.64 271.693 302.754C271.76 302.868 271.87 302.951 271.998 302.984C272.039 302.994 272.081 302.999 272.123 302.999C272.234 302.999 272.342 302.962 272.429 302.895C272.517 302.827 272.579 302.732 272.607 302.624C272.869 301.603 273.001 300.553 273.001 299.499C273.001 299.367 272.948 299.24 272.854 299.146C272.76 299.053 272.633 299 272.501 299Z" fill="#242424" fillOpacity="0.2"/>
<path d="M397.5 26C397.5 25.626 397.395 25.2595 397.197 24.9422C396.999 24.6249 396.716 24.3695 396.38 24.2049C396.044 24.0404 395.669 23.9733 395.297 24.0114C394.924 24.0494 394.57 24.1911 394.275 24.4202C393.979 24.6493 393.754 24.9567 393.624 25.3075C393.494 25.6584 393.466 26.0385 393.541 26.4048C393.617 26.7712 393.793 27.109 394.051 27.3799C394.309 27.6508 394.638 27.844 395 27.9375V29C395 29.1326 394.947 29.2598 394.854 29.3536C394.76 29.4473 394.633 29.5 394.5 29.5H389C388.83 29.5 388.661 29.5291 388.5 29.5862V27.9375C388.971 27.8158 389.382 27.5264 389.655 27.1235C389.929 26.7206 390.045 26.2319 389.984 25.749C389.923 25.2661 389.687 24.8221 389.322 24.5003C388.957 24.1785 388.487 24.001 388 24.001C387.513 24.001 387.043 24.1785 386.678 24.5003C386.313 24.8221 386.077 25.2661 386.016 25.749C385.955 26.2319 386.071 26.7206 386.345 27.1235C386.618 27.5264 387.029 27.8158 387.5 27.9375V32.0625C387.029 32.1842 386.618 32.4736 386.345 32.8765C386.071 33.2794 385.955 33.7681 386.016 34.251C386.077 34.7339 386.313 35.1779 386.678 35.4997C387.043 35.8215 387.513 35.999 388 35.999C388.487 35.999 388.957 35.8215 389.322 35.4997C389.687 35.1779 389.923 34.7339 389.984 34.251C390.045 33.7681 389.929 33.2794 389.655 32.8765C389.382 32.4736 388.971 32.1842 388.5 32.0625V31C388.5 30.8674 388.553 30.7402 388.646 30.6464C388.74 30.5527 388.867 30.5 389 30.5H394.5C394.898 30.5 395.279 30.342 395.561 30.0607C395.842 29.7794 396 29.3978 396 29V27.9375C396.429 27.826 396.809 27.5754 397.081 27.2247C397.352 26.8741 397.5 26.4434 397.5 26ZM387 26C387 25.8022 387.059 25.6089 387.169 25.4444C387.278 25.28 387.435 25.1518 387.617 25.0761C387.8 25.0004 388.001 24.9806 388.195 25.0192C388.389 25.0578 388.567 25.153 388.707 25.2929C388.847 25.4327 388.942 25.6109 388.981 25.8049C389.019 25.9989 389 26.2 388.924 26.3827C388.848 26.5654 388.72 26.7216 388.556 26.8315C388.391 26.9414 388.198 27 388 27C387.735 27 387.48 26.8946 387.293 26.7071C387.105 26.5196 387 26.2652 387 26ZM389 34C389 34.1978 388.941 34.3911 388.831 34.5556C388.722 34.72 388.565 34.8482 388.383 34.9239C388.2 34.9996 387.999 35.0194 387.805 34.9808C387.611 34.9422 387.433 34.847 387.293 34.7071C387.153 34.5673 387.058 34.3891 387.019 34.1951C386.981 34.0011 387 33.8 387.076 33.6173C387.152 33.4346 387.28 33.2784 387.444 33.1685C387.609 33.0586 387.802 33 388 33C388.265 33 388.52 33.1054 388.707 33.2929C388.895 33.4804 389 33.7348 389 34ZM395.5 27C395.302 27 395.109 26.9414 394.944 26.8315C394.78 26.7216 394.652 26.5654 394.576 26.3827C394.5 26.2 394.481 25.9989 394.519 25.8049C394.558 25.6109 394.653 25.4327 394.793 25.2929C394.933 25.153 395.111 25.0578 395.305 25.0192C395.499 24.9806 395.7 25.0004 395.883 25.0761C396.065 25.1518 396.222 25.28 396.331 25.4444C396.441 25.6089 396.5 25.8022 396.5 26C396.5 26.2652 396.395 26.5196 396.207 26.7071C396.02 26.8946 395.765 27 395.5 27Z" fill="#242424" fillOpacity="0.2"/>
<defs>
<linearGradient id="paint0_linear_2004_4792" x1="361" y1="1" x2="361" y2="469.666" gradientUnits="userSpaceOnUse">
<stop stopColor="white" stop-opacity="0.7"/>
<stop offset="1" stopColor="white" stop-opacity="0.5"/>
</linearGradient>
<linearGradient id="paint1_linear_2004_4792" x1="361" y1="1" x2="361" y2="469.666" gradientUnits="userSpaceOnUse">
<stop stopColor="white" stop-opacity="0.7"/>
<stop offset="1" stopColor="white" stop-opacity="0.5"/>
</linearGradient>
<linearGradient id="paint2_linear_2004_4792" x1="361" y1="1" x2="361" y2="469.666" gradientUnits="userSpaceOnUse">
<stop stopColor="white" stop-opacity="0.7"/>
<stop offset="1" stopColor="white" stop-opacity="0.5"/>
</linearGradient>
<linearGradient id="paint3_linear_2004_4792" x1="361" y1="1" x2="361" y2="469.666" gradientUnits="userSpaceOnUse">
<stop stopColor="white" stop-opacity="0.7"/>
<stop offset="1" stopColor="white" stop-opacity="0.5"/>
</linearGradient>
<linearGradient id="paint4_linear_2004_4792" x1="361" y1="1" x2="361" y2="469.666" gradientUnits="userSpaceOnUse">
<stop stopColor="white" stop-opacity="0.7"/>
<stop offset="1" stopColor="white" stop-opacity="0.5"/>
</linearGradient>
<linearGradient id="paint5_linear_2004_4792" x1="361" y1="1" x2="361" y2="469.666" gradientUnits="userSpaceOnUse">
<stop stopColor="white" stop-opacity="0.7"/>
<stop offset="1" stopColor="white" stop-opacity="0.5"/>
</linearGradient>
<linearGradient id="paint6_linear_2004_4792" x1="361" y1="1" x2="361" y2="469.666" gradientUnits="userSpaceOnUse">
<stop stopColor="white" stop-opacity="0.7"/>
<stop offset="1" stopColor="white" stop-opacity="0.5"/>
</linearGradient>
<linearGradient id="paint7_linear_2004_4792" x1="361" y1="1" x2="361" y2="469.666" gradientUnits="userSpaceOnUse">
<stop stopColor="white" stop-opacity="0.7"/>
<stop offset="1" stopColor="white" stop-opacity="0.5"/>
</linearGradient>
<linearGradient id="paint8_linear_2004_4792" x1="361" y1="1" x2="361" y2="469.666" gradientUnits="userSpaceOnUse">
<stop stopColor="white" stop-opacity="0.7"/>
<stop offset="1" stopColor="white" stop-opacity="0.5"/>
</linearGradient>
</defs>
</svg>
