<svg width="706" height="447" viewBox="0 0 706 447" fill="none" xmlns="http://www.w3.org/2000/svg">
<path d="M705 328.681V270.667H645.626V328.681H705Z" fill="url(#paint0_linear_2006_4793)"/>
<path d="M587.558 270.667V328.681H645.626V270.667H587.558Z" fill="url(#paint1_linear_2006_4793)"/>
<path d="M528.837 328.681V387.348H587.558V328.681H528.837Z" fill="url(#paint2_linear_2006_4793)"/>
<path d="M411.395 446.015H470.116V387.348H411.395V446.015Z" fill="url(#paint3_linear_2006_4793)"/>
<path d="M117.79 270.667H59.0686V328.681H117.79V270.667Z" fill="url(#paint4_linear_2006_4793)"/>
<path d="M176.511 387.348V328.681H117.79V387.348H176.511Z" fill="url(#paint5_linear_2006_4793)"/>
<path d="M1 446.015H59.0686V387.348H1V446.015Z" fill="url(#paint6_linear_2006_4793)"/>
<path d="M411.395 59.6667V1H352.674V59.6667H411.395Z" fill="url(#paint7_linear_2006_4793)"/>
<path d="M705 118.333V59.6667H645.626V118.333H705Z" fill="url(#paint8_linear_2006_4793)"/>
<path d="M59.0686 1H1V59.6667M59.0686 1H117.79M59.0686 1V59.6667M59.0686 446.015H1V387.348M59.0686 446.015H117.79M59.0686 446.015V387.348M59.0686 270.667H1M59.0686 270.667H117.79M59.0686 270.667V177M59.0686 270.667V328.681M1 270.667V328.681M1 270.667V177M705 270.667V328.681M705 270.667H645.626M705 270.667V177M645.626 446.015H705V387.348M645.626 446.015H587.558M645.626 446.015V328.681M645.626 1H705V59.6667M645.626 1H587.558M645.626 1V59.6667M705 59.6667V118.333M705 59.6667H645.626M1 59.6667V118.333M1 59.6667H59.0686M117.79 270.667H176.511M117.79 270.667V328.681M117.79 446.015H176.511M117.79 446.015V387.348M176.511 270.667H235.232M176.511 270.667V328.681M176.511 446.015H235.232M176.511 446.015V387.348M235.232 270.667V446.015M235.232 270.667H293.953M235.232 446.015H293.953M293.953 446.015H353M293.953 446.015V387.348M293.953 270.667H353M293.953 270.667V328.681M353 270.667V446.015M353 270.667H411.395M353 446.015H411.395M411.395 446.015H470.116M411.395 446.015V387.348M411.395 270.667H470.116M411.395 270.667V387.348M470.116 270.667H528.837M470.116 270.667V387.348M470.116 446.015H528.837M470.116 446.015V387.348M528.837 446.015H587.558M528.837 446.015V387.348M528.837 270.667H587.558M528.837 270.667V328.681M587.558 270.667V328.681M587.558 270.667H645.626M587.558 446.015V387.348M293.953 387.348V328.681M293.953 387.348H176.511M293.953 387.348H411.395M1 387.348V328.681M1 387.348H59.0686M705 387.348V328.681M705 387.348H587.558M293.953 328.681H176.511M293.953 328.681H528.837M1 328.681H59.0686M705 328.681H645.626M645.626 270.667V177M645.626 270.667V328.681M645.626 177H705M645.626 177V118.333M705 177V118.333M645.626 118.333H705M645.626 118.333V59.6667M587.558 59.6667V1M587.558 59.6667H528.837M587.558 59.6667H645.626M587.558 1H528.837M528.837 59.6667V1M528.837 59.6667H470.116M528.837 1H470.116M470.116 59.6667V1M470.116 59.6667H411.395M470.116 1H411.395M411.395 59.6667V1M411.395 59.6667H352.674M411.395 1H352.674M352.674 59.6667V1M352.674 59.6667H293.953M352.674 1H293.953M293.953 59.6667V1M293.953 59.6667H235.232M293.953 1H235.232M235.232 59.6667V1M235.232 59.6667H176.511M235.232 1H176.511M176.511 59.6667V1M176.511 59.6667H117.79M176.511 1H117.79M117.79 59.6667V1M117.79 59.6667H59.0686M1 118.333H59.0686M1 118.333V177M59.0686 118.333V177M59.0686 118.333V59.6667M1 177H59.0686M59.0686 328.681H117.79M59.0686 328.681V387.348M117.79 328.681H176.511M117.79 328.681V387.348M176.511 387.348V328.681M176.511 387.348H117.79M117.79 387.348H59.0686M528.837 328.681V387.348M528.837 328.681H587.558M528.837 387.348H587.558M528.837 387.348H470.116M587.558 387.348V328.681M587.558 328.681H645.626M411.395 387.348H470.116M645.627 225H705M1 226H59.0686" stroke="#E2E2E2" stroke-width="0.651852"/>
<rect x="55.5" y="266.49" width="8" height="8" rx="1" fill="white" stroke="#E2E2E2" stroke-width="0.8"/>
<rect x="641.5" y="266.49" width="8" height="8" rx="1" fill="white" stroke="#E2E2E2" stroke-width="0.8"/>
<rect x="641.5" y="56.4902" width="8" height="8" rx="1" fill="white" stroke="#E2E2E2" stroke-width="0.8"/>
<rect x="54.5" y="55.4902" width="8" height="8" rx="1" fill="white" stroke="#E2E2E2" stroke-width="0.8"/>
<path d="M554.147 356.344L552.147 354.344C552.1 354.298 552.063 354.242 552.038 354.182C552.013 354.121 552 354.056 552 353.99C552 353.925 552.013 353.859 552.038 353.799C552.063 353.738 552.1 353.683 552.147 353.636L554.147 351.636C554.24 351.543 554.368 351.49 554.5 351.49C554.633 351.49 554.76 351.543 554.854 351.636C554.948 351.73 555.001 351.858 555.001 351.99C555.001 352.123 554.948 352.25 554.854 352.344L553.207 353.99L554.854 355.636C554.948 355.73 555.001 355.858 555.001 355.99C555.001 356.123 554.948 356.25 554.854 356.344C554.76 356.438 554.633 356.491 554.5 356.491C554.368 356.491 554.24 356.438 554.147 356.344ZM556.647 356.344C556.693 356.39 556.748 356.427 556.809 356.453C556.87 356.478 556.935 356.491 557 356.491C557.066 356.491 557.131 356.478 557.192 356.453C557.253 356.427 557.308 356.39 557.354 356.344L559.354 354.344C559.401 354.298 559.438 354.242 559.463 354.182C559.488 354.121 559.501 354.056 559.501 353.99C559.501 353.925 559.488 353.859 559.463 353.799C559.438 353.738 559.401 353.683 559.354 353.636L557.354 351.636C557.26 351.543 557.133 351.49 557 351.49C556.868 351.49 556.74 351.543 556.647 351.636C556.553 351.73 556.5 351.858 556.5 351.99C556.5 352.123 556.553 352.25 556.647 352.344L558.294 353.99L556.647 355.636C556.6 355.683 556.563 355.738 556.538 355.799C556.513 355.859 556.5 355.925 556.5 355.99C556.5 356.056 556.513 356.121 556.538 356.182C556.563 356.242 556.6 356.298 556.647 356.344ZM563 352.49H561.5C561.368 352.49 561.241 352.543 561.147 352.637C561.053 352.73 561 352.858 561 352.99C561 353.123 561.053 353.25 561.147 353.344C561.241 353.438 561.368 353.49 561.5 353.49H563V362.49H554V358.49C554 358.358 553.948 358.23 553.854 358.137C553.76 358.043 553.633 357.99 553.5 357.99C553.368 357.99 553.241 358.043 553.147 358.137C553.053 358.23 553 358.358 553 358.49V362.49C553 362.755 553.106 363.01 553.293 363.197C553.481 363.385 553.735 363.49 554 363.49H563C563.266 363.49 563.52 363.385 563.707 363.197C563.895 363.01 564 362.755 564 362.49V353.49C564 353.225 563.895 352.971 563.707 352.783C563.52 352.596 563.266 352.49 563 352.49Z" fill="#242424" fillOpacity="0.2"/>
<path d="M621 301.49C620.558 301.49 620.128 301.637 619.779 301.908L618.335 300.783C618.444 300.533 618.5 300.263 618.5 299.99C618.5 299.944 618.5 299.898 618.495 299.852L619.322 299.576C619.583 299.98 619.981 300.276 620.443 300.409C620.905 300.543 621.4 300.506 621.836 300.305C622.273 300.104 622.623 299.752 622.821 299.314C623.02 298.876 623.054 298.381 622.917 297.92C622.781 297.459 622.483 297.063 622.077 296.804C621.672 296.545 621.188 296.44 620.712 296.509C620.236 296.578 619.801 296.817 619.486 297.181C619.172 297.544 618.999 298.009 619 298.49C619 298.536 619 298.583 619.005 298.628L618.178 298.904C617.997 298.624 617.748 298.393 617.455 298.234C617.162 298.074 616.833 297.99 616.5 297.99C616.389 297.99 616.279 298 616.17 298.018L615.743 297.053C616.112 296.758 616.365 296.342 616.456 295.878C616.548 295.415 616.473 294.934 616.243 294.52C616.014 294.107 615.646 293.788 615.205 293.621C614.763 293.453 614.276 293.447 613.83 293.604C613.385 293.761 613.009 294.07 612.77 294.478C612.53 294.885 612.443 295.364 612.523 295.83C612.604 296.295 612.846 296.718 613.208 297.021C613.57 297.325 614.027 297.491 614.5 297.49C614.61 297.49 614.72 297.481 614.829 297.463L615.257 298.425C614.894 298.712 614.642 299.116 614.545 299.568C614.447 300.02 614.509 300.492 614.721 300.903L613.114 302.33C612.71 302.058 612.22 301.942 611.736 302.005C611.252 302.067 610.808 302.304 610.487 302.671C610.166 303.038 609.989 303.509 609.99 303.997C609.992 304.485 610.171 304.955 610.494 305.32C610.817 305.685 611.263 305.92 611.747 305.98C612.231 306.04 612.72 305.922 613.123 305.647C613.526 305.372 613.815 304.96 613.935 304.487C614.056 304.015 614 303.515 613.778 303.08L615.385 301.653C615.733 301.887 616.146 302.006 616.565 301.992C616.985 301.978 617.389 301.832 617.72 301.575L619.165 302.7C619.056 302.949 619 303.218 619 303.49C619 303.886 619.117 304.272 619.337 304.601C619.557 304.93 619.869 305.187 620.234 305.338C620.6 305.489 621.002 305.529 621.39 305.452C621.778 305.375 622.134 305.184 622.414 304.904C622.694 304.625 622.884 304.268 622.961 303.88C623.038 303.492 622.999 303.09 622.847 302.725C622.696 302.359 622.44 302.047 622.111 301.827C621.782 301.608 621.395 301.49 621 301.49ZM621 297.49C621.197 297.49 621.391 297.549 621.555 297.659C621.72 297.769 621.848 297.925 621.924 298.108C621.999 298.29 622.019 298.491 621.98 298.685C621.942 298.879 621.847 299.057 621.707 299.197C621.567 299.337 621.389 299.432 621.195 299.471C621.001 299.51 620.8 299.49 620.617 299.414C620.434 299.338 620.278 299.21 620.168 299.046C620.058 298.881 620 298.688 620 298.49C620 298.225 620.105 297.971 620.293 297.783C620.48 297.596 620.734 297.49 621 297.49ZM613.5 295.49C613.5 295.292 613.558 295.099 613.668 294.935C613.778 294.77 613.934 294.642 614.117 294.566C614.3 294.491 614.501 294.471 614.695 294.509C614.889 294.548 615.067 294.643 615.207 294.783C615.347 294.923 615.442 295.101 615.48 295.295C615.519 295.489 615.499 295.69 615.424 295.873C615.348 296.056 615.22 296.212 615.055 296.322C614.891 296.432 614.697 296.49 614.5 296.49C614.234 296.49 613.98 296.385 613.793 296.197C613.605 296.01 613.5 295.755 613.5 295.49ZM612 304.99C611.802 304.99 611.609 304.932 611.444 304.822C611.28 304.712 611.151 304.556 611.076 304.373C611 304.19 610.98 303.989 611.019 303.795C611.057 303.601 611.153 303.423 611.293 303.283C611.432 303.143 611.611 303.048 611.805 303.009C611.999 302.971 612.2 302.991 612.382 303.066C612.565 303.142 612.721 303.27 612.831 303.435C612.941 303.599 613 303.792 613 303.99C613 304.255 612.894 304.51 612.707 304.697C612.519 304.885 612.265 304.99 612 304.99ZM615.5 299.99C615.5 299.792 615.558 299.599 615.668 299.435C615.778 299.27 615.934 299.142 616.117 299.066C616.3 298.991 616.501 298.971 616.695 299.009C616.889 299.048 617.067 299.143 617.207 299.283C617.347 299.423 617.442 299.601 617.48 299.795C617.519 299.989 617.499 300.19 617.424 300.373C617.348 300.556 617.22 300.712 617.055 300.822C616.891 300.932 616.697 300.99 616.5 300.99C616.234 300.99 615.98 300.885 615.793 300.697C615.605 300.51 615.5 300.255 615.5 299.99ZM621 304.49C620.802 304.49 620.609 304.432 620.444 304.322C620.28 304.212 620.151 304.056 620.076 303.873C620 303.69 619.98 303.489 620.019 303.295C620.057 303.101 620.153 302.923 620.293 302.783C620.432 302.643 620.611 302.548 620.805 302.509C620.999 302.471 621.2 302.491 621.382 302.566C621.565 302.642 621.721 302.77 621.831 302.935C621.941 303.099 622 303.292 622 303.49C622 303.755 621.894 304.01 621.707 304.197C621.519 304.385 621.265 304.49 621 304.49Z" fill="#242424" fillOpacity="0.2"/>
<path d="M673.375 293.49C671.977 293.49 671 294.724 671 296.49C671 298.256 671.977 299.49 673.375 299.49C674.773 299.49 675.75 298.256 675.75 296.49C675.75 294.724 674.773 293.49 673.375 293.49ZM673.375 298.49C672.289 298.49 672 297.233 672 296.49C672 295.747 672.289 294.49 673.375 294.49C674.461 294.49 674.75 295.747 674.75 296.49C674.75 297.233 674.461 298.49 673.375 298.49ZM677.875 300.49C676.477 300.49 675.5 301.724 675.5 303.49C675.5 305.256 676.477 306.49 677.875 306.49C679.273 306.49 680.25 305.256 680.25 303.49C680.25 301.724 679.273 300.49 677.875 300.49ZM677.875 305.49C676.789 305.49 676.5 304.233 676.5 303.49C676.5 302.747 676.789 301.49 677.875 301.49C678.961 301.49 679.25 302.747 679.25 303.49C679.25 304.233 678.961 305.49 677.875 305.49ZM676.562 295.066C676.531 295.009 676.51 294.946 676.503 294.881C676.495 294.815 676.501 294.749 676.519 294.686C676.537 294.623 676.567 294.564 676.608 294.513C676.649 294.461 676.699 294.418 676.757 294.386L678.257 293.553C678.333 293.511 678.419 293.489 678.506 293.49C678.593 293.491 678.678 293.515 678.753 293.559C678.828 293.603 678.891 293.666 678.934 293.742C678.977 293.818 679 293.903 679 293.99V298.99C679 299.123 678.947 299.25 678.854 299.344C678.76 299.438 678.633 299.49 678.5 299.49C678.367 299.49 678.24 299.438 678.146 299.344C678.053 299.25 678 299.123 678 298.99V294.84L677.243 295.261C677.185 295.293 677.122 295.313 677.057 295.321C676.991 295.328 676.925 295.323 676.862 295.305C676.799 295.286 676.74 295.256 676.689 295.215C676.637 295.174 676.594 295.124 676.562 295.066ZM674 300.99V305.99C674 306.123 673.947 306.25 673.854 306.344C673.76 306.438 673.633 306.49 673.5 306.49C673.367 306.49 673.24 306.438 673.146 306.344C673.053 306.25 673 306.123 673 305.99V301.84L672.242 302.261C672.126 302.325 671.99 302.341 671.862 302.304C671.735 302.268 671.627 302.182 671.562 302.066C671.498 301.95 671.483 301.813 671.519 301.685C671.556 301.558 671.641 301.45 671.758 301.386L673.258 300.553C673.334 300.511 673.419 300.489 673.507 300.49C673.594 300.491 673.679 300.515 673.754 300.559C673.829 300.603 673.891 300.666 673.934 300.742C673.977 300.818 674 300.903 674 300.99Z" fill="#242424" fillOpacity="0.2"/>
<path d="M438.832 413.365L434.75 416.99L438.829 420.615C438.878 420.659 438.919 420.712 438.947 420.771C438.976 420.83 438.993 420.894 438.997 420.96C439.001 421.025 438.992 421.091 438.971 421.153C438.949 421.216 438.916 421.273 438.872 421.322C438.829 421.371 438.776 421.412 438.717 421.44C438.658 421.469 438.593 421.486 438.528 421.49C438.462 421.494 438.396 421.485 438.334 421.464C438.272 421.442 438.215 421.409 438.165 421.365L433.665 417.365C433.612 417.318 433.57 417.261 433.54 417.196C433.511 417.131 433.496 417.061 433.496 416.99C433.496 416.919 433.511 416.849 433.54 416.785C433.57 416.72 433.612 416.662 433.665 416.615L438.165 412.615C438.215 412.571 438.272 412.538 438.334 412.516C438.396 412.495 438.462 412.486 438.528 412.49C438.594 412.493 438.658 412.51 438.717 412.539C438.777 412.568 438.83 412.608 438.874 412.657C438.917 412.706 438.951 412.764 438.972 412.826C438.994 412.888 439.003 412.954 438.999 413.02C438.995 413.086 438.979 413.15 438.95 413.209C438.921 413.268 438.881 413.321 438.832 413.365ZM448.332 416.615L443.832 412.615C443.732 412.527 443.602 412.482 443.469 412.49C443.337 412.498 443.213 412.559 443.125 412.658C443.037 412.758 442.992 412.888 443 413.021C443.008 413.153 443.068 413.277 443.168 413.365L447.25 416.99L443.17 420.615C443.121 420.659 443.081 420.712 443.052 420.771C443.023 420.83 443.006 420.894 443.002 420.96C442.998 421.025 443.007 421.091 443.029 421.153C443.05 421.216 443.084 421.273 443.127 421.322C443.171 421.371 443.224 421.412 443.283 421.44C443.342 421.469 443.406 421.486 443.472 421.49C443.537 421.494 443.603 421.485 443.665 421.464C443.728 421.442 443.785 421.409 443.834 421.365L448.334 417.365C448.387 417.318 448.43 417.261 448.459 417.196C448.488 417.131 448.503 417.061 448.503 416.99C448.503 416.919 448.488 416.849 448.459 416.785C448.43 416.72 448.387 416.662 448.334 416.615H448.332Z" fill="#242424" fillOpacity="0.2"/>
<path d="M152.817 359.016C152.445 357.572 151.553 356.316 150.312 355.49H154C154.132 355.49 154.26 355.438 154.353 355.344C154.447 355.25 154.5 355.123 154.5 354.99C154.5 354.858 154.447 354.73 154.353 354.637C154.26 354.543 154.132 354.49 154 354.49H148.937C148.827 354.06 148.577 353.679 148.226 353.406C147.875 353.134 147.444 352.986 147 352.986C146.556 352.986 146.124 353.134 145.773 353.406C145.423 353.679 145.172 354.06 145.062 354.49H140C139.867 354.49 139.74 354.543 139.646 354.637C139.552 354.73 139.5 354.858 139.5 354.99C139.5 355.123 139.552 355.25 139.646 355.344C139.74 355.438 139.867 355.49 140 355.49H143.687C142.446 356.316 141.554 357.572 141.183 359.016C140.703 359.092 140.267 359.341 139.957 359.716C139.647 360.09 139.484 360.565 139.499 361.051C139.514 361.537 139.705 362.001 140.037 362.356C140.368 362.711 140.818 362.934 141.302 362.981C141.786 363.029 142.271 362.899 142.665 362.615C143.06 362.331 143.338 361.913 143.447 361.44C143.556 360.966 143.489 360.469 143.258 360.041C143.027 359.613 142.648 359.284 142.192 359.115C142.407 358.375 142.789 357.694 143.308 357.125C143.827 356.555 144.47 356.112 145.187 355.83C145.348 356.176 145.604 356.469 145.925 356.674C146.247 356.88 146.62 356.989 147.002 356.989C147.383 356.989 147.757 356.88 148.078 356.674C148.399 356.469 148.656 356.176 148.816 355.83C149.533 356.113 150.175 356.556 150.693 357.125C151.212 357.695 151.593 358.375 151.807 359.115C151.351 359.283 150.972 359.612 150.74 360.04C150.509 360.467 150.441 360.964 150.55 361.438C150.658 361.912 150.936 362.33 151.33 362.614C151.724 362.899 152.209 363.029 152.693 362.982C153.177 362.935 153.627 362.714 153.959 362.359C154.291 362.004 154.483 361.54 154.498 361.054C154.513 360.568 154.351 360.094 154.042 359.719C153.732 359.344 153.297 359.094 152.817 359.017V359.016ZM142.5 360.99C142.5 361.188 142.441 361.381 142.331 361.546C142.221 361.71 142.065 361.838 141.882 361.914C141.7 361.99 141.499 362.01 141.305 361.971C141.111 361.932 140.933 361.837 140.793 361.697C140.653 361.557 140.558 361.379 140.519 361.185C140.48 360.991 140.5 360.79 140.576 360.608C140.652 360.425 140.78 360.269 140.944 360.159C141.109 360.049 141.302 359.99 141.5 359.99C141.765 359.99 142.019 360.096 142.207 360.283C142.394 360.471 142.5 360.725 142.5 360.99ZM147 355.99C146.802 355.99 146.609 355.932 146.444 355.822C146.28 355.712 146.152 355.556 146.076 355.373C146 355.19 145.98 354.989 146.019 354.795C146.058 354.601 146.153 354.423 146.293 354.283C146.433 354.143 146.611 354.048 146.805 354.009C146.999 353.971 147.2 353.991 147.382 354.066C147.565 354.142 147.721 354.27 147.831 354.435C147.941 354.599 148 354.792 148 354.99C148 355.255 147.894 355.51 147.707 355.697C147.519 355.885 147.265 355.99 147 355.99ZM152.5 361.99C152.302 361.99 152.109 361.932 151.944 361.822C151.78 361.712 151.652 361.556 151.576 361.373C151.5 361.19 151.48 360.989 151.519 360.795C151.558 360.601 151.653 360.423 151.793 360.283C151.933 360.143 152.111 360.048 152.305 360.009C152.499 359.971 152.7 359.991 152.882 360.066C153.065 360.142 153.221 360.27 153.331 360.435C153.441 360.599 153.5 360.792 153.5 360.99C153.5 361.255 153.394 361.51 153.207 361.697C153.019 361.885 152.765 361.99 152.5 361.99Z" fill="#242424" fillOpacity="0.2"/>
<path d="M91.9998 299.99C92.0032 302.011 91.6095 304.012 90.841 305.88C90.8037 305.972 90.7398 306.051 90.6574 306.107C90.575 306.163 90.4779 306.193 90.3785 306.193C90.3142 306.192 90.2506 306.179 90.191 306.155C90.1302 306.13 90.0749 306.094 90.0283 306.047C89.9817 306.001 89.9446 305.946 89.9193 305.885C89.894 305.825 89.8809 305.759 89.8808 305.694C89.8806 305.628 89.8935 305.563 89.9185 305.502C90.6368 303.753 91.0042 301.881 90.9998 299.99C90.9998 299.858 91.0524 299.73 91.1462 299.637C91.24 299.543 91.3672 299.49 91.4998 299.49C91.6324 299.49 91.7595 299.543 91.8533 299.637C91.9471 299.73 91.9998 299.858 91.9998 299.99ZM88.4998 297.49C88.8514 297.49 89.1991 297.565 89.5201 297.708C89.8411 297.852 90.1283 298.061 90.3629 298.323C90.4063 298.373 90.4593 298.414 90.5188 298.444C90.5782 298.473 90.6429 298.491 90.7091 298.495C90.7753 298.499 90.8417 298.49 90.9043 298.468C90.967 298.447 91.0247 298.413 91.0742 298.368C91.1236 298.324 91.1637 298.271 91.1922 298.211C91.2207 298.151 91.237 298.086 91.2401 298.02C91.2433 297.953 91.2332 297.887 91.2105 297.825C91.1878 297.762 91.1529 297.705 91.1079 297.656C90.6353 297.128 90.0134 296.756 89.3247 296.589C88.6359 296.422 87.9126 296.468 87.2506 296.721C86.5885 296.974 86.0189 297.422 85.6169 298.006C85.215 298.589 84.9998 299.282 84.9998 299.99C84.9997 301.43 84.6341 302.846 83.9373 304.106C83.9054 304.163 83.8852 304.226 83.8778 304.292C83.8703 304.357 83.8758 304.423 83.8939 304.486C83.912 304.549 83.9424 304.608 83.9833 304.66C84.0242 304.711 84.0748 304.754 84.1323 304.786C84.1897 304.818 84.2529 304.838 84.3181 304.845C84.3834 304.853 84.4495 304.847 84.5126 304.829C84.5758 304.811 84.6347 304.781 84.6862 304.74C84.7376 304.699 84.7804 304.648 84.8123 304.591C85.591 303.183 85.9996 301.6 85.9998 299.99C85.9998 299.327 86.2632 298.691 86.732 298.222C87.2008 297.754 87.8367 297.49 88.4998 297.49ZM88.4998 293.49C87.7617 293.489 87.0289 293.614 86.3329 293.86C86.2101 293.906 86.1102 293.998 86.0548 294.117C85.9994 294.236 85.9929 294.372 86.0367 294.495C86.0804 294.619 86.171 294.721 86.2888 294.778C86.4066 294.835 86.5423 294.844 86.6666 294.803C87.4964 294.51 88.3841 294.421 89.2555 294.542C90.1269 294.663 90.9565 294.992 91.6748 295.5C92.393 296.008 92.979 296.681 93.3835 297.462C93.788 298.244 93.9994 299.11 93.9998 299.99C94.0004 301.299 93.8549 302.603 93.566 303.88C93.5366 304.009 93.5596 304.144 93.6299 304.256C93.7002 304.368 93.8121 304.448 93.941 304.478C93.9775 304.486 94.0148 304.49 94.0523 304.49C94.1656 304.49 94.2756 304.452 94.3642 304.381C94.4528 304.31 94.5147 304.211 94.5398 304.101C94.8452 302.752 94.9995 301.373 94.9998 299.99C94.9979 298.267 94.3125 296.615 93.0939 295.396C91.8754 294.177 90.2231 293.492 88.4998 293.49ZM84.8335 295.891C84.8825 295.848 84.9223 295.795 84.9508 295.736C84.9793 295.676 84.9958 295.612 84.9995 295.547C85.0031 295.481 84.9938 295.415 84.9721 295.353C84.9504 295.291 84.9167 295.234 84.8729 295.185C84.8291 295.136 84.7761 295.096 84.7169 295.068C84.6577 295.039 84.5935 295.023 84.5279 295.019C84.4623 295.016 84.3967 295.025 84.3347 295.047C84.2727 295.068 84.2156 295.102 84.1666 295.146C83.4855 295.756 82.9405 296.503 82.5672 297.337C82.1938 298.172 82.0005 299.076 81.9998 299.99C82.0012 300.781 81.8306 301.563 81.4998 302.281C81.4723 302.341 81.457 302.406 81.4545 302.471C81.452 302.537 81.4624 302.602 81.4852 302.664C81.5313 302.788 81.6249 302.889 81.7454 302.945C81.8659 303 82.0035 303.005 82.1278 302.959C82.2522 302.913 82.3531 302.819 82.4085 302.699C82.7997 301.85 83.0014 300.925 82.9998 299.99C83.0004 299.217 83.1641 298.452 83.48 297.746C83.796 297.039 84.2571 296.408 84.8335 295.891ZM87.6198 304.536C87.5601 304.509 87.4956 304.494 87.43 304.491C87.3644 304.489 87.2989 304.499 87.2373 304.522C87.1757 304.545 87.1193 304.579 87.0711 304.624C87.0229 304.669 86.984 304.722 86.9566 304.782C86.8366 305.045 86.7066 305.306 86.5635 305.56C86.5315 305.617 86.5112 305.68 86.5037 305.746C86.4962 305.811 86.5017 305.877 86.5198 305.94C86.5379 306.004 86.5683 306.063 86.6093 306.114C86.6502 306.166 86.701 306.208 86.7585 306.24C86.8324 306.282 86.9157 306.303 87.0004 306.303C87.0897 306.303 87.1773 306.279 87.2542 306.234C87.3312 306.188 87.3946 306.123 87.4379 306.045C87.5904 305.77 87.7341 305.483 87.8654 305.2C87.8929 305.141 87.9084 305.076 87.9109 305.01C87.9135 304.945 87.903 304.879 87.8802 304.817C87.8574 304.756 87.8227 304.699 87.778 304.651C87.7333 304.603 87.6795 304.564 87.6198 304.536ZM88.4998 299.49C88.3672 299.49 88.24 299.543 88.1462 299.637C88.0524 299.73 87.9998 299.858 87.9998 299.99C88.0001 300.96 87.8785 301.926 87.6379 302.865C87.6049 302.994 87.6242 303.13 87.6915 303.244C87.7589 303.358 87.8689 303.441 87.9973 303.474C88.0381 303.484 88.0801 303.49 88.1223 303.49C88.233 303.49 88.3407 303.453 88.4282 303.385C88.5158 303.317 88.5783 303.222 88.606 303.115C88.8681 302.094 89.0003 301.044 88.9998 299.99C88.9996 299.857 88.9468 299.73 88.8531 299.636C88.7593 299.543 88.6323 299.49 88.4998 299.49Z" fill="#242424" fillOpacity="0.2"/>
<path d="M37.8538 413.136L35.8538 411.136C35.76 411.043 35.6327 410.99 35.5001 410.99C35.3674 410.99 35.2401 411.043 35.1463 411.136C35.0525 411.23 34.9998 411.358 34.9998 411.49C34.9998 411.623 35.0525 411.75 35.1463 411.844L36.2932 412.99H35.5001C32.4169 412.99 31.6844 414.748 31.0388 416.298C30.4526 417.705 29.9813 418.835 27.9463 418.975C27.8186 418.369 27.4704 417.832 26.9691 417.468C26.4678 417.104 25.8492 416.939 25.2332 417.005C24.6172 417.071 24.0477 417.363 23.6351 417.826C23.2225 418.288 22.9962 418.887 23 419.506C23.0039 420.126 23.2377 420.722 23.656 421.179C24.0744 421.636 24.6475 421.921 25.2643 421.979C25.8811 422.038 26.4975 421.865 26.9942 421.495C27.4909 421.125 27.8325 420.583 27.9526 419.975C30.6563 419.81 31.3488 418.153 31.9613 416.682C32.5882 415.178 33.0832 413.99 35.5001 413.99H36.2932L35.1463 415.136C35.0525 415.23 34.9998 415.358 34.9998 415.49C34.9998 415.623 35.0525 415.75 35.1463 415.844C35.2401 415.938 35.3674 415.991 35.5001 415.991C35.6327 415.991 35.76 415.938 35.8538 415.844L37.8538 413.844C37.9003 413.798 37.9372 413.742 37.9623 413.682C37.9875 413.621 38.0005 413.556 38.0005 413.49C38.0005 413.425 37.9875 413.359 37.9623 413.299C37.9372 413.238 37.9003 413.183 37.8538 413.136ZM25.5001 420.99C25.2034 420.99 24.9134 420.902 24.6667 420.737C24.42 420.573 24.2278 420.338 24.1142 420.064C24.0007 419.79 23.971 419.489 24.0289 419.198C24.0868 418.907 24.2296 418.639 24.4394 418.43C24.6492 418.22 24.9165 418.077 25.2074 418.019C25.4984 417.961 25.8 417.991 26.0741 418.104C26.3482 418.218 26.5824 418.41 26.7473 418.657C26.9121 418.904 27.0001 419.194 27.0001 419.49C27.0001 419.888 26.842 420.27 26.5607 420.551C26.2794 420.832 25.8979 420.99 25.5001 420.99Z" fill="#242424" fillOpacity="0.2"/>
<path d="M39.375 29.8652H34.3297C34.1787 28.8246 33.6581 27.8732 32.8629 27.1851C32.0678 26.497 31.0515 26.1183 30 26.1183C28.9485 26.1183 27.9322 26.497 27.1371 27.1851C26.3419 27.8732 25.8213 28.8246 25.6703 29.8652H20.625C20.4592 29.8652 20.3003 29.9311 20.1831 30.0483C20.0658 30.1655 20 30.3245 20 30.4902C20 30.656 20.0658 30.815 20.1831 30.9322C20.3003 31.0494 20.4592 31.1152 20.625 31.1152H25.6703C25.8213 32.1559 26.3419 33.1073 27.1371 33.7954C27.9322 34.4835 28.9485 34.8622 30 34.8622C31.0515 34.8622 32.0678 34.4835 32.8629 33.7954C33.6581 33.1073 34.1787 32.1559 34.3297 31.1152H39.375C39.5408 31.1152 39.6997 31.0494 39.8169 30.9322C39.9342 30.815 40 30.656 40 30.4902C40 30.3245 39.9342 30.1655 39.8169 30.0483C39.6997 29.9311 39.5408 29.8652 39.375 29.8652ZM30 33.6152C29.3819 33.6152 28.7777 33.432 28.2638 33.0886C27.7499 32.7452 27.3494 32.2572 27.1129 31.6861C26.8764 31.1151 26.8145 30.4868 26.935 29.8806C27.0556 29.2744 27.3533 28.7176 27.7903 28.2805C28.2273 27.8435 28.7842 27.5459 29.3903 27.4253C29.9965 27.3047 30.6249 27.3666 31.1959 27.6031C31.7669 27.8396 32.255 28.2402 32.5983 28.7541C32.9417 29.268 33.125 29.8722 33.125 30.4902C33.125 31.3191 32.7958 32.1139 32.2097 32.7C31.6237 33.286 30.8288 33.6152 30 33.6152Z" fill="#242424" fillOpacity="0.2"/>
<path d="M388.5 26.4902C388.5 26.1162 388.395 25.7497 388.197 25.4324C387.999 25.1151 387.716 24.8597 387.38 24.6952C387.044 24.5306 386.669 24.4636 386.297 24.5016C385.924 24.5397 385.57 24.6813 385.275 24.9104C384.979 25.1395 384.754 25.447 384.624 25.7978C384.494 26.1486 384.466 26.5288 384.541 26.8951C384.617 27.2614 384.793 27.5992 385.051 27.8701C385.309 28.141 385.638 28.3342 386 28.4277V29.4902C386 29.6228 385.947 29.75 385.854 29.8438C385.76 29.9376 385.633 29.9902 385.5 29.9902H380C379.83 29.9902 379.661 30.0194 379.5 30.0765V28.4277C379.971 28.306 380.382 28.0166 380.655 27.6137C380.929 27.2108 381.045 26.7221 380.984 26.2392C380.923 25.7563 380.687 25.3124 380.322 24.9906C379.957 24.6688 379.487 24.4912 379 24.4912C378.513 24.4912 378.043 24.6688 377.678 24.9906C377.313 25.3124 377.077 25.7563 377.016 26.2392C376.955 26.7221 377.071 27.2108 377.345 27.6137C377.618 28.0166 378.029 28.306 378.5 28.4277V32.5527C378.029 32.6744 377.618 32.9638 377.345 33.3667C377.071 33.7696 376.955 34.2583 377.016 34.7412C377.077 35.2241 377.313 35.6681 377.678 35.9899C378.043 36.3117 378.513 36.4892 379 36.4892C379.487 36.4892 379.957 36.3117 380.322 35.9899C380.687 35.6681 380.923 35.2241 380.984 34.7412C381.045 34.2583 380.929 33.7696 380.655 33.3667C380.382 32.9638 379.971 32.6744 379.5 32.5527V31.4902C379.5 31.3576 379.553 31.2304 379.646 31.1367C379.74 31.0429 379.867 30.9902 380 30.9902H385.5C385.898 30.9902 386.279 30.8322 386.561 30.5509C386.842 30.2696 387 29.8881 387 29.4902V28.4277C387.429 28.3163 387.809 28.0656 388.081 27.715C388.352 27.3644 388.5 26.9336 388.5 26.4902ZM378 26.4902C378 26.2925 378.059 26.0991 378.169 25.9347C378.278 25.7702 378.435 25.642 378.617 25.5664C378.8 25.4907 379.001 25.4709 379.195 25.5094C379.389 25.548 379.567 25.6433 379.707 25.7831C379.847 25.923 379.942 26.1012 379.981 26.2951C380.019 26.4891 380 26.6902 379.924 26.8729C379.848 27.0556 379.72 27.2118 379.556 27.3217C379.391 27.4316 379.198 27.4902 379 27.4902C378.735 27.4902 378.48 27.3849 378.293 27.1973C378.105 27.0098 378 26.7555 378 26.4902ZM380 34.4902C380 34.688 379.941 34.8814 379.831 35.0458C379.722 35.2103 379.565 35.3384 379.383 35.4141C379.2 35.4898 378.999 35.5096 378.805 35.471C378.611 35.4324 378.433 35.3372 378.293 35.1973C378.153 35.0575 378.058 34.8793 378.019 34.6853C377.981 34.4913 378 34.2903 378.076 34.1076C378.152 33.9248 378.28 33.7686 378.444 33.6588C378.609 33.5489 378.802 33.4902 379 33.4902C379.265 33.4902 379.52 33.5956 379.707 33.7831C379.895 33.9707 380 34.225 380 34.4902ZM386.5 27.4902C386.302 27.4902 386.109 27.4316 385.944 27.3217C385.78 27.2118 385.652 27.0556 385.576 26.8729C385.5 26.6902 385.481 26.4891 385.519 26.2951C385.558 26.1012 385.653 25.923 385.793 25.7831C385.933 25.6433 386.111 25.548 386.305 25.5094C386.499 25.4709 386.7 25.4907 386.883 25.5664C387.065 25.642 387.222 25.7702 387.331 25.9347C387.441 26.0991 387.5 26.2925 387.5 26.4902C387.5 26.7555 387.395 27.0098 387.207 27.1973C387.02 27.3849 386.765 27.4902 386.5 27.4902Z" fill="#242424" fillOpacity="0.2"/>
<path d="M683 85.8652H679.203L679.865 82.227C679.891 82.0652 679.853 81.8995 679.759 81.7655C679.664 81.6315 679.521 81.54 679.36 81.5107C679.199 81.4814 679.032 81.5166 678.897 81.6088C678.761 81.701 678.667 81.8427 678.635 82.0035L677.932 85.8652H674.203L674.865 82.227C674.891 82.0652 674.853 81.8995 674.759 81.7655C674.664 81.6315 674.521 81.54 674.36 81.5107C674.199 81.4814 674.032 81.5166 673.897 81.6088C673.761 81.701 673.667 81.8427 673.635 82.0035L672.933 85.8652H669.25C669.084 85.8652 668.925 85.9311 668.808 86.0483C668.691 86.1655 668.625 86.3245 668.625 86.4902C668.625 86.656 668.691 86.815 668.808 86.9322C668.925 87.0494 669.084 87.1152 669.25 87.1152H672.705L672.023 90.8652H668C667.834 90.8652 667.675 90.9311 667.558 91.0483C667.441 91.1655 667.375 91.3245 667.375 91.4902C667.375 91.656 667.441 91.815 667.558 91.9322C667.675 92.0494 667.834 92.1152 668 92.1152H671.797L671.135 95.7535C671.106 95.9166 671.142 96.0847 671.236 96.221C671.331 96.3572 671.475 96.4504 671.638 96.4801C671.675 96.4869 671.713 96.4903 671.75 96.4902C671.896 96.49 672.038 96.4386 672.15 96.3448C672.262 96.251 672.338 96.1208 672.364 95.977L673.067 92.1152H676.797L676.135 95.7535C676.106 95.9166 676.142 96.0847 676.236 96.221C676.331 96.3572 676.475 96.4504 676.638 96.4801C676.675 96.4869 676.713 96.4903 676.75 96.4902C676.896 96.49 677.038 96.4386 677.15 96.3448C677.262 96.251 677.338 96.1208 677.364 95.977L678.067 92.1152H681.75C681.916 92.1152 682.075 92.0494 682.192 91.9322C682.309 91.815 682.375 91.656 682.375 91.4902C682.375 91.3245 682.309 91.1655 682.192 91.0483C682.075 90.9311 681.916 90.8652 681.75 90.8652H678.295L678.977 87.1152H683C683.166 87.1152 683.325 87.0494 683.442 86.9322C683.559 86.815 683.625 86.656 683.625 86.4902C683.625 86.3245 683.559 86.1655 683.442 86.0483C683.325 85.9311 683.166 85.8652 683 85.8652ZM677.023 90.8652H673.295L673.977 87.1152H677.705L677.023 90.8652Z" fill="#242424" fillOpacity="0.2"/>
<defs>
<linearGradient id="paint0_linear_2006_4793" x1="353" y1="1" x2="353" y2="469.682" gradientUnits="userSpaceOnUse">
<stop stop-color="white" stop-opacity="0.7"/>
<stop offset="1" stop-color="white" stop-opacity="0.5"/>
</linearGradient>
<linearGradient id="paint1_linear_2006_4793" x1="353" y1="1" x2="353" y2="469.682" gradientUnits="userSpaceOnUse">
<stop stop-color="white" stop-opacity="0.7"/>
<stop offset="1" stop-color="white" stop-opacity="0.5"/>
</linearGradient>
<linearGradient id="paint2_linear_2006_4793" x1="353" y1="1" x2="353" y2="469.682" gradientUnits="userSpaceOnUse">
<stop stop-color="white" stop-opacity="0.7"/>
<stop offset="1" stop-color="white" stop-opacity="0.5"/>
</linearGradient>
<linearGradient id="paint3_linear_2006_4793" x1="353" y1="1" x2="353" y2="469.682" gradientUnits="userSpaceOnUse">
<stop stop-color="white" stop-opacity="0.7"/>
<stop offset="1" stop-color="white" stop-opacity="0.5"/>
</linearGradient>
<linearGradient id="paint4_linear_2006_4793" x1="353" y1="1" x2="353" y2="469.682" gradientUnits="userSpaceOnUse">
<stop stop-color="white" stop-opacity="0.7"/>
<stop offset="1" stop-color="white" stop-opacity="0.5"/>
</linearGradient>
<linearGradient id="paint5_linear_2006_4793" x1="353" y1="1" x2="353" y2="469.682" gradientUnits="userSpaceOnUse">
<stop stop-color="white" stop-opacity="0.7"/>
<stop offset="1" stop-color="white" stop-opacity="0.5"/>
</linearGradient>
<linearGradient id="paint6_linear_2006_4793" x1="353" y1="1" x2="353" y2="469.682" gradientUnits="userSpaceOnUse">
<stop stop-color="white" stop-opacity="0.7"/>
<stop offset="1" stop-color="white" stop-opacity="0.5"/>
</linearGradient>
<linearGradient id="paint7_linear_2006_4793" x1="353" y1="1" x2="353" y2="469.682" gradientUnits="userSpaceOnUse">
<stop stop-color="white" stop-opacity="0.7"/>
<stop offset="1" stop-color="white" stop-opacity="0.5"/>
</linearGradient>
<linearGradient id="paint8_linear_2006_4793" x1="353" y1="1" x2="353" y2="469.682" gradientUnits="userSpaceOnUse">
<stop stop-color="white" stop-opacity="0.7"/>
<stop offset="1" stop-color="white" stop-opacity="0.5"/>
</linearGradient>
</defs>
</svg>
