<svg width="13" height="12" viewBox="0 0 13 12" fill="none" xmlns="http://www.w3.org/2000/svg">
<path d="M10.8903 6.26528L7.51531 9.64028C7.44495 9.71064 7.34951 9.75017 7.25 9.75017C7.15049 9.75017 7.05505 9.71064 6.98469 9.64028C6.91432 9.56991 6.87479 9.47448 6.87479 9.37496C6.87479 9.27545 6.91432 9.18002 6.98469 9.10965L9.71984 6.37496H2.375C2.27554 6.37496 2.18016 6.33546 2.10984 6.26513C2.03951 6.1948 2 6.09942 2 5.99996C2 5.90051 2.03951 5.80513 2.10984 5.7348C2.18016 5.66447 2.27554 5.62496 2.375 5.62496H9.71984L6.98469 2.89028C6.91432 2.81991 6.87479 2.72448 6.87479 2.62496C6.87479 2.52545 6.91432 2.43002 6.98469 2.35965C7.05505 2.28929 7.15049 2.24976 7.25 2.24976C7.34951 2.24976 7.44495 2.28929 7.51531 2.35965L10.8903 5.73465C10.9252 5.76948 10.9528 5.81084 10.9717 5.85636C10.9906 5.90189 11.0003 5.95068 11.0003 5.99996C11.0003 6.04925 10.9906 6.09804 10.9717 6.14357C10.9528 6.18909 10.9252 6.23045 10.8903 6.26528Z" fill="white" fillOpacity="0.8"/>
</svg>
