<svg width="15" height="14" viewBox="0 0 15 14" fill="none" xmlns="http://www.w3.org/2000/svg">
<path d="M10.4348 7.30977L6.05977 11.6848C6.01913 11.7254 5.97087 11.7577 5.91776 11.7797C5.86465 11.8017 5.80773 11.813 5.75024 11.813C5.69276 11.813 5.63584 11.8017 5.58273 11.7797C5.52962 11.7577 5.48136 11.7254 5.44071 11.6848C5.40006 11.6441 5.36782 11.5959 5.34582 11.5428C5.32382 11.4897 5.3125 11.4327 5.3125 11.3752C5.3125 11.3178 5.32382 11.2608 5.34582 11.2077C5.36782 11.1546 5.40006 11.1064 5.44071 11.0657L9.50673 7.00024L5.44071 2.93477C5.35862 2.85268 5.3125 2.74134 5.3125 2.62524C5.3125 2.50915 5.35862 2.3978 5.44071 2.31571C5.5228 2.23362 5.63415 2.1875 5.75024 2.1875C5.86634 2.1875 5.97768 2.23362 6.05977 2.31571L10.4348 6.69071C10.4755 6.73134 10.5077 6.7796 10.5297 6.83271C10.5518 6.88582 10.5631 6.94275 10.5631 7.00024C10.5631 7.05774 10.5518 7.11467 10.5297 7.16778C10.5077 7.22089 10.4755 7.26914 10.4348 7.30977Z" fill="#1E293B"/>
</svg>
