<svg width="25" height="24" viewBox="0 0 25 24" fill="none" xmlns="http://www.w3.org/2000/svg">
<path d="M21.225 13.5385C20.6681 11.3726 19.3302 9.48904 17.4684 8.25002H22.9997C23.1986 8.25002 23.3894 8.17101 23.53 8.03035C23.6707 7.8897 23.7497 7.69894 23.7497 7.50002C23.7497 7.30111 23.6707 7.11035 23.53 6.96969C23.3894 6.82904 23.1986 6.75002 22.9997 6.75002H15.4059C15.2407 6.10471 14.8654 5.53274 14.3392 5.12429C13.813 4.71584 13.1658 4.49414 12.4997 4.49414C11.8336 4.49414 11.1864 4.71584 10.6602 5.12429C10.134 5.53274 9.75866 6.10471 9.59343 6.75002H1.99968C1.80077 6.75002 1.61 6.82904 1.46935 6.96969C1.3287 7.11035 1.24968 7.30111 1.24968 7.50002C1.24968 7.69894 1.3287 7.8897 1.46935 8.03035C1.61 8.17101 1.80077 8.25002 1.99968 8.25002H7.53093C5.66921 9.48904 4.33126 11.3726 3.77437 13.5385C3.05425 13.6534 2.40064 14.0266 1.93575 14.5885C1.47085 15.1503 1.22652 15.8622 1.24843 16.5911C1.27033 17.32 1.55698 18.016 2.05477 18.5489C2.55257 19.0818 3.22742 19.4151 3.95314 19.4866C4.67886 19.558 5.40576 19.3627 5.99791 18.9371C6.59007 18.5115 7.00694 17.8848 7.17057 17.1742C7.3342 16.4635 7.23339 15.7176 6.88699 15.0759C6.54059 14.4342 5.97232 13.9407 5.28843 13.6875C5.61044 12.5773 6.1829 11.5557 6.96175 10.7014C7.7406 9.84716 8.70507 9.18299 9.78093 8.76002C10.0216 9.27905 10.4058 9.71843 10.888 10.0263C11.3702 10.3342 11.9304 10.4978 12.5025 10.4978C13.0746 10.4978 13.6348 10.3342 14.117 10.0263C14.5992 9.71843 14.9833 9.27905 15.2241 8.76002C16.2989 9.1837 17.2622 9.84818 18.0401 10.7024C18.8179 11.5566 19.3895 12.5778 19.7109 13.6875C19.0267 13.9398 18.4578 14.4326 18.1106 15.0739C17.7634 15.7152 17.6617 16.461 17.8244 17.1718C17.9872 17.8827 18.4033 18.5099 18.9949 18.9362C19.5865 19.3625 20.3132 19.5588 21.039 19.4882C21.7648 19.4177 22.4401 19.0851 22.9386 18.5528C23.437 18.0206 23.7245 17.3249 23.7473 16.596C23.7701 15.8672 23.5266 15.1549 23.0624 14.5925C22.5982 14.0302 21.945 13.6561 21.225 13.5403V13.5385ZM5.74968 16.5C5.74968 16.7967 5.66171 17.0867 5.49689 17.3334C5.33206 17.5801 5.0978 17.7723 4.82371 17.8858C4.54962 17.9994 4.24802 18.0291 3.95705 17.9712C3.66607 17.9133 3.3988 17.7705 3.18902 17.5607C2.97924 17.3509 2.83638 17.0836 2.7785 16.7927C2.72063 16.5017 2.75033 16.2001 2.86386 15.926C2.97739 15.6519 3.16965 15.4176 3.41633 15.2528C3.663 15.088 3.95301 15 4.24968 15C4.64751 15 5.02904 15.1581 5.31034 15.4394C5.59165 15.7207 5.74968 16.1022 5.74968 16.5ZM12.4997 9.00002C12.203 9.00002 11.913 8.91205 11.6663 8.74723C11.4197 8.58241 11.2274 8.34814 11.1139 8.07405C11.0003 7.79996 10.9706 7.49836 11.0285 7.20739C11.0864 6.91642 11.2292 6.64914 11.439 6.43936C11.6488 6.22958 11.9161 6.08672 12.207 6.02885C12.498 5.97097 12.7996 6.00067 13.0737 6.1142C13.3478 6.22774 13.5821 6.41999 13.7469 6.66667C13.9117 6.91334 13.9997 7.20335 13.9997 7.50002C13.9997 7.89785 13.8416 8.27938 13.5603 8.56068C13.279 8.84199 12.8975 9.00002 12.4997 9.00002ZM20.7497 18C20.453 18 20.163 17.912 19.9163 17.7472C19.6697 17.5824 19.4774 17.3481 19.3639 17.074C19.2503 16.8 19.2206 16.4984 19.2785 16.2074C19.3364 15.9164 19.4792 15.6491 19.689 15.4394C19.8988 15.2296 20.1661 15.0867 20.457 15.0288C20.748 14.971 21.0496 15.0007 21.3237 15.1142C21.5978 15.2277 21.8321 15.42 21.9969 15.6667C22.1617 15.9133 22.2497 16.2034 22.2497 16.5C22.2497 16.8978 22.0916 17.2794 21.8103 17.5607C21.529 17.842 21.1475 18 20.7497 18Z" fill="#242424" fill-opacity="0.2"/>
</svg>
