<svg width="24" height="25" viewBox="0 0 24 25" fill="none" xmlns="http://www.w3.org/2000/svg">
<path d="M8.8125 2.75C6.71531 2.75 5.25 4.60063 5.25 7.25C5.25 9.89937 6.71531 11.75 8.8125 11.75C10.9097 11.75 12.375 9.89937 12.375 7.25C12.375 4.60063 10.9097 2.75 8.8125 2.75ZM8.8125 10.25C7.18406 10.25 6.75 8.36469 6.75 7.25C6.75 6.13531 7.18406 4.25 8.8125 4.25C10.4409 4.25 10.875 6.13531 10.875 7.25C10.875 8.36469 10.4409 10.25 8.8125 10.25ZM15.5625 13.25C13.4653 13.25 12 15.1006 12 17.75C12 20.3994 13.4653 22.25 15.5625 22.25C17.6597 22.25 19.125 20.3994 19.125 17.75C19.125 15.1006 17.6597 13.25 15.5625 13.25ZM15.5625 20.75C13.9341 20.75 13.5 18.8647 13.5 17.75C13.5 16.6353 13.9341 14.75 15.5625 14.75C17.1909 14.75 17.625 16.6353 17.625 17.75C17.625 18.8647 17.1909 20.75 15.5625 20.75ZM13.5938 5.11438C13.5459 5.02826 13.5155 4.93356 13.5042 4.83569C13.493 4.73782 13.5012 4.6387 13.5282 4.54397C13.5553 4.44925 13.6008 4.3608 13.662 4.28365C13.7233 4.20651 13.7992 4.14219 13.8853 4.09438L16.1353 2.84469C16.2495 2.78116 16.3782 2.74856 16.5089 2.7501C16.6395 2.75165 16.7675 2.78729 16.8801 2.8535C16.9927 2.91971 17.0861 3.01419 17.151 3.12759C17.2159 3.24098 17.25 3.36936 17.25 3.5V11C17.25 11.1989 17.171 11.3897 17.0303 11.5303C16.8897 11.671 16.6989 11.75 16.5 11.75C16.3011 11.75 16.1103 11.671 15.9697 11.5303C15.829 11.3897 15.75 11.1989 15.75 11V4.775L14.6138 5.40594C14.5276 5.45379 14.4329 5.4842 14.3351 5.49544C14.2372 5.50668 14.1381 5.49853 14.0434 5.47146C13.9486 5.44438 13.8602 5.39891 13.783 5.33764C13.7059 5.27637 13.6416 5.20051 13.5938 5.11438ZM9.75 14V21.5C9.75 21.6989 9.67098 21.8897 9.53033 22.0303C9.38968 22.171 9.19891 22.25 9 22.25C8.80109 22.25 8.61032 22.171 8.46967 22.0303C8.32902 21.8897 8.25 21.6989 8.25 21.5V15.275L7.11375 15.9059C6.9397 16.0024 6.73446 16.0258 6.54317 15.9709C6.35188 15.9161 6.19022 15.7875 6.09375 15.6134C5.99728 15.4394 5.9739 15.2341 6.02875 15.0429C6.08361 14.8516 6.2122 14.6899 6.38625 14.5934L8.63625 13.3438C8.75045 13.2804 8.87921 13.248 9.00979 13.2497C9.14036 13.2514 9.26823 13.2872 9.38074 13.3535C9.49325 13.4198 9.5865 13.5143 9.65126 13.6277C9.71603 13.7411 9.75006 13.8694 9.75 14Z" fill="#242424" fillOpacity="0.2"/>
</svg>
