<svg width="18" height="18" viewBox="0 0 18 18" fill="none" xmlns="http://www.w3.org/2000/svg">
<path d="M14.625 6.75C14.9234 6.75 15.2095 6.63147 15.4205 6.4205C15.6315 6.20952 15.75 5.92337 15.75 5.625V3.375C15.75 3.07663 15.6315 2.79048 15.4205 2.5795C15.2095 2.36853 14.9234 2.25 14.625 2.25H12.375C12.0766 2.25 11.7905 2.36853 11.5795 2.5795C11.3685 2.79048 11.25 3.07663 11.25 3.375V3.9375H6.75V3.375C6.75 3.07663 6.63147 2.79048 6.4205 2.5795C6.20952 2.36853 5.92337 2.25 5.625 2.25H3.375C3.07663 2.25 2.79048 2.36853 2.5795 2.5795C2.36853 2.79048 2.25 3.07663 2.25 3.375V5.625C2.25 5.92337 2.36853 6.20952 2.5795 6.4205C2.79048 6.63147 3.07663 6.75 3.375 6.75H3.9375V11.25H3.375C3.07663 11.25 2.79048 11.3685 2.5795 11.5795C2.36853 11.7905 2.25 12.0766 2.25 12.375V14.625C2.25 14.9234 2.36853 15.2095 2.5795 15.4205C2.79048 15.6315 3.07663 15.75 3.375 15.75H5.625C5.92337 15.75 6.20952 15.6315 6.4205 15.4205C6.63147 15.2095 6.75 14.9234 6.75 14.625V14.0625H11.25V14.625C11.25 14.9234 11.3685 15.2095 11.5795 15.4205C11.7905 15.6315 12.0766 15.75 12.375 15.75H14.625C14.9234 15.75 15.2095 15.6315 15.4205 15.4205C15.6315 15.2095 15.75 14.9234 15.75 14.625V12.375C15.75 12.0766 15.6315 11.7905 15.4205 11.5795C15.2095 11.3685 14.9234 11.25 14.625 11.25H14.0625V6.75H14.625ZM12.375 3.375H14.625V5.625H12.375V3.375ZM3.375 3.375H5.625V4.49297C5.62407 4.49761 5.62407 4.50239 5.625 4.50703V5.625H3.375V3.375ZM5.625 14.625H3.375V12.375H5.625V13.493C5.62407 13.4976 5.62407 13.5024 5.625 13.507V14.625ZM14.625 14.625H12.375V12.375H14.625V14.625ZM12.9375 11.25H12.375C12.0766 11.25 11.7905 11.3685 11.5795 11.5795C11.3685 11.7905 11.25 12.0766 11.25 12.375V12.9375H6.75V12.375C6.75 12.0766 6.63147 11.7905 6.4205 11.5795C6.20952 11.3685 5.92337 11.25 5.625 11.25H5.0625V6.75H5.625C5.92337 6.75 6.20952 6.63147 6.4205 6.4205C6.63147 6.20952 6.75 5.92337 6.75 5.625V5.0625H11.25V5.625C11.25 5.92337 11.3685 6.20952 11.5795 6.4205C11.7905 6.63147 12.0766 6.75 12.375 6.75H12.9375V11.25Z" fill="#F05023"/>
</svg>
