<svg width="16" height="16" viewBox="0 0 16 16" fill="none" xmlns="http://www.w3.org/2000/svg">
<path d="M8.00033 12H14.0003C14.367 12 14.667 11.7 14.667 11.3333C14.667 10.9667 14.367 10.6667 14.0003 10.6667H8.00033C7.63366 10.6667 7.33366 10.9667 7.33366 11.3333C7.33366 11.7 7.63366 12 8.00033 12ZM3.33366 8.66667H14.0003C14.367 8.66667 14.667 8.36667 14.667 8C14.667 7.63333 14.367 7.33333 14.0003 7.33333H3.33366C2.96699 7.33333 2.66699 7.63333 2.66699 8C2.66699 8.36667 2.96699 8.66667 3.33366 8.66667ZM4.66699 4.66667C4.66699 5.03333 4.96699 5.33333 5.33366 5.33333H14.0003C14.367 5.33333 14.667 5.03333 14.667 4.66667C14.667 4.3 14.367 4 14.0003 4H5.33366C4.96699 4 4.66699 4.3 4.66699 4.66667Z" fill="#242424" fillOpacity="0.7"/>
</svg>
