<svg width="82" height="27" viewBox="0 0 82 27" fill="none" xmlns="http://www.w3.org/2000/svg">
<path d="M19.3274 9.04332H15.343C15.2294 8.38991 15.0199 7.81108 14.7145 7.30682C14.4091 6.79545 14.0291 6.36222 13.5746 6.0071C13.12 5.65199 12.6016 5.38565 12.0192 5.2081C11.4439 5.02344 10.8224 4.93111 10.1548 4.93111C8.96875 4.93111 7.91761 5.2294 7.00142 5.82599C6.08523 6.41548 5.3679 7.28196 4.84943 8.42543C4.33097 9.56179 4.07173 10.9503 4.07173 12.5909C4.07173 14.2599 4.33097 15.6662 4.84943 16.8097C5.375 17.946 6.09233 18.8054 7.00142 19.3878C7.91761 19.9631 8.9652 20.2507 10.1442 20.2507C10.7976 20.2507 11.4084 20.1655 11.9766 19.995C12.5518 19.8175 13.0668 19.5582 13.5213 19.2173C13.983 18.8764 14.37 18.4574 14.6825 17.9602C15.0021 17.4631 15.2223 16.8949 15.343 16.2557L19.3274 16.277C19.1783 17.3139 18.8551 18.2869 18.358 19.196C17.8679 20.1051 17.2251 20.9077 16.4297 21.6037C15.6342 22.2926 14.7038 22.8324 13.6385 23.223C12.5732 23.6065 11.3906 23.7983 10.0909 23.7983C8.1733 23.7983 6.46165 23.3544 4.95597 22.4666C3.45028 21.5788 2.2642 20.2969 1.39773 18.6207C0.53125 16.9446 0.0980114 14.9347 0.0980114 12.5909C0.0980114 10.2401 0.534801 8.23011 1.40838 6.56108C2.28196 4.88494 3.47159 3.60298 4.97727 2.7152C6.48295 1.82741 8.1875 1.38352 10.0909 1.38352C11.3054 1.38352 12.4347 1.55398 13.4787 1.89489C14.5227 2.2358 15.4531 2.73651 16.2699 3.39702C17.0866 4.05043 17.7578 4.85298 18.2834 5.80469C18.8161 6.74929 19.1641 7.82884 19.3274 9.04332ZM26.5993 1.68182V23.5H22.6469V1.68182H26.5993ZM39.3151 0.659089L32.2839 26.7812H28.9067L35.938 0.659089H39.3151ZM60.3219 9.04332H56.3376C56.2239 8.38991 56.0144 7.81108 55.709 7.30682C55.4036 6.79545 55.0236 6.36222 54.5691 6.0071C54.1146 5.65199 53.5961 5.38565 53.0137 5.2081C52.4384 5.02344 51.817 4.93111 51.1494 4.93111C49.9633 4.93111 48.9121 5.2294 47.996 5.82599C47.0798 6.41548 46.3624 7.28196 45.844 8.42543C45.3255 9.56179 45.0663 10.9503 45.0663 12.5909C45.0663 14.2599 45.3255 15.6662 45.844 16.8097C46.3695 17.946 47.0869 18.8054 47.996 19.3878C48.9121 19.9631 49.9597 20.2507 51.1387 20.2507C51.7921 20.2507 52.4029 20.1655 52.9711 19.995C53.5464 19.8175 54.0613 19.5582 54.5158 19.2173C54.9775 18.8764 55.3646 18.4574 55.6771 17.9602C55.9967 17.4631 56.2168 16.8949 56.3376 16.2557L60.3219 16.277C60.1728 17.3139 59.8496 18.2869 59.3525 19.196C58.8624 20.1051 58.2197 20.9077 57.4242 21.6037C56.6288 22.2926 55.6984 22.8324 54.633 23.223C53.5677 23.6065 52.3852 23.7983 51.0854 23.7983C49.1678 23.7983 47.4562 23.3544 45.9505 22.4666C44.4448 21.5788 43.2587 20.2969 42.3923 18.6207C41.5258 16.9446 41.0925 14.9347 41.0925 12.5909C41.0925 10.2401 41.5293 8.23011 42.4029 6.56108C43.2765 4.88494 44.4661 3.60298 45.9718 2.7152C47.4775 1.82741 49.182 1.38352 51.0854 1.38352C52.2999 1.38352 53.4292 1.55398 54.4732 1.89489C55.5173 2.2358 56.4477 2.73651 57.2644 3.39702C58.0812 4.05043 58.7523 4.85298 59.2779 5.80469C59.8106 6.74929 60.1586 7.82884 60.3219 9.04332ZM71.0349 23.5H63.6414V1.68182H71.1841C73.3502 1.68182 75.211 2.11861 76.7664 2.99219C78.3289 3.85866 79.5292 5.10511 80.3673 6.73153C81.2054 8.35795 81.6244 10.304 81.6244 12.5696C81.6244 14.8423 81.2018 16.7955 80.3566 18.429C79.5186 20.0625 78.3076 21.3161 76.7238 22.1896C75.1471 23.0632 73.2508 23.5 71.0349 23.5ZM67.5939 20.0803H70.8431C72.363 20.0803 73.6308 19.8033 74.6464 19.2493C75.662 18.6882 76.4255 17.8537 76.9369 16.7457C77.4483 15.6307 77.7039 14.2386 77.7039 12.5696C77.7039 10.9006 77.4483 9.51562 76.9369 8.41477C76.4255 7.30682 75.6691 6.4794 74.6677 5.93253C73.6734 5.37855 72.4376 5.10156 70.9603 5.10156H67.5939V20.0803Z" fill="#242424" fillOpacity="0.7"/>
</svg>
