<svg width="14" height="14" viewBox="0 0 14 14" fill="none" xmlns="http://www.w3.org/2000/svg">
<path d="M11.2473 10.6282C11.2879 10.6689 11.3202 10.7171 11.3422 10.7702C11.3642 10.8233 11.3755 10.8803 11.3755 10.9377C11.3755 10.9952 11.3642 11.0522 11.3422 11.1053C11.3202 11.1584 11.2879 11.2066 11.2473 11.2473C11.2066 11.2879 11.1584 11.3202 11.1053 11.3422C11.0522 11.3642 10.9952 11.3755 10.9377 11.3755C10.8803 11.3755 10.8233 11.3642 10.7702 11.3422C10.7171 11.3202 10.6689 11.2879 10.6282 11.2473L7.00024 7.61876L3.37227 11.2473C3.29018 11.3294 3.17884 11.3755 3.06274 11.3755C2.94665 11.3755 2.8353 11.3294 2.75321 11.2473C2.67112 11.1652 2.625 11.0538 2.625 10.9377C2.625 10.8216 2.67112 10.7103 2.75321 10.6282L6.38173 7.00024L2.75321 3.37227C2.67112 3.29018 2.625 3.17884 2.625 3.06274C2.625 2.94665 2.67112 2.8353 2.75321 2.75321C2.8353 2.67112 2.94665 2.625 3.06274 2.625C3.17884 2.625 3.29018 2.67112 3.37227 2.75321L7.00024 6.38173L10.6282 2.75321C10.7103 2.67112 10.8216 2.625 10.9377 2.625C11.0538 2.625 11.1652 2.67112 11.2473 2.75321C11.3294 2.8353 11.3755 2.94665 11.3755 3.06274C11.3755 3.17884 11.3294 3.29018 11.2473 3.37227L7.61876 7.00024L11.2473 10.6282Z" fill="white" fillOpacity="0.8"/>
</svg>
