<svg width="25" height="24" viewBox="0 0 25 24" fill="none" xmlns="http://www.w3.org/2000/svg">
<path d="M5.96899 9.53063L2.96899 6.53063C2.89926 6.46098 2.84394 6.37826 2.80619 6.28721C2.76845 6.19616 2.74902 6.09857 2.74902 6.00001C2.74902 5.90144 2.76845 5.80385 2.80619 5.7128C2.84394 5.62175 2.89926 5.53904 2.96899 5.46938L5.96899 2.46938C6.10972 2.32865 6.30059 2.24959 6.49961 2.24959C6.69864 2.24959 6.88951 2.32865 7.03024 2.46938C7.17097 2.61011 7.25003 2.80098 7.25003 3.00001C7.25003 3.19903 7.17097 3.3899 7.03024 3.53063L4.55993 6.00001L7.03024 8.46938C7.17097 8.61011 7.25003 8.80098 7.25003 9.00001C7.25003 9.19903 7.17097 9.3899 7.03024 9.53063C6.88951 9.67136 6.69864 9.75042 6.49961 9.75042C6.30059 9.75042 6.10972 9.67136 5.96899 9.53063ZM9.71899 9.53063C9.78864 9.60036 9.87136 9.65568 9.96241 9.69343C10.0535 9.73117 10.1511 9.7506 10.2496 9.7506C10.3482 9.7506 10.4458 9.73117 10.5368 9.69343C10.6279 9.65568 10.7106 9.60036 10.7802 9.53063L13.7802 6.53063C13.85 6.46098 13.9053 6.37826 13.943 6.28721C13.9808 6.19616 14.0002 6.09857 14.0002 6.00001C14.0002 5.90144 13.9808 5.80385 13.943 5.7128C13.9053 5.62175 13.85 5.53904 13.7802 5.46938L10.7802 2.46938C10.6395 2.32865 10.4486 2.24959 10.2496 2.24959C10.0506 2.24959 9.85972 2.32865 9.71899 2.46938C9.57826 2.61011 9.4992 2.80098 9.4992 3.00001C9.4992 3.19903 9.57826 3.3899 9.71899 3.53063L12.1893 6.00001L9.71899 8.46938C9.64926 8.53903 9.59394 8.62175 9.55619 8.7128C9.51845 8.80385 9.49902 8.90144 9.49902 9.00001C9.49902 9.09857 9.51845 9.19616 9.55619 9.28721C9.59394 9.37826 9.64926 9.46098 9.71899 9.53063ZM19.2496 3.75001H16.9996C16.8007 3.75001 16.6099 3.82902 16.4693 3.96968C16.3286 4.11033 16.2496 4.30109 16.2496 4.50001C16.2496 4.69892 16.3286 4.88968 16.4693 5.03034C16.6099 5.17099 16.8007 5.25001 16.9996 5.25001H19.2496V18.75H5.74961V12.75C5.74961 12.5511 5.6706 12.3603 5.52994 12.2197C5.38929 12.079 5.19853 12 4.99961 12C4.8007 12 4.60994 12.079 4.46928 12.2197C4.32863 12.3603 4.24961 12.5511 4.24961 12.75V18.75C4.24961 19.1478 4.40765 19.5294 4.68895 19.8107C4.97026 20.092 5.35179 20.25 5.74961 20.25H19.2496C19.6474 20.25 20.029 20.092 20.3103 19.8107C20.5916 19.5294 20.7496 19.1478 20.7496 18.75V5.25001C20.7496 4.85218 20.5916 4.47065 20.3103 4.18934C20.029 3.90804 19.6474 3.75001 19.2496 3.75001Z" fill="#242424" fill-opacity="0.2"/>
</svg>
