<svg width="25" height="25" viewBox="0 0 25 25" fill="none" xmlns="http://www.w3.org/2000/svg">
<path d="M9.24744 7.06245L3.12462 12.5L9.24369 17.9375C9.31756 18.0028 9.37782 18.0821 9.42105 18.1708C9.46428 18.2594 9.48962 18.3558 9.49563 18.4542C9.50164 18.5527 9.48819 18.6513 9.45606 18.7446C9.42393 18.8379 9.37375 18.9239 9.30837 18.9978C9.243 19.0716 9.16372 19.1319 9.07505 19.1751C8.98639 19.2184 8.89007 19.2437 8.79162 19.2497C8.69316 19.2557 8.59448 19.2423 8.50122 19.2101C8.40795 19.178 8.32193 19.1278 8.24806 19.0625L1.49806 13.0625C1.41826 12.9921 1.35434 12.9055 1.31056 12.8085C1.26678 12.7115 1.24414 12.6064 1.24414 12.5C1.24414 12.3935 1.26678 12.2884 1.31056 12.1914C1.35434 12.0944 1.41826 12.0078 1.49806 11.9375L8.24806 5.93745C8.32193 5.87183 8.408 5.8214 8.50136 5.78905C8.59472 5.75669 8.69353 5.74304 8.79216 5.74887C8.8908 5.7547 8.98732 5.77991 9.07621 5.82304C9.1651 5.86617 9.24463 5.92639 9.31025 6.00026C9.37587 6.07413 9.4263 6.1602 9.45865 6.25356C9.49101 6.34692 9.50466 6.44573 9.49883 6.54437C9.493 6.643 9.46779 6.73952 9.42466 6.82841C9.38153 6.9173 9.32131 6.99683 9.24744 7.06245ZM23.4974 11.9375L16.7474 5.93745C16.5983 5.80542 16.4027 5.73807 16.2039 5.7502C16.005 5.76233 15.8192 5.85295 15.6871 6.00214C15.5551 6.15132 15.4877 6.34684 15.4999 6.54569C15.512 6.74454 15.6026 6.93042 15.7518 7.06245L21.8746 12.5L15.7556 17.9375C15.6817 18.0028 15.6214 18.0821 15.5782 18.1708C15.535 18.2594 15.5096 18.3558 15.5036 18.4542C15.4976 18.5527 15.5111 18.6513 15.5432 18.7446C15.5753 18.8379 15.6255 18.9239 15.6909 18.9978C15.7562 19.0716 15.8355 19.1319 15.9242 19.1751C16.0129 19.2184 16.1092 19.2437 16.2076 19.2497C16.3061 19.2557 16.4048 19.2423 16.498 19.2101C16.5913 19.178 16.6773 19.1278 16.7512 19.0625L23.5012 13.0625C23.581 12.9921 23.6449 12.9055 23.6887 12.8085C23.7325 12.7115 23.7551 12.6064 23.7551 12.5C23.7551 12.3935 23.7325 12.2884 23.6887 12.1914C23.6449 12.0944 23.581 12.0078 23.5012 11.9375H23.4974Z" fill="#242424" fillOpacity="0.2"/>
</svg>
