<svg width="12" height="12" viewBox="0 0 12 12" fill="none" xmlns="http://www.w3.org/2000/svg">
<path d="M6 1.125C5.03582 1.125 4.09329 1.41091 3.2916 1.94659C2.48991 2.48226 1.86507 3.24363 1.49609 4.13442C1.12711 5.02521 1.03057 6.00541 1.21867 6.95106C1.40678 7.89672 1.87108 8.76536 2.55286 9.44714C3.23464 10.1289 4.10328 10.5932 5.04894 10.7813C5.99459 10.9694 6.97479 10.8729 7.86558 10.5039C8.75637 10.1349 9.51774 9.51009 10.0534 8.7084C10.5891 7.90671 10.875 6.96418 10.875 6C10.8736 4.70749 10.3596 3.46831 9.44564 2.55436C8.53169 1.64042 7.29251 1.12636 6 1.125ZM8.14031 4.85969L6.26531 6.73469L8.14031 8.60969C8.17516 8.64453 8.20279 8.68589 8.22165 8.73141C8.2405 8.77694 8.25021 8.82573 8.25021 8.875C8.25021 8.92427 8.2405 8.97306 8.22165 9.01859C8.20279 9.06411 8.17516 9.10547 8.14031 9.14031C8.10547 9.17516 8.06411 9.20279 8.01859 9.22165C7.97306 9.2405 7.92427 9.25021 7.875 9.25021C7.82573 9.25021 7.77694 9.2405 7.73141 9.22165C7.68589 9.20279 7.64453 9.17516 7.60969 9.14031L5.73469 7.26531L3.85969 9.14031C3.78932 9.21068 3.69388 9.25021 3.59437 9.25021C3.49487 9.25021 3.39943 9.21068 3.32906 9.14031C3.25869 9.06995 3.21916 8.97451 3.21916 8.875C3.21916 8.77549 3.25869 8.68005 3.32906 8.60969L5.20406 6.73469L3.32906 4.85969C3.25869 4.78932 3.21916 4.69388 3.21916 4.59437C3.21916 4.49487 3.25869 4.39943 3.32906 4.32906C3.39943 4.25869 3.49487 4.21916 3.59437 4.21916C3.69388 4.21916 3.78932 4.25869 3.85969 4.32906L5.73469 6.20406L7.60969 4.32906C7.64453 4.29421 7.68589 4.26658 7.73141 4.24772C7.77694 4.22887 7.82573 4.21916 7.875 4.21916C7.92427 4.21916 7.97306 4.22887 8.01859 4.24772C8.06411 4.26658 8.10547 4.29421 8.14031 4.32906C8.17516 4.36391 8.20279 4.40527 8.22165 4.45079C8.2405 4.49632 8.25021 4.54511 8.25021 4.59437C8.25021 4.64364 8.2405 4.69243 8.22165 4.73796C8.20279 4.78348 8.17516 4.82484 8.14031 4.85969Z" fill="#242424CC"/>
</svg> 