<svg width="78" height="55" viewBox="0 0 78 55" fill="none" xmlns="http://www.w3.org/2000/svg">
<g clipPath="url(#clip0_83_1646)">
<path d="M44.1708 21.7557H52.2133M34.5963 21.7557H42.6388M25.2133 21.7557H33.2559M15.8303 21.7557H23.6814M6.25586 21.7557H14.2984M15.8303 12.9472H23.6814M25.2133 12.9472H33.2559M34.5963 12.9472H42.6388M34.5963 4.13867H42.6388" stroke="#0091e2" strokeWidth="7.2766"/>
<path d="M77.8719 22.1376C77.8719 22.1376 74.4251 18.8822 67.34 20.0312C66.5741 14.478 60.6379 11.2227 60.6379 11.2227C60.6379 11.2227 55.0847 17.9248 59.106 25.3929C57.957 25.9673 56.0422 26.7333 53.1698 26.7333H0.510241C-0.447206 30.3716 -0.447205 54.4993 25.9783 54.4993C44.9358 54.4993 59.106 45.6907 65.8081 29.6056C75.7656 30.3716 77.8719 22.1376 77.8719 22.1376Z" fill="#0091e2" />
</g>
<defs>
<clipPath id="clip0_83_1646">
<rect width="77.7447" height="54" fill="white" transform="translate(0.12793 0.5)"/>
</clipPath>
</defs>
</svg>
