<svg width="25" height="25" viewBox="0 0 25 25" fill="none" xmlns="http://www.w3.org/2000/svg">
<path d="M17.7501 12.5C17.7553 15.5305 17.1647 18.5324 16.012 21.335C15.9561 21.4733 15.8602 21.5917 15.7366 21.6752C15.6131 21.7587 15.4674 21.8035 15.3183 21.8038C15.2218 21.8028 15.1264 21.7838 15.037 21.7475C14.9458 21.7101 14.8628 21.655 14.7929 21.5855C14.723 21.516 14.6675 21.4334 14.6295 21.3424C14.5915 21.2514 14.5719 21.1538 14.5717 21.0552C14.5715 20.9566 14.5907 20.859 14.6283 20.7678C15.7057 18.1449 16.2568 15.3356 16.2501 12.5C16.2501 12.3011 16.3291 12.1103 16.4698 11.9697C16.6104 11.829 16.8012 11.75 17.0001 11.75C17.199 11.75 17.3898 11.829 17.5305 11.9697C17.6711 12.1103 17.7501 12.3011 17.7501 12.5ZM12.5001 8.75001C13.0276 8.75038 13.5491 8.86185 14.0306 9.07717C14.5121 9.29249 14.9429 9.60682 15.2948 9.99969C15.36 10.0749 15.4395 10.1363 15.5286 10.1805C15.6178 10.2247 15.7148 10.2506 15.8141 10.2569C15.9134 10.2632 16.013 10.2497 16.107 10.2171C16.201 10.1845 16.2876 10.1336 16.3617 10.0672C16.4359 10.0009 16.4961 9.92044 16.5388 9.83059C16.5815 9.74074 16.606 9.64329 16.6107 9.54391C16.6154 9.44452 16.6003 9.3452 16.5662 9.25171C16.5322 9.15823 16.4798 9.07245 16.4123 8.99938C15.7034 8.20718 14.7706 7.64887 13.7375 7.39832C12.7043 7.14776 11.6194 7.21676 10.6264 7.59619C9.63327 7.97562 8.77877 8.6476 8.17591 9.52324C7.57304 10.3989 7.25021 11.4369 7.25013 12.5C7.25003 14.6596 6.70165 16.7837 5.65638 18.6734C5.60861 18.7596 5.57828 18.8544 5.56713 18.9523C5.55598 19.0502 5.56422 19.1493 5.59138 19.244C5.61854 19.3387 5.66409 19.4272 5.72543 19.5043C5.78677 19.5814 5.8627 19.6457 5.94888 19.6934C6.03506 19.7412 6.1298 19.7715 6.2277 19.7827C6.3256 19.7938 6.42474 19.7856 6.51946 19.7584C6.61417 19.7313 6.70261 19.6857 6.77972 19.6244C6.85683 19.5631 6.92111 19.4871 6.96888 19.4009C8.13704 17.2884 8.74992 14.914 8.75013 12.5C8.75013 11.5054 9.14522 10.5516 9.84848 9.84836C10.5517 9.1451 11.5056 8.75001 12.5001 8.75001ZM12.5001 2.75001C11.393 2.74867 10.2938 2.93637 9.24982 3.30501C9.06562 3.37387 8.91585 3.51232 8.83274 3.69055C8.74963 3.86877 8.73985 4.0725 8.80549 4.25786C8.87113 4.44323 9.00694 4.5954 9.18369 4.68161C9.36043 4.76781 9.56396 4.78115 9.75044 4.71876C10.995 4.27991 12.3267 4.14586 13.6338 4.32785C14.9409 4.50983 16.1853 5.00256 17.2626 5.7647C18.34 6.52684 19.2189 7.53618 19.8258 8.70809C20.4326 9.88 20.7495 11.1803 20.7501 12.5C20.751 14.4628 20.5328 16.4197 20.0995 18.3341C20.0555 18.5276 20.0899 18.7307 20.1954 18.8989C20.3008 19.0671 20.4686 19.1866 20.662 19.2313C20.7167 19.2439 20.7727 19.2502 20.8289 19.25C20.9989 19.25 21.1639 19.1921 21.2968 19.086C21.4296 18.9799 21.5225 18.8318 21.5601 18.6659C22.0183 16.6426 22.2497 14.5746 22.2501 12.5C22.2474 9.91498 21.2193 7.43662 19.3914 5.60873C17.5635 3.78084 15.0852 2.75274 12.5001 2.75001ZM7.00075 6.35188C7.07419 6.2862 7.13397 6.2067 7.17668 6.11791C7.2194 6.02913 7.2442 5.9328 7.24969 5.83443C7.25517 5.73605 7.24123 5.63757 7.20865 5.54458C7.17607 5.4516 7.1255 5.36594 7.05982 5.29251C6.99413 5.21907 6.91463 5.15929 6.82585 5.11658C6.73706 5.07386 6.64073 5.04906 6.54236 5.04357C6.44399 5.03809 6.3455 5.05203 6.25252 5.08461C6.15953 5.11719 6.07388 5.16776 6.00044 5.23344C4.97873 6.14847 4.16124 7.26847 3.60122 8.52049C3.0412 9.7725 2.7512 11.1285 2.75013 12.5C2.75223 13.6865 2.49631 14.8592 2.00013 15.9369C1.95901 16.0264 1.93592 16.1231 1.93218 16.2215C1.92844 16.32 1.94413 16.4182 1.97834 16.5105C2.04744 16.6971 2.1878 16.8485 2.36857 16.9316C2.54933 17.0146 2.75568 17.0225 2.94222 16.9534C3.12876 16.8843 3.28021 16.7439 3.36325 16.5631C3.95 15.2891 4.25262 13.9027 4.25013 12.5C4.25112 11.3395 4.49658 10.1922 4.9705 9.13293C5.44443 8.07362 6.1362 7.12603 7.00075 6.35188ZM11.1801 19.3194C11.0906 19.2783 10.9939 19.2552 10.8955 19.2514C10.797 19.2477 10.6988 19.2634 10.6065 19.2976C10.5141 19.3318 10.4294 19.3839 10.3571 19.4508C10.2849 19.5178 10.2266 19.5983 10.1854 19.6878C10.0054 20.0816 9.81044 20.4744 9.59575 20.8541C9.5478 20.9403 9.51732 21.0351 9.50607 21.1331C9.49481 21.2311 9.50301 21.3304 9.53018 21.4252C9.55735 21.5201 9.60296 21.6086 9.66441 21.6858C9.72585 21.763 9.80192 21.8273 9.88825 21.875C9.99912 21.9369 10.1241 21.9692 10.2511 21.9688C10.385 21.9688 10.5165 21.933 10.6319 21.8651C10.7473 21.7972 10.8424 21.6996 10.9073 21.5825C11.1361 21.1691 11.3517 20.7388 11.5486 20.315C11.5898 20.2255 11.613 20.1286 11.6169 20.0301C11.6207 19.9316 11.605 19.8333 11.5708 19.7408C11.5366 19.6483 11.4845 19.5635 11.4174 19.4912C11.3504 19.4189 11.2698 19.3605 11.1801 19.3194ZM12.5001 11.75C12.3012 11.75 12.1104 11.829 11.9698 11.9697C11.8291 12.1103 11.7501 12.3011 11.7501 12.5C11.7507 13.9546 11.5683 15.4034 11.2073 16.8125C11.1578 17.0051 11.1867 17.2094 11.2878 17.3807C11.3889 17.5519 11.5538 17.676 11.7464 17.7256C11.8077 17.7412 11.8706 17.7491 11.9339 17.7491C12.1001 17.7489 12.2615 17.6936 12.3928 17.5918C12.5242 17.49 12.618 17.3475 12.6595 17.1866C13.0526 15.6551 13.251 14.0802 13.2501 12.4991C13.2499 12.3003 13.1708 12.1098 13.0301 11.9693C12.8895 11.8289 12.6989 11.75 12.5001 11.75Z" fill="#242424" fill-opacity="0.2"/>
</svg>
