<svg width="24" height="24" viewBox="0 0 24 24" fill="none" xmlns="http://www.w3.org/2000/svg">
<path d="M23.0307 6.9693L20.0307 3.9693C19.89 3.82857 19.6991 3.74951 19.5001 3.74951C19.3011 3.74951 19.1102 3.82857 18.9695 3.9693C18.8287 4.11003 18.7497 4.30091 18.7497 4.49993C18.7497 4.69895 18.8287 4.88982 18.9695 5.03055L20.6898 6.74993H19.5001C14.8754 6.74993 13.7767 9.38618 12.8082 11.7112C11.9288 13.8215 11.222 15.5165 8.16947 15.7274C7.97792 14.8181 7.45554 14.0122 6.70361 13.4662C5.95168 12.9201 5.02377 12.6726 4.09977 12.7718C3.17577 12.871 2.32152 13.3097 1.70262 14.003C1.08372 14.6962 0.744265 15.5945 0.750073 16.5238C0.755881 17.4531 1.10653 18.3471 1.73405 19.0326C2.36157 19.718 3.22124 20.1461 4.14641 20.2337C5.07158 20.3213 5.99632 20.0623 6.74137 19.5068C7.48641 18.9514 7.99868 18.1391 8.17885 17.2274C12.2345 16.979 13.2732 14.4946 14.192 12.2877C15.1323 10.0312 15.8748 8.24993 19.5001 8.24993H20.6898L18.9695 9.9693C18.8287 10.11 18.7497 10.3009 18.7497 10.4999C18.7497 10.699 18.8287 10.8898 18.9695 11.0306C19.1102 11.1713 19.3011 11.2503 19.5001 11.2503C19.6991 11.2503 19.89 11.1713 20.0307 11.0306L23.0307 8.03055C23.1005 7.9609 23.1558 7.87818 23.1935 7.78713C23.2313 7.69609 23.2507 7.59849 23.2507 7.49993C23.2507 7.40137 23.2313 7.30377 23.1935 7.21272C23.1558 7.12168 23.1005 7.03896 23.0307 6.9693ZM4.5001 18.7499C4.05509 18.7499 3.62007 18.618 3.25006 18.3707C2.88005 18.1235 2.59167 17.7721 2.42137 17.361C2.25107 16.9498 2.20651 16.4974 2.29333 16.061C2.38015 15.6245 2.59444 15.2236 2.90911 14.9089C3.22378 14.5943 3.62469 14.38 4.06114 14.2932C4.4976 14.2063 4.95 14.2509 5.36114 14.4212C5.77227 14.5915 6.12367 14.8799 6.3709 15.2499C6.61814 15.6199 6.7501 16.0549 6.7501 16.4999C6.7501 17.0967 6.51304 17.669 6.09109 18.0909C5.66913 18.5129 5.09683 18.7499 4.5001 18.7499Z" fill="#242424" fillOpacity="0.2"/>
</svg>
