<svg width="17" height="16" viewBox="0 0 17 16" fill="none" xmlns="http://www.w3.org/2000/svg">
<path d="M14.5 3.99997C14.4998 3.62594 14.3947 3.25947 14.1967 2.94216C13.9987 2.62485 13.7157 2.36942 13.3798 2.20489C13.0439 2.04035 12.6686 1.9733 12.2965 2.01135C11.9245 2.0494 11.5705 2.19103 11.2749 2.42015C10.9792 2.64926 10.7538 2.95669 10.6241 3.30751C10.4944 3.65833 10.4657 4.03849 10.5412 4.40481C10.6167 4.77113 10.7935 5.10893 11.0513 5.37986C11.3092 5.65078 11.6379 5.84396 12 5.93747V6.99997C12 7.13258 11.9473 7.25975 11.8536 7.35352C11.7598 7.44729 11.6326 7.49997 11.5 7.49997H5.5C5.3674 7.49997 5.24022 7.44729 5.14645 7.35352C5.05268 7.25975 5 7.13258 5 6.99997V5.93747C5.47133 5.81577 5.8821 5.52635 6.15531 5.12346C6.42851 4.72058 6.5454 4.23188 6.48406 3.74897C6.42273 3.26606 6.18737 2.8221 5.82212 2.50031C5.45687 2.17851 4.98679 2.00098 4.5 2.00098C4.01322 2.00098 3.54314 2.17851 3.17789 2.50031C2.81264 2.8221 2.57728 3.26606 2.51595 3.74897C2.45461 4.23188 2.5715 4.72058 2.8447 5.12346C3.11791 5.52635 3.52868 5.81577 4 5.93747V6.99997C4 7.39779 4.15804 7.77932 4.43934 8.06063C4.72065 8.34193 5.10218 8.49997 5.5 8.49997H8V10.0625C7.52868 10.1842 7.11791 10.4736 6.8447 10.8765C6.5715 11.2794 6.45461 11.7681 6.51595 12.251C6.57728 12.7339 6.81264 13.1778 7.17789 13.4996C7.54314 13.8214 8.01322 13.999 8.5 13.999C8.98679 13.999 9.45687 13.8214 9.82212 13.4996C10.1874 13.1778 10.4227 12.7339 10.4841 12.251C10.5454 11.7681 10.4285 11.2794 10.1553 10.8765C9.8821 10.4736 9.47133 10.1842 9 10.0625V8.49997H11.5C11.8978 8.49997 12.2794 8.34193 12.5607 8.06063C12.842 7.77932 13 7.39779 13 6.99997V5.93747C13.4292 5.826 13.8092 5.57532 14.0807 5.22472C14.3521 4.87411 14.4996 4.44337 14.5 3.99997ZM3.5 3.99997C3.5 3.80219 3.55865 3.60885 3.66854 3.4444C3.77842 3.27995 3.9346 3.15178 4.11732 3.07609C4.30005 3.0004 4.50111 2.9806 4.6951 3.01918C4.88908 3.05777 5.06726 3.15301 5.20711 3.29286C5.34696 3.43271 5.4422 3.6109 5.48079 3.80488C5.51938 3.99886 5.49957 4.19993 5.42388 4.38265C5.3482 4.56538 5.22002 4.72156 5.05557 4.83144C4.89113 4.94132 4.69779 4.99997 4.5 4.99997C4.23479 4.99997 3.98043 4.89461 3.7929 4.70708C3.60536 4.51954 3.5 4.26519 3.5 3.99997ZM9.5 12C9.5 12.1977 9.44136 12.3911 9.33147 12.5555C9.22159 12.72 9.06541 12.8482 8.88269 12.9238C8.69996 12.9995 8.4989 13.0193 8.30491 12.9808C8.11093 12.9422 7.93275 12.8469 7.7929 12.7071C7.65305 12.5672 7.5578 12.389 7.51922 12.1951C7.48063 12.0011 7.50044 11.8 7.57613 11.6173C7.65181 11.4346 7.77999 11.2784 7.94443 11.1685C8.10888 11.0586 8.30222 11 8.5 11C8.76522 11 9.01958 11.1053 9.20711 11.2929C9.39465 11.4804 9.5 11.7348 9.5 12ZM12.5 4.99997C12.3022 4.99997 12.1089 4.94132 11.9444 4.83144C11.78 4.72156 11.6518 4.56538 11.5761 4.38265C11.5004 4.19993 11.4806 3.99886 11.5192 3.80488C11.5578 3.6109 11.653 3.43271 11.7929 3.29286C11.9328 3.15301 12.1109 3.05777 12.3049 3.01918C12.4989 2.9806 12.7 3.0004 12.8827 3.07609C13.0654 3.15178 13.2216 3.27995 13.3315 3.4444C13.4414 3.60885 13.5 3.80219 13.5 3.99997C13.5 4.26519 13.3946 4.51954 13.2071 4.70708C13.0196 4.89461 12.7652 4.99997 12.5 4.99997Z" fill="#242424" fillOpacity="0.6"/>
</svg>
