<svg width="24" height="24" viewBox="0 0 24 24" fill="none" xmlns="http://www.w3.org/2000/svg">
<path d="M21.75 6.00005C21.7497 5.43901 21.5921 4.88929 21.2951 4.41333C20.9981 3.93736 20.5736 3.55422 20.0697 3.30742C19.5659 3.06062 19.0029 2.96005 18.4448 3.01712C17.8867 3.0742 17.3557 3.28664 16.9123 3.63031C16.4688 3.97399 16.1306 4.43513 15.9361 4.96136C15.7416 5.48759 15.6985 6.05783 15.8118 6.60731C15.9251 7.15679 16.1902 7.66349 16.577 8.06988C16.9638 8.47626 17.4568 8.76604 18 8.9063V10.5C18 10.699 17.921 10.8897 17.7803 11.0304C17.6397 11.171 17.4489 11.25 17.25 11.25H9.00001C8.74445 11.25 8.49077 11.2937 8.25001 11.3794V8.9063C8.957 8.72375 9.57315 8.28962 9.98296 7.68529C10.3928 7.08096 10.5681 6.34791 10.4761 5.62355C10.3841 4.89918 10.0311 4.23325 9.48318 3.75055C8.9353 3.26786 8.23019 3.00156 7.50001 3.00156C6.76983 3.00156 6.06471 3.26786 5.51683 3.75055C4.96895 4.23325 4.61592 4.89918 4.52392 5.62355C4.43191 6.34791 4.60725 7.08096 5.01706 7.68529C5.42687 8.28962 6.04301 8.72375 6.75001 8.9063V15.0938C6.04301 15.2763 5.42687 15.7105 5.01706 16.3148C4.60725 16.9191 4.43191 17.6522 4.52392 18.3765C4.61592 19.1009 4.96895 19.7668 5.51683 20.2495C6.06471 20.7322 6.76983 20.9985 7.50001 20.9985C8.23019 20.9985 8.9353 20.7322 9.48318 20.2495C10.0311 19.7668 10.3841 19.1009 10.4761 18.3765C10.5681 17.6522 10.3928 16.9191 9.98296 16.3148C9.57315 15.7105 8.957 15.2763 8.25001 15.0938V13.5C8.25001 13.3011 8.32903 13.1104 8.46968 12.9697C8.61033 12.8291 8.8011 12.75 9.00001 12.75H17.25C17.8467 12.75 18.419 12.513 18.841 12.091C19.263 11.6691 19.5 11.0968 19.5 10.5V8.9063C20.1437 8.73909 20.7138 8.36308 21.121 7.83717C21.5282 7.31126 21.7494 6.66515 21.75 6.00005ZM6.00001 6.00005C6.00001 5.70337 6.08798 5.41336 6.2528 5.16669C6.41762 4.92002 6.65189 4.72776 6.92598 4.61423C7.20007 4.50069 7.50167 4.47099 7.79264 4.52887C8.08361 4.58675 8.35089 4.72961 8.56067 4.93939C8.77045 5.14916 8.91331 5.41644 8.97119 5.70741C9.02906 5.99838 8.99936 6.29998 8.88583 6.57407C8.77229 6.84816 8.58004 7.08243 8.33336 7.24725C8.08669 7.41207 7.79668 7.50005 7.50001 7.50005C7.10218 7.50005 6.72065 7.34201 6.43935 7.06071C6.15804 6.7794 6.00001 6.39787 6.00001 6.00005ZM9.00001 18C9.00001 18.2967 8.91203 18.5867 8.74721 18.8334C8.58239 19.0801 8.34812 19.2723 8.07403 19.3859C7.79994 19.4994 7.49834 19.5291 7.20737 19.4712C6.9164 19.4133 6.64913 19.2705 6.43935 19.0607C6.22957 18.8509 6.08671 18.5837 6.02883 18.2927C5.97095 18.0017 6.00066 17.7001 6.11419 17.426C6.22772 17.1519 6.41998 16.9177 6.66665 16.7528C6.91333 16.588 7.20334 16.5 7.50001 16.5C7.89783 16.5 8.27936 16.6581 8.56067 16.9394C8.84197 17.2207 9.00001 17.6022 9.00001 18ZM18.75 7.50005C18.4533 7.50005 18.1633 7.41207 17.9167 7.24725C17.67 7.08243 17.4777 6.84816 17.3642 6.57407C17.2507 6.29998 17.221 5.99838 17.2788 5.70741C17.3367 5.41644 17.4796 5.14916 17.6893 4.93939C17.8991 4.72961 18.1664 4.58675 18.4574 4.52887C18.7483 4.47099 19.0499 4.50069 19.324 4.61423C19.5981 4.72776 19.8324 4.92002 19.9972 5.16669C20.162 5.41336 20.25 5.70337 20.25 6.00005C20.25 6.39787 20.092 6.7794 19.8107 7.06071C19.5294 7.34201 19.1478 7.50005 18.75 7.50005Z" fill="#242424" fillOpacity="0.2"/>
</svg>
