<svg width="18" height="19" viewBox="0 0 18 19" fill="none" xmlns="http://www.w3.org/2000/svg">
<path d="M9 2.35449C7.55373 2.35449 6.13993 2.78336 4.9374 3.58687C3.73486 4.39038 2.7976 5.53243 2.24413 6.86862C1.69067 8.2048 1.54586 9.6751 1.82801 11.0936C2.11017 12.5121 2.80661 13.815 3.82928 14.8377C4.85196 15.8604 6.15492 16.5568 7.57341 16.839C8.99189 17.1211 10.4622 16.9763 11.7984 16.4229C13.1346 15.8694 14.2766 14.9321 15.0801 13.7296C15.8836 12.5271 16.3125 11.1133 16.3125 9.66699C16.3103 7.72828 15.5391 5.86962 14.1683 4.49874C12.7974 3.12786 10.9387 2.35673 9 2.35449ZM15.1608 9.10449H12.3602C12.2344 6.53738 11.2458 4.72191 10.4351 3.64824C11.6939 3.95053 12.8265 4.6392 13.6741 5.61771C14.5217 6.59621 15.0418 7.81546 15.1615 9.10449H15.1608ZM6.76618 10.2295H11.2338C11.0714 13.1552 9.67078 14.9482 9 15.6436C8.32852 14.9475 6.9286 13.1545 6.76618 10.2295ZM6.76618 9.10449C6.9286 6.17879 8.32922 4.38582 9 3.69043C9.67149 4.38863 11.0714 6.1816 11.2338 9.10449H6.76618ZM7.56492 3.64824C6.75422 4.72191 5.76563 6.53738 5.63977 9.10449H2.83852C2.95819 7.81546 3.4783 6.59621 4.32591 5.61771C5.17353 4.6392 6.30614 3.95053 7.56492 3.64824ZM2.83852 10.2295H5.63977C5.76774 12.7966 6.75422 14.6121 7.56492 15.6857C6.30614 15.3835 5.17353 14.6948 4.32591 13.7163C3.4783 12.7378 2.95819 11.5185 2.83852 10.2295ZM10.4323 15.6857C11.243 14.6121 12.2295 12.7966 12.3574 10.2295H15.1587C15.0392 11.5182 14.5195 12.7371 13.6724 13.7156C12.8253 14.694 11.6933 15.3829 10.4351 15.6857H10.4323Z" fill="#F05023"/>
</svg>
