<svg width="18" height="19" viewBox="0 0 18 19" fill="none" xmlns="http://www.w3.org/2000/svg">
<path d="M14.0624 11.0205C13.5652 11.0202 13.0821 11.1855 12.6892 11.4902L11.0643 10.2246C11.1869 9.94335 11.2501 9.63981 11.2499 9.333C11.2499 9.28097 11.2499 9.22894 11.2443 9.17761L12.1745 8.86753C12.4688 9.32143 12.9168 9.6541 13.4364 9.80461C13.956 9.95512 14.5124 9.91339 15.0037 9.68707C15.4951 9.46074 15.8884 9.06498 16.1117 8.57226C16.335 8.07955 16.3734 7.52287 16.2197 7.00421C16.066 6.48554 15.7306 6.03961 15.2749 5.7481C14.8192 5.45658 14.2737 5.33901 13.7384 5.4169C13.2031 5.49479 12.7138 5.76294 12.36 6.17223C12.0063 6.58152 11.8119 7.10454 11.8124 7.6455C11.8124 7.69753 11.8124 7.74956 11.818 7.80089L10.8878 8.11097C10.6839 7.79571 10.4043 7.5365 10.0745 7.35695C9.74479 7.1774 9.37535 7.08322 8.99989 7.083C8.87574 7.08326 8.75181 7.0936 8.62934 7.11394L8.1484 6.02831C8.56368 5.6965 8.84807 5.22838 8.95117 4.70692C9.05427 4.18545 8.96942 3.64433 8.71166 3.17945C8.4539 2.71457 8.03988 2.35596 7.54297 2.16718C7.04606 1.9784 6.49837 1.97165 5.99695 2.14811C5.49554 2.32458 5.0728 2.67286 4.80365 3.13124C4.5345 3.58962 4.43633 4.12849 4.52654 4.65234C4.61674 5.17619 4.8895 5.65118 5.29647 5.99314C5.70344 6.33509 6.21833 6.52191 6.74989 6.5205C6.87404 6.52024 6.99796 6.5099 7.12043 6.48956L7.60137 7.57237C7.19353 7.89517 6.91046 8.34959 6.80055 8.85797C6.69064 9.36635 6.76072 9.89712 6.99879 10.3596L5.19106 11.9655C4.73612 11.6588 4.18495 11.5286 3.64086 11.5992C3.09676 11.6698 2.5971 11.9364 2.23552 12.3491C1.87394 12.7617 1.67528 13.2921 1.67677 13.8408C1.67825 14.3894 1.87979 14.9187 2.24359 15.3294C2.6074 15.7401 3.1085 16.004 3.65298 16.0717C4.19745 16.1393 4.7479 16.0061 5.20117 15.6969C5.65443 15.3878 5.97939 14.9239 6.11512 14.3923C6.25086 13.8607 6.18805 13.2979 5.93848 12.8093L7.74621 11.2033C8.13762 11.4669 8.60216 11.6003 9.07376 11.5846C9.54536 11.569 10 11.405 10.3731 11.1161L11.998 12.3818C11.8757 12.6621 11.8125 12.9646 11.8124 13.2705C11.8124 13.7155 11.9443 14.1505 12.1916 14.5205C12.4388 14.8905 12.7902 15.1789 13.2014 15.3492C13.6125 15.5195 14.0649 15.5641 14.5013 15.4773C14.9378 15.3905 15.3387 15.1762 15.6534 14.8615C15.968 14.5468 16.1823 14.1459 16.2692 13.7095C16.356 13.273 16.3114 12.8206 16.1411 12.4095C15.9708 11.9983 15.6824 11.6469 15.3124 11.3997C14.9424 11.1525 14.5074 11.0205 14.0624 11.0205ZM14.0624 6.5205C14.2849 6.5205 14.5024 6.58648 14.6874 6.7101C14.8724 6.83371 15.0166 7.00941 15.1018 7.21498C15.1869 7.42055 15.2092 7.64675 15.1658 7.86498C15.1224 8.0832 15.0152 8.28366 14.8579 8.44099C14.7005 8.59833 14.5001 8.70547 14.2819 8.74888C14.0636 8.79229 13.8374 8.77001 13.6319 8.68486C13.4263 8.59972 13.2506 8.45552 13.127 8.27052C13.0034 8.08551 12.9374 7.868 12.9374 7.6455C12.9374 7.34713 13.0559 7.06098 13.2669 6.85C13.4779 6.63903 13.764 6.5205 14.0624 6.5205ZM5.62489 4.2705C5.62489 4.048 5.69087 3.83049 5.81448 3.64548C5.9381 3.46048 6.1138 3.31628 6.31937 3.23114C6.52494 3.14599 6.75113 3.12371 6.96936 3.16712C7.18759 3.21052 7.38805 3.31767 7.54538 3.475C7.70272 3.63234 7.80986 3.83279 7.85327 4.05102C7.89668 4.26925 7.8744 4.49545 7.78925 4.70102C7.7041 4.90659 7.55991 5.08229 7.3749 5.2059C7.1899 5.32952 6.97239 5.3955 6.74989 5.3955C6.45152 5.3955 6.16537 5.27697 5.95439 5.06599C5.74341 4.85502 5.62489 4.56887 5.62489 4.2705ZM3.93739 14.958C3.71488 14.958 3.49738 14.892 3.31237 14.7684C3.12737 14.6448 2.98317 14.4691 2.89802 14.2635C2.81287 14.058 2.79059 13.8318 2.834 13.6135C2.87741 13.3953 2.98456 13.1948 3.14189 13.0375C3.29923 12.8802 3.49968 12.773 3.71791 12.7296C3.93614 12.6862 4.16234 12.7085 4.36791 12.7936C4.57347 12.8788 4.74917 13.023 4.87279 13.208C4.99641 13.393 5.06239 13.6105 5.06239 13.833C5.06239 14.1314 4.94386 14.4175 4.73288 14.6285C4.5219 14.8395 4.23576 14.958 3.93739 14.958ZM7.87489 9.333C7.87489 9.1105 7.94087 8.89299 8.06448 8.70798C8.1881 8.52298 8.3638 8.37878 8.56937 8.29364C8.77494 8.20849 9.00113 8.18621 9.21936 8.22962C9.43759 8.27302 9.63805 8.38017 9.79538 8.5375C9.95272 8.69484 10.0599 8.89529 10.1033 9.11352C10.1467 9.33175 10.1244 9.55795 10.0393 9.76352C9.9541 9.96909 9.80991 10.1448 9.6249 10.2684C9.4399 10.392 9.22239 10.458 8.99989 10.458C8.70152 10.458 8.41537 10.3395 8.20439 10.1285C7.99341 9.91752 7.87489 9.63137 7.87489 9.333ZM14.0624 14.3955C13.8399 14.3955 13.6224 14.3295 13.4374 14.2059C13.2524 14.0823 13.1082 13.9066 13.023 13.701C12.9379 13.4955 12.9156 13.2693 12.959 13.051C13.0024 12.8328 13.1096 12.6323 13.2669 12.475C13.4242 12.3177 13.6247 12.2105 13.8429 12.1671C14.0611 12.1237 14.2873 12.146 14.4929 12.2311C14.6985 12.3163 14.8742 12.4605 14.9978 12.6455C15.1214 12.8305 15.1874 13.048 15.1874 13.2705C15.1874 13.5689 15.0689 13.855 14.8579 14.066C14.6469 14.277 14.3608 14.3955 14.0624 14.3955Z" fill="#F05023"/>
</svg>
