<svg width="24" height="24" viewBox="0 0 24 24" fill="none" xmlns="http://www.w3.org/2000/svg">
<path d="M21 8.25001H16.4437L17.2378 3.88407C17.2697 3.68995 17.2241 3.49107 17.1107 3.33029C16.9974 3.16951 16.8254 3.05971 16.6318 3.02454C16.4383 2.98937 16.2386 3.03165 16.076 3.14228C15.9133 3.25291 15.8006 3.42302 15.7622 3.61595L14.9184 8.25001H10.4438L11.2378 3.88407C11.2697 3.68995 11.2241 3.49107 11.1107 3.33029C10.9974 3.16951 10.8254 3.05971 10.6318 3.02454C10.4383 2.98937 10.2386 3.03165 10.076 3.14228C9.91331 3.25291 9.80062 3.42302 9.76219 3.61595L8.91937 8.25001H4.5C4.30109 8.25001 4.11032 8.32903 3.96967 8.46968C3.82902 8.61033 3.75 8.8011 3.75 9.00001C3.75 9.19892 3.82902 9.38969 3.96967 9.53034C4.11032 9.67099 4.30109 9.75001 4.5 9.75001H8.64656L7.82812 14.25H3C2.80109 14.25 2.61032 14.329 2.46967 14.4697C2.32902 14.6103 2.25 14.8011 2.25 15C2.25 15.1989 2.32902 15.3897 2.46967 15.5303C2.61032 15.671 2.80109 15.75 3 15.75H7.55625L6.76219 20.1159C6.72666 20.3116 6.77031 20.5134 6.88353 20.6769C6.99675 20.8404 7.17027 20.9522 7.36594 20.9878C7.41015 20.996 7.45503 21.0001 7.5 21C7.67548 20.9998 7.84532 20.938 7.97996 20.8255C8.11459 20.7129 8.20551 20.5567 8.23688 20.3841L9.08063 15.75H13.5563L12.7622 20.1159C12.7267 20.3116 12.7703 20.5134 12.8835 20.6769C12.9967 20.8404 13.1703 20.9522 13.3659 20.9878C13.4102 20.996 13.455 21.0001 13.5 21C13.6755 20.9998 13.8453 20.938 13.98 20.8255C14.1146 20.7129 14.2055 20.5567 14.2369 20.3841L15.0806 15.75H19.5C19.6989 15.75 19.8897 15.671 20.0303 15.5303C20.171 15.3897 20.25 15.1989 20.25 15C20.25 14.8011 20.171 14.6103 20.0303 14.4697C19.8897 14.329 19.6989 14.25 19.5 14.25H15.3534L16.1719 9.75001H21C21.1989 9.75001 21.3897 9.67099 21.5303 9.53034C21.671 9.38969 21.75 9.19892 21.75 9.00001C21.75 8.8011 21.671 8.61033 21.5303 8.46968C21.3897 8.32903 21.1989 8.25001 21 8.25001ZM13.8281 14.25H9.35344L10.1719 9.75001H14.6466L13.8281 14.25Z" fill="#242424" fill-opacity="0.2"/>
</svg>
