<svg width="13" height="12" viewBox="0 0 13 12" fill="none" xmlns="http://www.w3.org/2000/svg">
<path d="M11.375 5.99984V8.62484C11.375 8.92321 11.2565 9.20936 11.0455 9.42034C10.8345 9.63132 10.5484 9.74984 10.25 9.74984H9.5C9.20163 9.74984 8.91548 9.63132 8.7045 9.42034C8.49353 9.20936 8.375 8.92321 8.375 8.62484V6.74984C8.375 6.45148 8.49353 6.16533 8.7045 5.95435C8.91548 5.74337 9.20163 5.62484 9.5 5.62484H10.6086C10.5185 4.60395 10.0504 3.65351 9.296 2.95981C8.5416 2.26611 7.55532 1.87917 6.53047 1.87485H6.5C5.47086 1.87479 4.47888 2.25944 3.7188 2.95326C2.95871 3.64708 2.48543 4.59997 2.39187 5.62484H3.5C3.79837 5.62484 4.08452 5.74337 4.2955 5.95435C4.50647 6.16533 4.625 6.45148 4.625 6.74984V8.62484C4.625 8.92321 4.50647 9.20936 4.2955 9.42034C4.08452 9.63132 3.79837 9.74984 3.5 9.74984H2.75C2.45163 9.74984 2.16548 9.63132 1.9545 9.42034C1.74353 9.20936 1.625 8.92321 1.625 8.62484V5.99984C1.62605 5.03417 1.91357 4.09052 2.45117 3.28833C2.98877 2.48614 3.75228 1.86147 4.64506 1.4934C5.53783 1.12533 6.51974 1.0304 7.46649 1.22063C8.41324 1.41085 9.28228 1.87768 9.96359 2.56203C10.4134 3.01405 10.7696 3.55039 11.0118 4.14031C11.254 4.73023 11.3774 5.36214 11.375 5.99984Z" fill="#F05023"/>
</svg>
