<svg width="12" height="12" viewBox="0 0 12 12" fill="none" xmlns="http://www.w3.org/2000/svg">
<path d="M10.1154 5.5392C10.1012 5.4791 10.0724 5.42343 10.0315 5.37715C9.99062 5.33086 9.93893 5.29539 9.88104 5.27389L7.18057 4.26092L7.86776 0.823577C7.88332 0.743712 7.87248 0.660952 7.83688 0.587787C7.80128 0.514622 7.74285 0.455021 7.6704 0.417978C7.59796 0.380934 7.51543 0.368459 7.43527 0.382435C7.35511 0.39641 7.28168 0.436078 7.22604 0.495452L1.97604 6.12045C1.9334 6.16538 1.90255 6.22017 1.88626 6.27993C1.86996 6.33969 1.86872 6.40256 1.88265 6.46292C1.89658 6.52327 1.92524 6.57924 1.96608 6.62582C2.00691 6.67239 2.05865 6.70813 2.11667 6.72983L4.81807 7.7428L4.13276 11.1764C4.1172 11.2563 4.12804 11.339 4.16364 11.4122C4.19924 11.4853 4.25767 11.5449 4.33012 11.582C4.40256 11.619 4.48509 11.6315 4.56525 11.6175C4.64541 11.6036 4.71884 11.5639 4.77448 11.5045L10.0245 5.87952C10.0663 5.83458 10.0965 5.78004 10.1124 5.7207C10.1282 5.66136 10.1293 5.59904 10.1154 5.5392ZM5.12698 10.0312L5.61776 7.57592C5.63532 7.48884 5.62141 7.39836 5.57848 7.32058C5.53556 7.2428 5.46642 7.18279 5.38338 7.15123L2.90651 6.22077L6.87307 1.97108L6.38276 4.42639C6.36519 4.51347 6.37911 4.60396 6.42204 4.68173C6.46496 4.75951 6.5341 4.81952 6.61714 4.85108L9.09214 5.7792L5.12698 10.0312Z" fill="#FA341A"/>
</svg>
