<svg width="49" height="48" viewBox="0 0 49 48" fill="none" xmlns="http://www.w3.org/2000/svg">
<g clipPath="url(#clip0_83_1904)">
<path fillRule="evenodd" clipRule="evenodd" d="M5.83333 48H43.1667C46.1122 48 48.5 45.6122 48.5 42.6667V5.33333C48.5 2.38781 46.1122 0 43.1667 0H5.83333C2.88781 0 0.5 2.38781 0.5 5.33333V42.6667C0.5 45.6122 2.88781 48 5.83333 48Z" fill="#242424" fillOpacity="0.15"/>
<path fillRule="evenodd" clipRule="evenodd" d="M41.8337 41.3327H34.7107V29.2008C34.7107 25.8745 33.4469 24.0157 30.8141 24.0157C27.9501 24.0157 26.4537 25.9501 26.4537 29.2008V41.3327H19.5892V18.2216H26.4537V21.3346C26.4537 21.3346 28.5177 17.5155 33.422 17.5155C38.3241 17.5155 41.8337 20.509 41.8337 26.7002V41.3327ZM11.3999 15.1954C9.0617 15.1954 7.16699 13.2858 7.16699 10.9307C7.16699 8.57559 9.0617 6.66602 11.3999 6.66602C13.7381 6.66602 15.6317 8.57559 15.6317 10.9307C15.6317 13.2858 13.7381 15.1954 11.3999 15.1954ZM7.85536 41.3327H15.0133V18.2216H7.85536V41.3327Z" fill="white"/>
</g>
<defs>
<clipPath id="clip0_83_1904">
<rect width="48" height="48" fill="white" transform="translate(0.5)"/>
</clipPath>
</defs>
</svg>
