<svg width="14" height="14" viewBox="0 0 14 14" fill="none" xmlns="http://www.w3.org/2000/svg">
<path d="M4.375 3.5C4.375 3.38397 4.42109 3.27269 4.50314 3.19064C4.58519 3.10859 4.69647 3.0625 4.8125 3.0625H11.8125C11.9285 3.0625 12.0398 3.10859 12.1219 3.19064C12.2039 3.27269 12.25 3.38397 12.25 3.5C12.25 3.61603 12.2039 3.72731 12.1219 3.80936C12.0398 3.89141 11.9285 3.9375 11.8125 3.9375H4.8125C4.69647 3.9375 4.58519 3.89141 4.50314 3.80936C4.42109 3.72731 4.375 3.61603 4.375 3.5ZM11.8125 6.5625H4.8125C4.69647 6.5625 4.58519 6.60859 4.50314 6.69064C4.42109 6.77269 4.375 6.88397 4.375 7C4.375 7.11603 4.42109 7.22731 4.50314 7.30936C4.58519 7.39141 4.69647 7.4375 4.8125 7.4375H11.8125C11.9285 7.4375 12.0398 7.39141 12.1219 7.30936C12.2039 7.22731 12.25 7.11603 12.25 7C12.25 6.88397 12.2039 6.77269 12.1219 6.69064C12.0398 6.60859 11.9285 6.5625 11.8125 6.5625ZM11.8125 10.0625H4.8125C4.69647 10.0625 4.58519 10.1086 4.50314 10.1906C4.42109 10.2727 4.375 10.384 4.375 10.5C4.375 10.616 4.42109 10.7273 4.50314 10.8094C4.58519 10.8914 4.69647 10.9375 4.8125 10.9375H11.8125C11.9285 10.9375 12.0398 10.8914 12.1219 10.8094C12.2039 10.7273 12.25 10.616 12.25 10.5C12.25 10.384 12.2039 10.2727 12.1219 10.1906C12.0398 10.1086 11.9285 10.0625 11.8125 10.0625ZM2.40625 2.84375C2.27646 2.84375 2.14958 2.88224 2.04166 2.95435C1.93374 3.02646 1.84962 3.12895 1.79995 3.24886C1.75028 3.36878 1.73729 3.50073 1.76261 3.62803C1.78793 3.75533 1.85043 3.87226 1.94221 3.96404C2.03399 4.05582 2.15092 4.11832 2.27822 4.14364C2.40552 4.16896 2.53747 4.15597 2.65739 4.1063C2.7773 4.05663 2.87979 3.97251 2.9519 3.86459C3.02401 3.75667 3.0625 3.62979 3.0625 3.5C3.0625 3.32595 2.99336 3.15903 2.87029 3.03596C2.74722 2.91289 2.5803 2.84375 2.40625 2.84375ZM2.40625 6.34375C2.27646 6.34375 2.14958 6.38224 2.04166 6.45435C1.93374 6.52646 1.84962 6.62895 1.79995 6.74886C1.75028 6.86878 1.73729 7.00073 1.76261 7.12803C1.78793 7.25533 1.85043 7.37226 1.94221 7.46404C2.03399 7.55582 2.15092 7.61832 2.27822 7.64364C2.40552 7.66896 2.53747 7.65597 2.65739 7.6063C2.7773 7.55663 2.87979 7.47251 2.9519 7.36459C3.02401 7.25667 3.0625 7.12979 3.0625 7C3.0625 6.82595 2.99336 6.65903 2.87029 6.53596C2.74722 6.41289 2.5803 6.34375 2.40625 6.34375ZM2.40625 9.84375C2.27646 9.84375 2.14958 9.88224 2.04166 9.95435C1.93374 10.0265 1.84962 10.129 1.79995 10.2489C1.75028 10.3688 1.73729 10.5007 1.76261 10.628C1.78793 10.7553 1.85043 10.8723 1.94221 10.964C2.03399 11.0558 2.15092 11.1183 2.27822 11.1436C2.40552 11.169 2.53747 11.156 2.65739 11.1063C2.7773 11.0566 2.87979 10.9725 2.9519 10.8646C3.02401 10.7567 3.0625 10.6298 3.0625 10.5C3.0625 10.326 2.99336 10.159 2.87029 10.036C2.74722 9.91289 2.5803 9.84375 2.40625 9.84375Z" fill="#FA341A"/>
</svg>
