<svg width="56" height="55" viewBox="0 0 56 55" fill="none" xmlns="http://www.w3.org/2000/svg">
<g clipPath="url(#clip0_83_1615)">
<path d="M32.8141 0.5C32.4221 0.5 32.0581 0.584004 31.722 0.696004C32.4361 1.17201 32.8281 1.80203 33.0241 2.51604C33.0381 2.61404 33.0661 2.68405 33.0801 2.78204C33.0941 2.86605 33.1081 2.95005 33.1081 3.03405C33.1641 4.26607 32.7861 4.42007 32.5201 5.14809C32.1141 6.08611 32.2261 7.09413 32.7161 7.90615C32.7581 8.00415 32.8141 8.11615 32.8841 8.21415C32.3521 4.67208 35.3061 4.14007 35.8521 3.03405C35.8941 2.06803 35.0961 1.42402 34.4661 0.976008C33.8641 0.612002 33.3181 0.5 32.8141 0.5ZM37.2662 1.29802C37.2101 1.62002 37.2521 1.53602 37.2382 1.70402C37.2242 1.81602 37.2242 1.95603 37.2102 2.06803C37.1822 2.18003 37.1542 2.29203 37.1122 2.40404C37.0842 2.51604 37.0422 2.62804 37.0002 2.74004C36.9442 2.85205 36.9022 2.95005 36.8462 3.06205C36.8042 3.11807 36.7762 3.17405 36.7342 3.23005C36.7062 3.27206 36.6782 3.31406 36.6502 3.35606C36.5802 3.45406 36.5102 3.55206 36.4402 3.63606C36.3562 3.72006 36.2862 3.81806 36.1882 3.88807V3.90209C36.1042 3.97209 36.0202 4.05609 35.9222 4.12609C35.6282 4.35009 35.2922 4.5181 34.9841 4.7281C34.8862 4.7981 34.7881 4.85411 34.7041 4.93811C34.6061 5.00811 34.5221 5.07811 34.4381 5.16211C34.3401 5.24611 34.2701 5.33011 34.1861 5.42812C34.1161 5.51212 34.0321 5.61012 33.9761 5.70812C33.9061 5.80612 33.8361 5.90413 33.7801 6.00213C33.7241 6.11412 33.6821 6.21213 33.6261 6.32413C33.5841 6.43613 33.5421 6.53414 33.5141 6.64614C33.4721 6.77214 33.4441 6.88414 33.4161 6.99615C33.4021 7.05217 33.4021 7.12215 33.3881 7.17815C33.3741 7.23417 33.3741 7.29015 33.3602 7.34615C33.3602 7.45815 33.3461 7.58416 33.3461 7.69616C33.3461 7.78016 33.3461 7.86416 33.3602 7.94817C33.3602 8.06017 33.3742 8.17217 33.4022 8.29817C33.4162 8.41017 33.4442 8.52217 33.4722 8.63418C33.5142 8.74618 33.5422 8.85818 33.5842 8.97018C33.6122 9.04019 33.6542 9.11019 33.6822 9.16618L30.4621 7.92016C29.9161 7.76616 29.3841 7.62616 28.8381 7.50016C28.5441 7.43016 28.2501 7.36015 27.9561 7.29015C27.116 7.12215 26.262 6.99615 25.408 6.91215C25.38 6.91215 25.366 6.89813 25.338 6.89813C24.498 6.81413 23.672 6.77213 22.832 6.77213C22.216 6.77213 21.5999 6.8001 20.9979 6.84213C20.1439 6.89815 19.2899 7.01013 18.4359 7.15013C18.2259 7.17811 18.0159 7.22014 17.8059 7.26214C17.3719 7.34613 16.9518 7.44414 16.5458 7.54214C16.3358 7.59817 16.1258 7.65414 15.9158 7.71014C15.7058 7.79414 15.5098 7.89215 15.3138 7.97615C15.1598 8.04615 15.0058 8.11615 14.8518 8.18615C14.8238 8.20017 14.7958 8.20017 14.7818 8.21413C14.6418 8.28413 14.5158 8.34013 14.3898 8.41014C14.3478 8.42416 14.3198 8.43811 14.2918 8.45214C14.1378 8.52214 13.9838 8.60614 13.8578 8.67614C13.7598 8.71814 13.6618 8.77414 13.5778 8.81615C13.5358 8.84412 13.4798 8.87217 13.4518 8.88615C13.3258 8.95614 13.1998 9.02614 13.0878 9.09615C12.9618 9.16615 12.8498 9.23615 12.7518 9.30615C12.6538 9.37615 12.5558 9.43215 12.4718 9.50215C12.4577 9.51617 12.4438 9.51617 12.4298 9.53013C12.3458 9.58616 12.2478 9.65613 12.1638 9.72614C12.1638 9.72614 12.1497 9.74016 12.1358 9.75412C12.0658 9.81014 11.9958 9.86612 11.9258 9.92212C11.8978 9.93614 11.8697 9.96412 11.8418 9.97814C11.7718 10.0342 11.7018 10.1041 11.6318 10.1601C11.6177 10.1881 11.5898 10.2021 11.5757 10.2162C11.4917 10.3002 11.4077 10.3702 11.3237 10.4542C11.3097 10.4542 11.3097 10.4682 11.2958 10.4822C11.2118 10.5522 11.1278 10.6362 11.0438 10.7202C11.0297 10.7342 11.0297 10.7481 11.0158 10.7481C10.9458 10.8181 10.8758 10.8881 10.8058 10.9721C10.7778 11.0001 10.7358 11.0282 10.7078 11.0561C10.6378 11.1401 10.5538 11.2241 10.4698 11.3081C10.4557 11.3361 10.4278 11.3501 10.4137 11.3781C10.3017 11.4902 10.2037 11.6022 10.0917 11.7142C10.0777 11.7282 10.0638 11.7421 10.0497 11.7562C9.82573 11.9942 9.58772 12.2322 9.33572 12.4422C9.08371 12.6662 8.81771 12.8762 8.5517 13.0582C8.2717 13.2542 8.00569 13.4222 7.71169 13.5902C7.43168 13.7442 7.13767 13.8842 6.82967 14.0102C6.53566 14.1362 6.22766 14.2482 5.91965 14.3462C5.33164 14.4722 4.72963 14.7102 4.21162 14.7522C4.09962 14.7522 3.97361 14.7802 3.86161 14.7942C3.73561 14.8222 3.62361 14.8502 3.51161 14.8782C3.39961 14.9202 3.2876 14.9622 3.1756 15.0042C3.0636 15.0462 2.9516 15.1022 2.8396 15.1582C2.74159 15.2282 2.62959 15.2842 2.53158 15.3542C2.43359 15.4242 2.33558 15.5082 2.25158 15.5922C2.15358 15.6622 2.05558 15.7602 1.97157 15.8442C1.88757 15.9422 1.80357 16.0262 1.73357 16.1242C1.66357 16.2362 1.57957 16.3342 1.52356 16.4462C1.45356 16.5443 1.38356 16.6562 1.32756 16.7682C1.27154 16.8943 1.21556 17.0063 1.17356 17.1323C1.13156 17.2443 1.08956 17.3703 1.04756 17.4963C1.01958 17.6083 0.991532 17.7203 0.977556 17.8323C0.977556 17.8463 0.963534 17.8602 0.963534 17.8743C0.935556 18.0003 0.935556 18.1683 0.921533 18.2523C0.907511 18.3503 0.893555 18.4343 0.893555 18.5323C0.893555 18.5883 0.893555 18.6583 0.907576 18.7143C0.921598 18.8123 0.935555 18.8963 0.9636 18.9803C0.991579 19.0643 1.01962 19.1483 1.0616 19.2323V19.2463C1.1036 19.3303 1.1596 19.4143 1.2156 19.4983C1.27162 19.5823 1.32761 19.6663 1.39761 19.7503C1.46761 19.8203 1.55161 19.9043 1.63561 19.9743C1.71961 20.0583 1.80362 20.1283 1.90161 20.1983C2.23762 20.4923 2.32162 20.5904 2.75563 20.8144C2.82563 20.8564 2.89564 20.8844 2.97964 20.9264C2.99367 20.9264 3.00762 20.9404 3.02164 20.9404C3.02164 20.9684 3.02164 20.9824 3.03567 21.0104C3.04969 21.1224 3.07767 21.2344 3.10567 21.3464C3.13364 21.4724 3.17567 21.5844 3.21767 21.6824C3.25967 21.7664 3.28767 21.8504 3.32967 21.9344C3.3437 21.9624 3.35765 21.9904 3.37168 22.0044C3.4277 22.1164 3.48368 22.2144 3.53967 22.3124C3.60968 22.4104 3.67968 22.5084 3.74968 22.6064C3.81968 22.6904 3.90368 22.7884 3.98768 22.8724C4.07169 22.9564 4.15569 23.0264 4.25369 23.1104C4.25369 23.1104 4.26772 23.1245 4.28167 23.1245C4.36567 23.1945 4.44968 23.2645 4.53368 23.3205C4.63168 23.3905 4.72968 23.4465 4.84168 23.5025C4.93969 23.5585 5.05169 23.6145 5.16369 23.6565C5.24769 23.6985 5.34569 23.7265 5.44369 23.7545C5.45772 23.7685 5.47167 23.7685 5.49972 23.7825C5.55574 23.7965 5.62571 23.8104 5.68172 23.8245C5.63972 24.5805 5.62569 25.2945 5.73774 25.5465C5.86374 25.8265 6.47975 24.9725 7.09577 23.9925C7.01176 24.9585 6.95576 26.0925 7.09577 26.4285C7.24977 26.7785 8.08978 25.6865 8.8178 24.4825C18.744 22.1864 27.8022 29.0466 28.7542 38.7347C28.5722 37.2227 26.7101 36.3827 25.8561 36.5927C25.4361 37.6287 24.7221 38.9587 23.5741 39.7848C23.6721 38.8607 23.6301 37.9087 23.4341 36.9847C23.1261 38.2727 22.5241 39.4768 21.698 40.5128C20.368 40.6108 19.038 39.9668 18.338 39.0007C18.282 38.9587 18.268 38.8747 18.226 38.8187C18.184 38.7207 18.142 38.6227 18.114 38.5247C18.072 38.4267 18.044 38.3287 18.03 38.2307C18.0159 38.1327 18.016 38.0347 18.016 37.9227C18.016 37.8527 18.016 37.7827 18.016 37.7127C18.03 37.6147 18.058 37.5167 18.0859 37.4187C18.1139 37.3207 18.142 37.2227 18.184 37.1247C18.24 37.0267 18.282 36.9287 18.352 36.8307C18.59 36.1587 18.59 35.6127 18.156 35.2907C18.072 35.2346 17.988 35.1927 17.8899 35.1507C17.8339 35.1367 17.7639 35.1087 17.7079 35.0946C17.6659 35.0806 17.6379 35.0667 17.5959 35.0526C17.4979 35.0247 17.3999 34.9966 17.3019 34.9826C17.2039 34.9547 17.1059 34.9406 17.0079 34.9406C16.9099 34.9266 16.7979 34.9127 16.6999 34.9127C16.6299 34.9127 16.5599 34.9267 16.4899 34.9267C16.3779 34.9267 16.2799 34.9407 16.1819 34.9687C16.0839 34.9827 15.9859 34.9967 15.8879 35.0247C15.7899 35.0527 15.6919 35.0807 15.5939 35.1227C15.4959 35.1647 15.4119 35.2067 15.3139 35.2487C15.2299 35.2907 15.1459 35.3467 15.0479 35.3887C11.7858 37.5168 13.7319 42.5008 15.9579 43.9429C15.1179 44.0969 14.2639 44.2789 14.0259 44.4609C14.0119 44.4749 13.9979 44.4889 13.9979 44.4889C14.5999 44.8529 15.2299 45.1609 15.8879 45.4269C16.7839 45.7209 17.736 45.9869 18.156 46.0989V46.1129C19.318 46.3509 20.494 46.4349 21.684 46.3649C27.8862 45.9309 32.9683 41.2128 33.8923 34.9967C33.9203 35.1227 33.9483 35.2347 33.9763 35.3607C34.0183 35.6127 34.0743 35.8787 34.1023 36.1447V36.1588C34.1303 36.2848 34.1443 36.4108 34.1583 36.5228V36.5788C34.1724 36.7048 34.1863 36.8308 34.1863 36.9428C34.2003 37.0968 34.2143 37.2508 34.2143 37.4048V37.6288C34.2143 37.6988 34.2283 37.7828 34.2283 37.8528C34.2283 37.9368 34.2143 38.0208 34.2143 38.1048V38.3008C34.2143 38.3988 34.2002 38.4828 34.2002 38.5808C34.2002 38.6368 34.2002 38.6928 34.1862 38.7628C34.1862 38.8608 34.1722 38.9588 34.1722 39.0708C34.1582 39.1128 34.1582 39.1548 34.1582 39.1968C34.1441 39.3088 34.1302 39.4068 34.1162 39.5189C34.1162 39.5609 34.1162 39.6029 34.1021 39.6449C34.0881 39.7849 34.0601 39.9109 34.0461 40.0509V40.0649V40.0789C34.0181 40.2049 33.9901 40.3449 33.9621 40.4709V40.5129C33.9341 40.6389 33.9061 40.7649 33.8781 40.8909C33.8781 40.905 33.8641 40.9329 33.8641 40.9469C33.8361 41.073 33.8081 41.199 33.7661 41.325V41.367C33.7241 41.507 33.6821 41.633 33.6541 41.759C33.6401 41.773 33.6401 41.7869 33.6401 41.7869C33.5981 41.927 33.5561 42.067 33.5141 42.207C33.458 42.347 33.4161 42.473 33.3601 42.613C33.3041 42.753 33.2621 42.893 33.2061 43.019C33.15 43.159 33.0941 43.285 33.0381 43.425H33.024C32.968 43.551 32.912 43.691 32.842 43.817C32.828 43.859 32.814 43.887 32.8 43.915C32.786 43.929 32.786 43.943 32.772 43.957C31.862 45.791 30.518 47.4011 28.838 48.6611C28.726 48.7311 28.614 48.8151 28.502 48.8991C28.474 48.9271 28.432 48.9411 28.404 48.9691C28.3059 49.0391 28.2079 49.1091 28.096 49.1791L28.138 49.2631H28.152C28.348 49.2351 28.544 49.2071 28.74 49.1791H28.754C29.118 49.1231 29.482 49.0531 29.846 48.9831C29.944 48.969 30.056 48.9411 30.154 48.9131C30.224 48.899 30.28 48.8851 30.35 48.8711C30.448 48.857 30.546 48.8291 30.644 48.8151C30.728 48.7871 30.812 48.7731 30.896 48.7451C32.2961 48.409 33.6541 47.947 34.9561 47.401C32.7301 50.4391 29.748 52.8891 26.2619 54.4992C27.872 54.3872 29.482 54.1212 31.036 53.6731C36.6782 52.0071 41.4242 48.213 44.2663 43.1029C43.6923 46.337 42.4043 49.4171 40.5002 52.1051C41.8583 51.2091 43.1043 50.1731 44.2383 48.9971C47.3744 45.721 49.4324 41.5629 50.1324 37.0968C50.6084 39.3089 50.7484 41.5909 50.5384 43.845C60.6466 29.7467 51.3784 15.1304 47.5004 11.2803C47.4863 11.2524 47.4724 11.2383 47.4724 11.2103C47.4583 11.2243 47.4583 11.2243 47.4583 11.2383C47.4583 11.2243 47.4583 11.2243 47.4443 11.2103C47.4443 11.3783 47.4303 11.5463 47.4163 11.7143C47.3743 12.0363 47.3323 12.3443 47.2763 12.6524C47.2063 12.9604 47.1223 13.2684 47.0383 13.5764C46.9403 13.8704 46.8283 14.1784 46.7023 14.4724C46.5763 14.7524 46.4363 15.0464 46.2823 15.3264C46.1283 15.5924 45.9603 15.8724 45.7783 16.1244C45.5963 16.3904 45.4003 16.6424 45.2043 16.8804C44.9943 17.1324 44.7703 17.3564 44.5463 17.5805C44.4063 17.7065 44.2803 17.8185 44.1403 17.9305C44.0283 18.0285 43.9303 18.1125 43.8183 18.2105C43.5663 18.4065 43.3143 18.5885 43.0343 18.7565C42.7683 18.9245 42.4883 19.0925 42.2082 19.2325C41.9142 19.3725 41.6202 19.4985 41.3262 19.6245C41.0322 19.7365 40.7242 19.8345 40.4162 19.9185C40.1082 20.0025 39.7862 20.0725 39.4782 20.1285C39.1562 20.1845 38.8342 20.2125 38.5262 20.2405C38.3022 20.2545 38.0782 20.2685 37.8542 20.2685C37.5322 20.2685 37.2102 20.2405 36.9021 20.2125C36.5801 20.1845 36.2581 20.1425 35.9501 20.0725C35.6281 20.0164 35.3201 19.9324 35.0121 19.8345H34.9981C35.3061 19.8065 35.6141 19.7784 35.9221 19.7224C36.2441 19.6664 36.5521 19.5964 36.8601 19.5124C37.1681 19.4284 37.4761 19.3304 37.7701 19.2184C38.0781 19.1064 38.3722 18.9664 38.6522 18.8264C38.9462 18.6864 39.2122 18.5324 39.4922 18.3644C39.7582 18.1824 40.0242 18.0004 40.2762 17.8044C40.5282 17.6084 40.7662 17.3984 40.9902 17.1744C41.2282 16.9644 41.4382 16.7264 41.6482 16.4884C41.8582 16.2364 42.0542 15.9844 42.2362 15.7324C42.2642 15.6904 42.2923 15.6344 42.3202 15.5924C42.4602 15.3684 42.6002 15.1444 42.7262 14.9204C42.8802 14.6403 43.0202 14.3603 43.1462 14.0663C43.2722 13.7723 43.3843 13.4783 43.4823 13.1703C43.5802 12.8763 43.6503 12.5683 43.7203 12.2603C43.7763 11.9383 43.8323 11.6303 43.8603 11.3223C43.8882 11.0003 43.9163 10.6783 43.9163 10.3703C43.9163 10.1463 43.9022 9.92226 43.8883 9.69826C43.8603 9.37625 43.8183 9.06824 43.7763 8.76024C43.7203 8.43823 43.6503 8.13023 43.5663 7.82222C43.4683 7.52821 43.3703 7.22021 43.2583 6.92621C43.1463 6.6322 43.0063 6.33819 42.8663 6.05818C42.7123 5.77818 42.5583 5.49817 42.3903 5.23217C42.2083 4.96617 42.0263 4.71416 41.8303 4.46215C41.6203 4.22415 41.4103 3.98615 41.1862 3.74814C41.0742 3.63614 40.9482 3.51014 40.8222 3.39814C40.1922 2.90812 39.5342 2.44611 38.8762 2.02611C38.7782 1.97009 38.6942 1.9281 38.5962 1.8861C38.1342 1.5921 37.7002 1.43801 37.2662 1.29802Z" fill="#242424" fillOpacity="0.7"/>
</g>
<defs>
<clipPath id="clip0_83_1615">
<rect width="54.2118" height="54" fill="white" transform="translate(0.894531 0.5)"/>
</clipPath>
</defs>
</svg>
