<svg width="14" height="14" viewBox="0 0 14 14" fill="none" xmlns="http://www.w3.org/2000/svg">
<path d="M12.6875 6.125H7.4375V4.8125H7.875C8.10706 4.8125 8.32962 4.72031 8.49372 4.55622C8.65781 4.39212 8.75 4.16956 8.75 3.9375V2.1875C8.75 1.95544 8.65781 1.73288 8.49372 1.56878C8.32962 1.40469 8.10706 1.3125 7.875 1.3125H6.125C5.89294 1.3125 5.67038 1.40469 5.50628 1.56878C5.34219 1.73288 5.25 1.95544 5.25 2.1875V3.9375C5.25 4.16956 5.34219 4.39212 5.50628 4.55622C5.67038 4.72031 5.89294 4.8125 6.125 4.8125H6.5625V6.125H1.3125C1.19647 6.125 1.08519 6.17109 1.00314 6.25314C0.921094 6.33519 0.875 6.44647 0.875 6.5625C0.875 6.67853 0.921094 6.78981 1.00314 6.87186C1.08519 6.95391 1.19647 7 1.3125 7H3.0625V8.75H2.625C2.39294 8.75 2.17038 8.84219 2.00628 9.00628C1.84219 9.17038 1.75 9.39294 1.75 9.625V11.375C1.75 11.6071 1.84219 11.8296 2.00628 11.9937C2.17038 12.1578 2.39294 12.25 2.625 12.25H4.375C4.60706 12.25 4.82962 12.1578 4.99372 11.9937C5.15781 11.8296 5.25 11.6071 5.25 11.375V9.625C5.25 9.39294 5.15781 9.17038 4.99372 9.00628C4.82962 8.84219 4.60706 8.75 4.375 8.75H3.9375V7H10.0625V8.75H9.625C9.39294 8.75 9.17038 8.84219 9.00628 9.00628C8.84219 9.17038 8.75 9.39294 8.75 9.625V11.375C8.75 11.6071 8.84219 11.8296 9.00628 11.9937C9.17038 12.1578 9.39294 12.25 9.625 12.25H11.375C11.6071 12.25 11.8296 12.1578 11.9937 11.9937C12.1578 11.8296 12.25 11.6071 12.25 11.375V9.625C12.25 9.39294 12.1578 9.17038 11.9937 9.00628C11.8296 8.84219 11.6071 8.75 11.375 8.75H10.9375V7H12.6875C12.8035 7 12.9148 6.95391 12.9969 6.87186C13.0789 6.78981 13.125 6.67853 13.125 6.5625C13.125 6.44647 13.0789 6.33519 12.9969 6.25314C12.9148 6.17109 12.8035 6.125 12.6875 6.125ZM6.125 2.1875H7.875V3.9375H6.125V2.1875ZM4.375 11.375H2.625V9.625H4.375V11.375ZM11.375 11.375H9.625V9.625H11.375V11.375Z" fill="#FA341A"/>
</svg>
