<svg width="54" height="55" viewBox="0 0 54 55" fill="none" xmlns="http://www.w3.org/2000/svg">
<g clipPath="url(#clip0_83_1590)">
<path d="M20.2149 36.5C20.2149 37.6178 19.3091 38.525 18.1899 38.525C17.0708 38.525 16.1649 37.6178 16.1649 36.5V17.6C16.1649 16.7185 16.7359 15.9382 17.5756 15.6695C18.4194 15.4022 19.3334 15.71 19.8423 16.4296L42.4912 48.43C49.4329 43.5322 54 35.4673 54 26.375C54 11.525 41.85 -0.625 27 -0.625C12.15 -0.625 0 11.525 0 26.375C0 41.225 12.15 53.375 27 53.375C31.3092 53.375 35.3781 52.326 39.0015 50.5103L20.2149 23.9666V36.5ZM33.7149 16.25C33.7149 15.1322 34.6208 14.225 35.7399 14.225C36.8591 14.225 37.7649 15.1322 37.7649 16.25V34.934L33.7149 29.2276V16.25Z" fill="#242424" fillOpacity="0.7"/>
</g>
<defs>
<clipPath id="clip0_83_1590">
<rect width="54" height="54" fill="white" transform="translate(0 0.5)"/>
</clipPath>
</defs>
</svg>
