<svg width="110" height="24" viewBox="0 0 110 24" fill="none" xmlns="http://www.w3.org/2000/svg">
<path d="M11.3012 10.7711V18H8.90308V11.3591C8.90308 10.8441 8.77626 10.3752 8.52261 9.95247C8.27665 9.52972 7.9423 9.19537 7.51955 8.94941C7.10449 8.69576 6.63563 8.56894 6.11296 8.56894C5.60567 8.56894 5.14065 8.69576 4.71791 8.94941C4.29516 9.19537 3.95696 9.52972 3.70332 9.95247C3.44967 10.3752 3.32285 10.8441 3.32285 11.3591V18H0.924728V6.47059H3.32285V7.6927C3.72253 7.21616 4.21445 6.83953 4.79861 6.56282C5.38277 6.28612 6.01304 6.14776 6.68943 6.14776C7.54261 6.14776 8.31892 6.35529 9.01838 6.77035C9.71783 7.18541 10.2712 7.74267 10.6786 8.44212C11.0937 9.14157 11.3012 9.91788 11.3012 10.7711ZM24.9915 18H21.8785L17.0708 11.3475L16.0908 12.5351V18H13.6927V1.85882H16.0908V8.81106L21.9016 1.85882H25.0376L18.6503 9.47976L24.9915 18ZM30.903 18.2998C29.8423 18.2998 28.8738 18.0269 27.9976 17.4812C27.129 16.9355 26.4334 16.2053 25.9108 15.2906C25.3958 14.3682 25.1383 13.3498 25.1383 12.2353C25.1383 11.3898 25.2882 10.602 25.5879 9.87176C25.8877 9.13388 26.2989 8.48823 26.8216 7.93482C27.3519 7.37372 27.9668 6.93561 28.6663 6.62047C29.3657 6.30533 30.1113 6.14776 30.903 6.14776C31.9637 6.14776 32.9283 6.42063 33.7969 6.96635C34.6731 7.51208 35.3687 8.24612 35.8837 9.16847C36.4064 10.0908 36.6677 11.1131 36.6677 12.2353C36.6677 13.0731 36.5178 13.8571 36.2181 14.5873C35.9183 15.3175 35.5032 15.9631 34.9729 16.5242C34.4502 17.0776 33.8392 17.5119 33.1397 17.8271C32.4479 18.1422 31.7024 18.2998 30.903 18.2998ZM30.903 15.9016C31.541 15.9016 32.1136 15.7325 32.6209 15.3944C33.1282 15.0562 33.5279 14.6104 33.8199 14.0569C34.1197 13.4958 34.2696 12.8886 34.2696 12.2353C34.2696 11.5666 34.1159 10.9517 33.8084 10.3906C33.5086 9.82949 33.1051 9.38369 32.5978 9.05318C32.0905 8.71498 31.5256 8.54588 30.903 8.54588C30.2727 8.54588 29.7001 8.71498 29.1851 9.05318C28.6778 9.39137 28.2743 9.84102 27.9745 10.4021C27.6825 10.9632 27.5364 11.5743 27.5364 12.2353C27.5364 12.9194 27.6901 13.5381 27.9976 14.0915C28.305 14.6449 28.7124 15.0869 29.2197 15.4174C29.7347 15.7402 30.2958 15.9016 30.903 15.9016ZM38.3728 18V0.70588H40.7709V18H38.3728ZM43.5295 18V6.47059H45.9276V7.6927C46.3273 7.21616 46.8154 6.83953 47.3919 6.56282C47.976 6.28612 48.6063 6.14776 49.2827 6.14776C50.1051 6.14776 50.8622 6.34761 51.554 6.74729C52.2457 7.13929 52.7953 7.66196 53.2027 8.31529C53.6101 7.66196 54.1519 7.13929 54.8283 6.74729C55.5124 6.34761 56.2657 6.14776 57.0881 6.14776C57.9413 6.14776 58.7176 6.35529 59.417 6.77035C60.1165 7.18541 60.6737 7.74267 61.0888 8.44212C61.5039 9.14157 61.7114 9.91788 61.7114 10.7711V18H59.3133V11.3821C59.3133 10.8748 59.1903 10.4098 58.9443 9.98706C58.6984 9.56431 58.3679 9.22227 57.9528 8.96094C57.5377 8.69961 57.0766 8.56894 56.5693 8.56894C56.062 8.56894 55.6008 8.69192 55.1857 8.93788C54.7707 9.18384 54.4402 9.5182 54.1942 9.94094C53.9483 10.3637 53.8253 10.8441 53.8253 11.3821V18H51.4272V11.3821C51.4272 10.8441 51.3042 10.3637 51.0582 9.94094C50.8123 9.5182 50.4779 9.18384 50.0552 8.93788C49.6401 8.69192 49.1789 8.56894 48.6716 8.56894C48.172 8.56894 47.7108 8.69961 47.2881 8.96094C46.873 9.22227 46.5425 9.56431 46.2966 9.98706C46.0506 10.4098 45.9276 10.8748 45.9276 11.3821V18H43.5295ZM71.4235 6.47059H73.983L67.6649 23.7647H65.1169L67.2037 18L63.0647 6.47059H65.6818L68.4028 14.7141L71.4235 6.47059ZM85.5659 18H82.7989L79.9626 13.1115L78.1064 15.3252V18H75.7083V0.70588H78.1064V11.6012L82.3953 6.47059H85.5313L81.5998 11.1631L85.5659 18ZM91.8152 18.2998C90.7545 18.2998 89.7861 18.0269 88.9098 17.4812C88.0413 16.9355 87.3457 16.2053 86.823 15.2906C86.308 14.3682 86.0505 13.3498 86.0505 12.2353C86.0505 11.3898 86.2004 10.602 86.5002 9.87176C86.7999 9.13388 87.2111 8.48823 87.7338 7.93482C88.2642 7.37372 88.8791 6.93561 89.5785 6.62047C90.278 6.30533 91.0235 6.14776 91.8152 6.14776C92.8759 6.14776 93.8406 6.42063 94.7091 6.96635C95.5853 7.51208 96.281 8.24612 96.7959 9.16847C97.3186 10.0908 97.5799 11.1131 97.5799 12.2353C97.5799 13.0731 97.4301 13.8571 97.1303 14.5873C96.8305 15.3175 96.4155 15.9631 95.8851 16.5242C95.3624 17.0776 94.7514 17.5119 94.0519 17.8271C93.3602 18.1422 92.6146 18.2998 91.8152 18.2998ZM91.8152 15.9016C92.4532 15.9016 93.0258 15.7325 93.5331 15.3944C94.0404 15.0562 94.4401 14.6104 94.7322 14.0569C95.0319 13.4958 95.1818 12.8886 95.1818 12.2353C95.1818 11.5666 95.0281 10.9517 94.7206 10.3906C94.4209 9.82949 94.0173 9.38369 93.5101 9.05318C93.0028 8.71498 92.4378 8.54588 91.8152 8.54588C91.185 8.54588 90.6123 8.71498 90.0973 9.05318C89.5901 9.39137 89.1865 9.84102 88.8868 10.4021C88.5947 10.9632 88.4486 11.5743 88.4486 12.2353C88.4486 12.9194 88.6024 13.5381 88.9098 14.0915C89.2173 14.6449 89.6246 15.0869 90.1319 15.4174C90.6469 15.7402 91.208 15.9016 91.8152 15.9016ZM105.497 18H102.419L98.2104 6.44753H100.77L103.952 15.2329L107.146 6.44753H109.694L105.497 18Z" fill="#272727"/>
</svg>
