<svg width="90" height="55" viewBox="0 0 90 55" fill="none" xmlns="http://www.w3.org/2000/svg">
<g clipPath="url(#clip0_83_1594)">
<path d="M44.4932 54.4975C44.2022 54.4975 43.9132 54.4212 43.6581 54.2743L40.9998 52.7005C40.6028 52.4785 40.7965 52.3999 40.9275 52.3547C41.4568 52.1693 41.5643 52.1275 42.1293 51.8066C42.1887 51.7727 42.2664 51.7846 42.3272 51.8205L44.3694 53.0324C44.4432 53.0722 44.5478 53.0722 44.6162 53.0324L52.5788 48.4362C52.6525 48.3943 52.7003 48.3086 52.7003 48.2209V39.0325C52.7003 38.9408 52.6525 38.8591 52.5772 38.8133L44.6178 34.2211C44.544 34.1772 44.4464 34.1772 44.3726 34.2211L36.4148 38.8133C36.3376 38.8571 36.2886 38.9428 36.2886 39.0305V48.2189C36.2886 48.3066 36.3365 48.3903 36.4122 48.4322L38.5927 49.6918C39.7766 50.2838 40.5001 49.5862 40.5001 48.8846V39.8158C40.5001 39.6863 40.6018 39.5866 40.7313 39.5866H41.7399C41.8654 39.5866 41.9691 39.6863 41.9691 39.8158V48.8886C41.9691 50.4672 41.108 51.3741 39.6112 51.3741C39.1508 51.3741 38.788 51.3741 37.7755 50.8758L35.6867 49.6719C35.1705 49.3729 34.8516 48.8149 34.8516 48.2189V39.0305C34.8516 38.4326 35.1705 37.8745 35.6867 37.5795L43.6573 32.9813C44.1615 32.6963 44.8312 32.6963 45.3315 32.9813L53.2921 37.5815C53.8063 37.8785 54.1272 38.4346 54.1272 39.0325V48.2209C54.1272 48.8169 53.8063 49.3729 53.2921 49.6719L45.3315 54.2701C45.0764 54.4176 44.7874 54.4933 44.4924 54.4933" fill="#242424" fillOpacity="0.7"/>
<path d="M46.9547 48.1681C43.4707 48.1681 42.7402 46.5688 42.7402 45.2274C42.7402 45.0998 42.8431 44.9982 42.9708 44.9982H43.9993C44.1129 44.9982 44.2086 45.0809 44.2265 45.1931C44.382 46.2411 44.8444 46.7697 46.9511 46.7697C48.6294 46.7697 49.3429 46.3906 49.3429 45.5006C49.3429 44.9884 49.1396 44.6077 46.5326 44.3526C44.3521 44.1373 43.0047 43.657 43.0047 41.913C43.0047 40.3065 44.3601 39.3498 46.6302 39.3498C49.1795 39.3498 50.4431 40.2348 50.6026 42.1362C50.6086 42.202 50.5846 42.2658 50.5408 42.3136C50.4969 42.3594 50.4352 42.3873 50.3714 42.3873H49.3369C49.2293 42.3873 49.1356 42.3116 49.1137 42.208C48.8646 41.1058 48.2626 40.753 46.6263 40.753C44.7946 40.753 44.5813 41.3908 44.5813 41.8691C44.5813 42.4491 44.8324 42.6185 47.3039 42.9454C49.7515 43.2703 50.9135 43.7287 50.9135 45.4488C50.9135 47.1828 49.4665 48.1774 46.9432 48.1774M56.6418 38.4329H56.9089C57.1281 38.4329 57.17 38.2795 57.17 38.1898C57.17 37.9546 57.0085 37.9546 56.9188 37.9546H56.6438L56.6418 38.4329ZM56.3169 37.6795H56.9089C57.1122 37.6795 57.5108 37.6795 57.5108 38.134C57.5108 38.4509 57.3075 38.5167 57.1859 38.5565C57.4231 38.5725 57.4391 38.7279 57.4709 38.9472C57.4869 39.0847 57.5128 39.3219 57.5606 39.4016H57.1959C57.1859 39.3219 57.1301 38.8834 57.1301 38.8595C57.1062 38.7618 57.0723 38.714 56.9507 38.714H56.6498V39.4036H56.3169V37.6795ZM55.6054 38.5366C55.6054 39.2501 56.1814 39.8281 56.889 39.8281C57.6025 39.8281 58.1785 39.2382 58.1785 38.5366C58.1785 37.8211 57.5945 37.253 56.887 37.253C56.1894 37.253 55.6034 37.8131 55.6034 38.5346M58.4257 38.5406C58.4257 39.3857 57.734 40.0753 56.8909 40.0753C56.0538 40.0753 55.3562 39.3936 55.3562 38.5406C55.3562 37.6716 56.0698 37.0059 56.8909 37.0059C57.7181 37.0059 58.4237 37.6736 58.4237 38.5406" fill="#242424" fillOpacity="0.7"/>
<path fillRule="evenodd" clipRule="evenodd" d="M19.8371 18.5479C19.8371 18.1811 19.6438 17.8443 19.3273 17.6619L10.8851 12.8046C10.7426 12.7209 10.583 12.6771 10.4211 12.6711H10.3338C10.172 12.6771 10.0123 12.7209 9.86744 12.8046L1.42568 17.6619C1.11116 17.8453 0.915039 18.1821 0.915039 18.5489L0.933575 31.6318C0.933575 31.8132 1.02725 31.9826 1.1867 32.0723C1.34217 32.168 1.5375 32.168 1.69296 32.0723L6.71169 29.1982C7.0286 29.0097 7.22194 28.6764 7.22194 28.3133V22.2013C7.22194 21.8365 7.41527 21.4997 7.73119 21.3183L9.86783 20.0878C10.0265 19.9961 10.2007 19.9506 10.3781 19.9506C10.5527 19.9506 10.7309 19.9957 10.8851 20.0876L13.0208 21.3177C13.3369 21.4991 13.531 21.8359 13.531 22.2007V28.3123C13.531 28.675 13.727 29.0099 14.0423 29.1972L19.0578 32.0693C19.2153 32.163 19.4112 32.163 19.5681 32.0693C19.7227 31.9796 19.8208 31.8102 19.8208 31.6288L19.8371 18.5479ZM59.6737 25.3596C59.6737 25.4507 59.6252 25.535 59.5461 25.5801L56.6465 27.2515C56.5677 27.2968 56.4705 27.2968 56.3919 27.2515L53.4919 25.5801C53.4122 25.5348 53.3644 25.4505 53.3644 25.3596V22.0119C53.3644 21.9207 53.4122 21.8365 53.4899 21.7907L56.388 20.1165C56.4677 20.0706 56.5654 20.0706 56.6451 20.1165L59.5451 21.7907C59.6248 21.8365 59.6727 21.9207 59.6727 22.0119L59.6737 25.3596ZM60.457 0.564535C60.2987 0.476438 60.1062 0.47883 59.9499 0.569916C59.7944 0.661601 59.6984 0.829025 59.6984 1.0104V13.9658C59.6984 14.0934 59.6306 14.211 59.5202 14.2748C59.4106 14.3385 59.274 14.3385 59.1634 14.2748L57.0487 13.0568C56.7338 12.8746 56.3459 12.8746 56.0298 13.0568L47.5849 17.9306C47.2693 18.112 47.0746 18.4488 47.0746 18.8116V28.562C47.0746 28.9267 47.2693 29.2616 47.5849 29.445L56.0298 34.3222C56.3451 34.5036 56.7334 34.5036 57.0497 34.3222L65.4946 29.443C65.8095 29.2596 66.0049 28.9248 66.0049 28.56V4.25962C66.0049 3.88969 65.8036 3.54946 65.4807 3.36869L60.457 0.564535ZM88.5788 21.9238C88.8925 21.7417 89.0857 21.4052 89.0857 21.0425V18.6794C89.0857 18.3159 88.8923 17.9804 88.578 17.7974L80.1869 12.9262C79.87 12.7428 79.4813 12.7428 79.1644 12.9262L70.7214 17.7994C70.4045 17.9828 70.2112 18.3176 70.2112 18.6824V28.4289C70.2112 28.7956 70.4085 29.1344 70.7254 29.3158L79.1146 34.0974C79.4235 34.2747 79.8022 34.2767 80.1151 34.1033L85.1897 31.283C85.3491 31.1933 85.4508 31.0239 85.4508 30.8406C85.4508 30.6572 85.3531 30.4858 85.1936 30.3961L76.6989 25.5209C76.5394 25.4312 76.4418 25.2618 76.4418 25.0804V22.0229C76.4418 21.8403 76.5374 21.6721 76.6969 21.5812L79.3398 20.0565C79.4972 19.9648 79.6906 19.9648 79.848 20.0565L82.4929 21.5812C82.6504 21.6709 82.7481 21.8403 82.7481 22.0217V24.4254C82.7481 24.6068 82.8457 24.7762 83.0032 24.8679C83.1606 24.9576 83.356 24.9576 83.5134 24.8659L88.5788 21.9238Z" fill="#242424" fillOpacity="0.7"/>
<path fillRule="evenodd" clipRule="evenodd" d="M79.5511 21.4679C79.6109 21.4326 79.6859 21.4326 79.7464 21.4679L81.3669 22.4026C81.4275 22.4377 81.4645 22.5023 81.4645 22.5721V24.4436C81.4645 24.5134 81.4275 24.578 81.3669 24.613L79.7464 25.5478C79.6859 25.5831 79.6109 25.5831 79.5511 25.5478L77.9317 24.613C77.8699 24.578 77.832 24.5134 77.832 24.4436V22.5721C77.832 22.5023 77.8679 22.4377 77.9297 22.4026L79.5511 21.4679Z" fill="#242424" fillOpacity="0.7"/>
<mask id="mask0_83_1594"  maskUnits="userSpaceOnUse" x="24" y="12" width="19" height="23">
<path d="M32.9514 12.9754L24.5543 17.8221C24.2398 18.0035 24.0469 18.3383 24.0469 18.7003V28.4005C24.0469 28.7627 24.2398 29.0973 24.5543 29.2787L32.952 34.1292C33.266 34.31 33.653 34.31 33.9665 34.1292L42.3629 29.2787C42.6758 29.0973 42.8691 28.7625 42.8691 28.4005V18.7003C42.8691 18.3383 42.6758 18.0035 42.3609 17.8221L33.9657 12.9754C33.8083 12.8851 33.6329 12.8398 33.4575 12.8398C33.2821 12.8398 33.1067 12.8851 32.9492 12.9754" fill="white"/>
</mask>
<g mask="url(#mask0_83_1594)">
<path d="M51.3534 17.0004L27.6918 5.40234L15.5596 30.152L39.2206 41.7507L51.3534 17.0004Z" fill="#242424" fillOpacity="0.4"/>
</g>
<mask id="mask1_83_1594"  maskUnits="userSpaceOnUse" x="24" y="12" width="19" height="23">
<path d="M24.2529 29.0111C24.3333 29.1154 24.4337 29.2057 24.5519 29.2734L31.7551 33.4341L32.955 34.1237C33.1344 34.2274 33.3389 34.2712 33.5398 34.2563C33.6067 34.2509 33.6737 34.2383 33.7391 34.2198L42.5954 18.0036C42.5277 17.9298 42.4483 17.8681 42.3594 17.8162L36.8611 14.6412L33.9548 12.9689C33.8722 12.9211 33.7827 12.8872 33.6917 12.8633L24.2529 29.0111Z" fill="white"/>
</mask>
<g mask="url(#mask1_83_1594)">
<path d="M14.0225 20.426L30.73 43.0388L52.826 26.7138L36.1174 4.10156L14.0225 20.426Z" fill="#242424" fillOpacity="0.3"/>
</g>
<mask id="mask2_83_1594"  maskUnits="userSpaceOnUse" x="24" y="12" width="19" height="23">
<path d="M33.3559 12.8436C33.215 12.8576 33.0773 12.9014 32.9503 12.9736L24.5771 17.8064L33.6061 34.2518C33.7317 34.2338 33.8552 34.192 33.9668 34.1274L42.3639 29.2769C42.6231 29.1266 42.8004 28.8723 42.8543 28.5841L33.6499 12.8602C33.5822 12.8468 33.5144 12.8398 33.4446 12.8398C33.4167 12.8398 33.3888 12.8412 33.3609 12.8438" fill="white"/>
</mask>
<g mask="url(#mask2_83_1594)">
<path d="M24.5771 12.8398V34.2522H42.8509V12.8398H24.5771Z" fill="#242424" fillOpacity="0.2"/>
</g>
</g>
<defs>
<clipPath id="clip0_83_1594">
<rect width="88.1708" height="54" fill="white" transform="translate(0.915039 0.5)"/>
</clipPath>
</defs>
</svg>
