<svg width="36" height="36" viewBox="0 0 36 36" fill="none" xmlns="http://www.w3.org/2000/svg">
<rect width="36" height="36" rx="18" fill="#242424"/>
<path d="M24.25 11.125H11.75C11.2527 11.125 10.7758 11.3225 10.4242 11.6742C10.0725 12.0258 9.875 12.5027 9.875 13V21.75C9.875 22.2473 10.0725 22.7242 10.4242 23.0758C10.7758 23.4275 11.2527 23.625 11.75 23.625H17.375V24.875H15.5C15.3342 24.875 15.1753 24.9408 15.0581 25.0581C14.9408 25.1753 14.875 25.3342 14.875 25.5C14.875 25.6658 14.9408 25.8247 15.0581 25.9419C15.1753 26.0592 15.3342 26.125 15.5 26.125H20.5C20.6658 26.125 20.8247 26.0592 20.9419 25.9419C21.0592 25.8247 21.125 25.6658 21.125 25.5C21.125 25.3342 21.0592 25.1753 20.9419 25.0581C20.8247 24.9408 20.6658 24.875 20.5 24.875H18.625V23.625H24.25C24.7473 23.625 25.2242 23.4275 25.5758 23.0758C25.9275 22.7242 26.125 22.2473 26.125 21.75V13C26.125 12.5027 25.9275 12.0258 25.5758 11.6742C25.2242 11.3225 24.7473 11.125 24.25 11.125ZM11.75 12.375H24.25C24.4158 12.375 24.5747 12.4408 24.6919 12.5581C24.8092 12.6753 24.875 12.8342 24.875 13V19.25H11.125V13C11.125 12.8342 11.1908 12.6753 11.3081 12.5581C11.4253 12.4408 11.5842 12.375 11.75 12.375ZM24.25 22.375H11.75C11.5842 22.375 11.4253 22.3092 11.3081 22.1919C11.1908 22.0747 11.125 21.9158 11.125 21.75V20.5H24.875V21.75C24.875 21.9158 24.8092 22.0747 24.6919 22.1919C24.5747 22.3092 24.4158 22.375 24.25 22.375Z" fill="white"/>
</svg>
