<svg width="36" height="36" viewBox="0 0 36 36" fill="none" xmlns="http://www.w3.org/2000/svg">
<rect width="36" height="36" rx="18" fill="#23B2E7"/>
<path d="M21.75 9.25H14.25C13.7527 9.25 13.2758 9.44754 12.9242 9.79917C12.5725 10.1508 12.375 10.6277 12.375 11.125V24.875C12.375 25.3723 12.5725 25.8492 12.9242 26.2008C13.2758 26.5525 13.7527 26.75 14.25 26.75H21.75C22.2473 26.75 22.7242 26.5525 23.0758 26.2008C23.4275 25.8492 23.625 25.3723 23.625 24.875V11.125C23.625 10.6277 23.4275 10.1508 23.0758 9.79917C22.7242 9.44754 22.2473 9.25 21.75 9.25ZM22.375 24.875C22.375 25.0408 22.3092 25.1997 22.1919 25.3169C22.0747 25.4342 21.9158 25.5 21.75 25.5H14.25C14.0842 25.5 13.9253 25.4342 13.8081 25.3169C13.6908 25.1997 13.625 25.0408 13.625 24.875V11.125C13.625 10.9592 13.6908 10.8003 13.8081 10.6831C13.9253 10.5658 14.0842 10.5 14.25 10.5H21.75C21.9158 10.5 22.0747 10.5658 22.1919 10.6831C22.3092 10.8003 22.375 10.9592 22.375 11.125V24.875ZM18.9375 12.6875C18.9375 12.8729 18.8825 13.0542 18.7795 13.2083C18.6765 13.3625 18.5301 13.4827 18.3588 13.5536C18.1875 13.6246 17.999 13.6432 17.8171 13.607C17.6352 13.5708 17.4682 13.4815 17.3371 13.3504C17.206 13.2193 17.1167 13.0523 17.0805 12.8704C17.0443 12.6885 17.0629 12.5 17.1339 12.3287C17.2048 12.1574 17.325 12.011 17.4792 11.908C17.6333 11.805 17.8146 11.75 18 11.75C18.2486 11.75 18.4871 11.8488 18.6629 12.0246C18.8387 12.2004 18.9375 12.4389 18.9375 12.6875Z" fill="white"/>
</svg>
