<svg width="54" height="55" viewBox="0 0 54 55" fill="none" xmlns="http://www.w3.org/2000/svg">
<path d="M39.9926 39.8112C40.3361 36.9497 40.2331 36.5301 42.3645 36.9936L42.9056 37.0411C44.5444 37.1157 46.6883 36.7775 47.9478 36.1924C50.659 34.9344 52.2667 32.8339 49.5933 33.3859C43.4951 34.6439 43.0758 32.579 43.0758 32.579C49.5152 23.0246 52.2071 10.8962 49.8835 7.92741C43.5461 -0.170355 32.5762 3.65889 32.3926 3.75831L32.3342 3.7691C31.1293 3.5191 29.7808 3.36973 28.266 3.34524C25.5063 3.29989 23.4123 4.0687 21.8239 5.2735C21.8239 5.2735 2.25418 -2.78898 3.1646 15.4129C3.35822 19.2849 8.71478 44.7121 15.1035 37.0319C17.4385 34.2235 19.6951 31.849 19.6951 31.849C20.8157 32.5934 22.1572 32.9731 23.5643 32.8367L23.673 32.744C23.6389 33.0927 23.654 33.4337 23.7165 33.8375C22.071 35.6764 22.5545 35.9993 19.2641 36.6765C15.9351 37.3627 17.8909 38.5842 19.1675 38.9034C20.7155 39.2906 24.2967 39.8389 26.7171 36.4514L26.6207 36.8379C27.2663 37.3544 27.2227 40.5503 27.3142 42.8337C27.4059 45.1172 27.5588 47.248 28.0242 48.5044C28.4897 49.7605 29.0389 52.9965 33.3633 52.0697C36.9775 51.2952 39.7407 50.1806 39.9926 39.8112Z" fill="#242424" fillOpacity="0.5"/>
<path d="M49.5935 33.3838C43.4947 34.6419 43.0754 32.577 43.0754 32.577C49.5148 23.022 52.2067 10.8933 49.8836 7.9249C43.5462 -0.172377 32.5758 3.65711 32.3927 3.75653L32.3338 3.76708C31.1289 3.51696 29.7804 3.36795 28.2649 3.34321C25.5052 3.29799 23.412 4.06668 21.8235 5.27124C21.8235 5.27124 2.25343 -2.79088 3.1636 15.4109C3.35723 19.2832 8.71367 44.7103 15.1026 37.0301C17.4378 34.2218 19.694 31.8472 19.694 31.8472C20.8147 32.5916 22.1562 32.9714 23.5627 32.835L23.6719 32.7422C23.638 33.0909 23.6535 33.432 23.7157 33.8357C22.0698 35.6746 22.5534 35.9975 19.2632 36.6748C15.934 37.3609 17.8898 38.5824 19.1667 38.9016C20.7148 39.2888 24.2962 39.8372 26.7161 36.4496L26.6196 36.8361C27.2645 37.3526 27.7173 40.1959 27.6414 42.7733C27.5655 45.3509 27.5149 47.1204 28.023 48.5026C28.5311 49.8848 29.0376 52.9947 33.3628 52.0679C36.977 51.2934 38.8498 49.2863 39.1104 45.9384C39.2953 43.5583 39.7137 43.9101 39.7401 41.7822L40.0757 40.7747C40.4627 37.5483 40.1372 36.5074 42.3638 36.9916L42.905 37.0391C44.5438 37.1137 46.6887 36.7755 47.9476 36.1904C50.6584 34.9324 52.2661 32.8319 49.5933 33.3838H49.5935Z" fill="#242424" fillOpacity="0.5"/>
<path d="M26.9778 35.2344C26.8099 41.2379 27.02 47.2832 27.6074 48.7525C28.1952 50.2217 29.4531 53.0794 33.7788 52.1528C37.3926 51.378 38.7075 49.8787 39.278 46.5693C39.6983 44.1345 40.5084 37.3725 40.6123 35.9871" stroke="white" strokeWidth="1.51132" strokeLinecap="round" strokeLinejoin="round"/>
<path d="M21.7937 5.13738C21.7937 5.13738 2.21021 -2.86666 3.12063 15.3351C3.31426 19.2074 8.67106 44.6354 15.0599 36.9548C17.3946 34.1461 19.506 31.9432 19.506 31.9432" stroke="white" strokeWidth="1.51132" strokeLinecap="round" strokeLinejoin="round"/>
<path d="M32.3713 3.6772C31.6934 3.88974 43.2648 -0.55288 49.841 7.85005C52.1639 10.8186 49.472 22.9472 43.0328 32.5025" stroke="white" strokeWidth="1.51132" strokeLinecap="round" strokeLinejoin="round"/>
<path d="M43.0333 32.5019C43.0333 32.5019 43.4529 34.5674 49.5518 33.3085C52.224 32.7566 50.6159 34.8573 47.9057 36.1159C45.6815 37.1482 40.6948 37.4127 40.6134 35.9863C40.4037 32.3059 43.2378 33.424 43.0333 32.5019ZM43.0333 32.5019C42.8484 31.6713 41.581 30.8562 40.7426 28.8236C40.0107 27.0494 30.7041 13.4439 43.3235 15.4645C43.7858 15.3689 40.0322 3.46115 28.2222 3.26752C16.4149 3.07389 16.8022 17.7879 16.8022 17.7879" stroke="white" strokeWidth="1.51132" strokeLinecap="round" strokeLinejoin="bevel"/>
<path d="M23.673 33.7613C22.0269 35.6001 22.511 35.923 19.2206 36.6005C15.8913 37.2867 17.8474 38.508 19.1239 38.8272C20.672 39.2145 24.2534 39.7629 26.6733 36.3745C27.4102 35.3428 26.669 33.6967 25.6567 33.2771C25.1676 33.0745 24.5136 32.8206 23.673 33.7613Z" stroke="white" strokeWidth="1.51132" strokeLinecap="round" strokeLinejoin="round"/>
<path d="M23.5647 33.7282C23.3988 32.647 23.9199 31.3605 24.4784 29.8554C25.3176 27.5971 27.254 25.3385 25.705 18.1749C24.5504 12.8366 16.8062 17.0639 16.8013 17.7877C16.7966 18.5113 17.1516 21.4566 16.672 24.8863C16.0461 29.3618 19.5197 33.1469 23.5197 32.7597" stroke="white" strokeWidth="1.51132" strokeLinecap="round" strokeLinejoin="round"/>
<path d="M21.7225 17.6802C21.6875 17.9274 22.1751 18.5871 22.8108 18.6752C23.4453 18.7638 23.9885 18.2482 24.023 18.0013C24.0574 17.754 23.5705 17.4817 22.9345 17.3932C22.2996 17.3046 21.7562 17.4336 21.7226 17.6802H21.7225Z" fill="white" stroke="white" strokeWidth="0.503769"/>
<path d="M41.052 17.1762C41.0864 17.4235 40.5995 18.0831 39.9637 18.1713C39.3286 18.2598 38.7855 17.7443 38.7507 17.4973C38.7171 17.2501 39.2041 16.9778 39.8393 16.8893C40.4745 16.8008 41.0176 16.9296 41.052 17.1764V17.1762Z" fill="white" stroke="white" strokeWidth="0.251884"/>
<path d="M43.3232 15.4648C43.4278 17.404 42.9055 18.7249 42.8396 20.7892C42.7422 23.7897 44.2702 27.2241 41.9678 30.6627" stroke="white" strokeWidth="1.51132" strokeLinecap="round" strokeLinejoin="round"/>
</svg>
