<svg width="64" height="65" viewBox="0 0 64 65" fill="none" xmlns="http://www.w3.org/2000/svg">
<path d="M15.8179 42.0762C16.6484 39.0684 17.8393 35.8292 19.3682 32.5007M15.8179 42.0762C13.5919 50.138 13.9545 56.537 17.3337 58.5365C20.7128 60.5361 26.3013 57.6584 32.0003 51.6518M15.8179 42.0762C7.8928 40.0211 2.66699 36.4997 2.66699 32.5007C2.66699 28.5016 7.8928 24.9802 15.8179 22.9251M15.8179 42.0762C18.7747 42.8429 22.1072 43.4056 25.6843 43.7127M19.3682 32.5007C17.8393 29.1721 16.6484 25.9329 15.8179 22.9251M19.3682 32.5007C20.2378 34.3936 21.2167 36.3155 22.3008 38.2401C23.385 40.1647 24.5195 41.9945 25.6843 43.7127M19.3682 32.5007C20.2378 30.6077 21.2167 28.6858 22.3008 26.7612C23.385 24.8366 24.5195 23.0068 25.6843 21.2886M15.8179 22.9251C13.5919 14.8634 13.9545 8.46428 17.3337 6.46476C20.7128 4.46523 26.3013 7.34289 32.0003 13.3495M15.8179 22.9251C18.7747 22.1584 22.1072 21.5957 25.6843 21.2886M32.0003 13.3495C29.874 15.5906 27.7324 18.2672 25.6843 21.2886M32.0003 13.3495C37.6994 7.34289 43.2878 4.46523 46.667 6.46476C50.0461 8.46428 50.4088 14.8634 48.1828 22.9251M32.0003 13.3495C34.1266 15.5906 36.2683 18.2672 38.3164 21.2886M25.6843 21.2886C27.7186 21.1139 29.832 21.0218 32.0003 21.0218C34.1687 21.0218 36.2821 21.1139 38.3164 21.2886M38.3164 21.2886C41.8934 21.5957 45.226 22.1584 48.1828 22.9251M38.3164 21.2886C39.4811 23.0068 40.6156 24.8366 41.6998 26.7612C42.784 28.6858 43.7629 30.6077 44.6324 32.5007M48.1828 22.9251C56.1079 24.9802 61.3337 28.5016 61.3337 32.5007C61.3337 36.4997 56.1079 40.0211 48.1828 42.0762M48.1828 22.9251C47.3523 25.9329 46.1614 29.1721 44.6324 32.5007M48.1828 42.0762C47.3523 39.0684 46.1614 35.8292 44.6324 32.5007M48.1828 42.0762C50.4088 50.138 50.0461 56.537 46.667 58.5365C43.2879 60.5361 37.6994 57.6584 32.0003 51.6518M48.1828 42.0762C45.226 42.8429 41.8934 43.4056 38.3164 43.7127M44.6324 32.5007C43.7629 34.3936 42.784 36.3155 41.6998 38.2401C40.6156 40.1647 39.4811 41.9945 38.3164 43.7127M38.3164 43.7127C36.2683 46.7341 34.1266 49.4107 32.0003 51.6518M38.3164 43.7127C36.2821 43.8874 34.1687 43.9795 32.0003 43.9795C29.832 43.9795 27.7186 43.8874 25.6843 43.7127M32.0003 51.6518C29.874 49.4107 27.7324 46.7341 25.6843 43.7127M37.467 32.5007C37.467 35.595 35.0195 38.1034 32.0003 38.1034C28.9812 38.1034 26.5337 35.595 26.5337 32.5007C26.5337 29.4063 28.9812 26.8979 32.0003 26.8979C35.0195 26.8979 37.467 29.4063 37.467 32.5007Z" stroke="#242424" strokeOpacity="0.7" strokeWidth="2.66667"/>
</svg>
