<svg width="13" height="12" viewBox="0 0 13 12" fill="none" xmlns="http://www.w3.org/2000/svg">
<path d="M6.5 1.125C5.53582 1.125 4.59329 1.41091 3.7916 1.94659C2.98991 2.48226 2.36507 3.24363 1.99609 4.13442C1.62711 5.02521 1.53057 6.00541 1.71867 6.95106C1.90678 7.89672 2.37108 8.76536 3.05286 9.44714C3.73464 10.1289 4.60328 10.5932 5.54894 10.7813C6.49459 10.9694 7.47479 10.8729 8.36558 10.5039C9.25637 10.1349 10.0177 9.51009 10.5534 8.7084C11.0891 7.90671 11.375 6.96418 11.375 6C11.3736 4.70749 10.8596 3.46831 9.94564 2.55436C9.03169 1.64042 7.79251 1.12636 6.5 1.125ZM4.8125 4.5C4.92375 4.5 5.03251 4.53299 5.12501 4.5948C5.21751 4.65661 5.28961 4.74446 5.33218 4.84724C5.37476 4.95002 5.3859 5.06312 5.36419 5.17224C5.34249 5.28135 5.28892 5.38158 5.21025 5.46025C5.13158 5.53891 5.03135 5.59249 4.92224 5.61419C4.81313 5.6359 4.70003 5.62476 4.59724 5.58218C4.49446 5.53961 4.40661 5.46751 4.3448 5.37501C4.28299 5.2825 4.25 5.17375 4.25 5.0625C4.25 4.91332 4.30926 4.77024 4.41475 4.66475C4.52024 4.55926 4.66332 4.5 4.8125 4.5ZM8.69938 7.3125C8.21703 8.14641 7.41547 8.625 6.5 8.625C5.58453 8.625 4.78297 8.14687 4.30063 7.3125C4.27349 7.26982 4.25528 7.22209 4.24707 7.17218C4.23886 7.12228 4.24083 7.07123 4.25286 7.0221C4.2649 6.97298 4.28674 6.9268 4.31708 6.88634C4.34743 6.84587 4.38564 6.81197 4.42943 6.78666C4.47322 6.76135 4.52167 6.74516 4.57188 6.73906C4.62208 6.73296 4.673 6.73708 4.72158 6.75117C4.77015 6.76526 4.81537 6.78903 4.85452 6.82105C4.89367 6.85308 4.92593 6.89268 4.94938 6.9375C5.29953 7.54266 5.84985 7.875 6.5 7.875C7.15016 7.875 7.70047 7.54219 8.05063 6.9375C8.07407 6.89268 8.10634 6.85308 8.14548 6.82105C8.18463 6.78903 8.22985 6.76526 8.27843 6.75117C8.327 6.73708 8.37792 6.73296 8.42813 6.73906C8.47833 6.74516 8.52679 6.76135 8.57057 6.78666C8.61436 6.81197 8.65258 6.84587 8.68292 6.88634C8.71326 6.9268 8.73511 6.97298 8.74714 7.0221C8.75917 7.07123 8.76114 7.12228 8.75294 7.17218C8.74473 7.22209 8.72651 7.26982 8.69938 7.3125ZM8.1875 5.625C8.07625 5.625 7.9675 5.59201 7.87499 5.5302C7.78249 5.46839 7.71039 5.38054 7.66782 5.27776C7.62524 5.17498 7.61411 5.06188 7.63581 4.95276C7.65751 4.84365 7.71109 4.74342 7.78975 4.66475C7.86842 4.58608 7.96865 4.53251 8.07776 4.51081C8.18688 4.4891 8.29998 4.50024 8.40276 4.54282C8.50554 4.58539 8.59339 4.65749 8.6552 4.74999C8.71701 4.84249 8.75 4.95125 8.75 5.0625C8.75 5.21168 8.69074 5.35476 8.58525 5.46025C8.47976 5.56574 8.33669 5.625 8.1875 5.625Z" fill="#F05023"/>
</svg>
