<svg width="16" height="17" viewBox="0 0 16 17" fill="none" xmlns="http://www.w3.org/2000/svg">
<path d="M12.3484 8.56625L9.12461 7.375L7.93711 4.14875C7.86679 3.95771 7.73956 3.79283 7.57259 3.67637C7.40561 3.5599 7.20694 3.49746 7.00336 3.49746C6.79978 3.49746 6.60111 3.5599 6.43414 3.67637C6.26716 3.79283 6.13993 3.95771 6.06961 4.14875L4.87461 7.375L1.64836 8.5625C1.45732 8.63282 1.29244 8.76005 1.17598 8.92702C1.05951 9.094 0.99707 9.29267 0.99707 9.49625C0.99707 9.69983 1.05951 9.8985 1.17598 10.0655C1.29244 10.2324 1.45732 10.3597 1.64836 10.43L4.87461 11.625L6.06211 14.8512C6.13243 15.0423 6.25966 15.2072 6.42664 15.3236C6.59361 15.4401 6.79228 15.5025 6.99586 15.5025C7.19944 15.5025 7.39811 15.4401 7.56509 15.3236C7.73206 15.2072 7.85929 15.0423 7.92961 14.8512L9.12461 11.625L12.3509 10.4375C12.5419 10.3672 12.7068 10.2399 12.8232 10.073C12.9397 9.906 13.0021 9.70732 13.0021 9.50375C13.0021 9.30017 12.9397 9.1015 12.8232 8.93452C12.7068 8.76755 12.5419 8.64032 12.3509 8.57L12.3484 8.56625ZM8.56211 10.7637C8.49424 10.7888 8.43261 10.8282 8.38146 10.8793C8.33031 10.9305 8.29087 10.9921 8.26586 11.06L6.99961 14.4906L5.73586 11.0625C5.71089 10.9939 5.6712 10.9316 5.61959 10.88C5.56798 10.8284 5.50569 10.7887 5.43711 10.7637L2.00899 9.5L5.43711 8.23625C5.50569 8.21128 5.56798 8.17159 5.61959 8.11998C5.6712 8.06837 5.71089 8.00608 5.73586 7.9375L6.99961 4.50937L8.26336 7.9375C8.28837 8.00537 8.32781 8.067 8.37896 8.11815C8.43011 8.1693 8.49174 8.20874 8.55961 8.23375L11.9902 9.5L8.56211 10.7637ZM8.99961 3C8.99961 2.86739 9.05229 2.74021 9.14606 2.64645C9.23982 2.55268 9.367 2.5 9.49961 2.5H10.4996V1.5C10.4996 1.36739 10.5523 1.24021 10.6461 1.14645C10.7398 1.05268 10.867 1 10.9996 1C11.1322 1 11.2594 1.05268 11.3532 1.14645C11.4469 1.24021 11.4996 1.36739 11.4996 1.5V2.5H12.4996C12.6322 2.5 12.7594 2.55268 12.8532 2.64645C12.9469 2.74021 12.9996 2.86739 12.9996 3C12.9996 3.13261 12.9469 3.25978 12.8532 3.35355C12.7594 3.44732 12.6322 3.5 12.4996 3.5H11.4996V4.5C11.4996 4.63261 11.4469 4.75978 11.3532 4.85355C11.2594 4.94732 11.1322 5 10.9996 5C10.867 5 10.7398 4.94732 10.6461 4.85355C10.5523 4.75978 10.4996 4.63261 10.4996 4.5V3.5H9.49961C9.367 3.5 9.23982 3.44732 9.14606 3.35355C9.05229 3.25978 8.99961 3.13261 8.99961 3ZM15.4996 6C15.4996 6.13261 15.4469 6.25978 15.3532 6.35355C15.2594 6.44732 15.1322 6.5 14.9996 6.5H14.4996V7C14.4996 7.13261 14.4469 7.25978 14.3532 7.35355C14.2594 7.44732 14.1322 7.5 13.9996 7.5C13.867 7.5 13.7398 7.44732 13.6461 7.35355C13.5523 7.25978 13.4996 7.13261 13.4996 7V6.5H12.9996C12.867 6.5 12.7398 6.44732 12.6461 6.35355C12.5523 6.25978 12.4996 6.13261 12.4996 6C12.4996 5.86739 12.5523 5.74021 12.6461 5.64645C12.7398 5.55268 12.867 5.5 12.9996 5.5H13.4996V5C13.4996 4.86739 13.5523 4.74021 13.6461 4.64645C13.7398 4.55268 13.867 4.5 13.9996 4.5C14.1322 4.5 14.2594 4.55268 14.3532 4.64645C14.4469 4.74021 14.4996 4.86739 14.4996 5V5.5H14.9996C15.1322 5.5 15.2594 5.55268 15.3532 5.64645C15.4469 5.74021 15.4996 5.86739 15.4996 6Z" fill="#242424" fillOpacity="0.6"/>
</svg>
