<svg width="24" height="25" viewBox="0 0 24 25" fill="none" xmlns="http://www.w3.org/2000/svg">
<path d="M18.7505 14.75C18.0876 14.7496 17.4434 14.97 16.9196 15.3762L14.753 13.6887C14.9166 13.3138 15.0008 12.9091 15.0005 12.5C15.0005 12.4306 15.0005 12.3612 14.993 12.2928L16.2333 11.8794C16.6257 12.4846 17.223 12.9281 17.9158 13.1288C18.6086 13.3295 19.3505 13.2738 20.0056 12.9721C20.6607 12.6703 21.1852 12.1426 21.483 11.4857C21.7807 10.8287 21.8318 10.0865 21.6269 9.39494C21.422 8.70338 20.9747 8.10881 20.3672 7.72012C19.7596 7.33144 19.0323 7.17466 18.3185 7.27852C17.6048 7.38238 16.9523 7.73991 16.4807 8.28563C16.0091 8.83135 15.7498 9.52871 15.7505 10.25C15.7505 10.3194 15.7505 10.3887 15.758 10.4572L14.5177 10.8706C14.2458 10.4503 13.873 10.1047 13.4334 9.86525C12.9937 9.62585 12.5011 9.50028 12.0005 9.49999C11.835 9.50033 11.6697 9.51413 11.5064 9.54124L10.8652 8.09374C11.4189 7.65133 11.7981 7.02716 11.9355 6.33188C12.073 5.63659 11.9599 4.91509 11.6162 4.29525C11.2725 3.67541 10.7205 3.19727 10.0579 2.94556C9.3954 2.69386 8.66514 2.68485 7.99659 2.92014C7.32804 3.15542 6.76438 3.61981 6.40552 4.23098C6.04665 4.84216 5.91576 5.56065 6.03603 6.25911C6.15631 6.95758 6.51999 7.5909 7.06261 8.04684C7.60524 8.50277 8.29176 8.75187 9.0005 8.74999C9.16603 8.74965 9.33126 8.73585 9.49456 8.70874L10.1358 10.1525C9.59202 10.5829 9.2146 11.1888 9.06805 11.8666C8.92151 12.5445 9.01494 13.2522 9.33238 13.8687L6.92206 16.01C6.31548 15.6011 5.58059 15.4274 4.85513 15.5216C4.12967 15.6157 3.46345 15.9712 2.98134 16.5214C2.49924 17.0716 2.23436 17.7788 2.23634 18.5103C2.23832 19.2419 2.50703 19.9476 2.99211 20.4952C3.47719 21.0428 4.14532 21.3946 4.87128 21.4849C5.59724 21.5751 6.33119 21.3974 6.93554 20.9852C7.5399 20.573 7.97317 19.9546 8.15415 19.2458C8.33513 18.5369 8.25139 17.7865 7.91863 17.135L10.3289 14.9937C10.8508 15.3451 11.4702 15.523 12.099 15.5022C12.7278 15.4813 13.334 15.2627 13.8314 14.8775L15.998 16.565C15.8349 16.9388 15.7507 17.3422 15.7505 17.75C15.7505 18.3433 15.9264 18.9234 16.2561 19.4167C16.5857 19.91 17.0543 20.2946 17.6025 20.5216C18.1506 20.7487 18.7538 20.8081 19.3358 20.6923C19.9177 20.5766 20.4523 20.2909 20.8718 19.8713C21.2914 19.4518 21.5771 18.9172 21.6929 18.3353C21.8086 17.7533 21.7492 17.1501 21.5221 16.6019C21.2951 16.0538 20.9106 15.5852 20.4172 15.2556C19.9239 14.9259 19.3438 14.75 18.7505 14.75ZM18.7505 8.74999C19.0472 8.74999 19.3372 8.83796 19.5839 9.00278C19.8305 9.16761 20.0228 9.40187 20.1363 9.67596C20.2499 9.95005 20.2796 10.2517 20.2217 10.5426C20.1638 10.8336 20.0209 11.1009 19.8112 11.3106C19.6014 11.5204 19.3341 11.6633 19.0431 11.7212C18.7522 11.779 18.4506 11.7493 18.1765 11.6358C17.9024 11.5223 17.6681 11.33 17.5033 11.0833C17.3385 10.8367 17.2505 10.5467 17.2505 10.25C17.2505 9.85216 17.4085 9.47063 17.6898 9.18933C17.9711 8.90802 18.3527 8.74999 18.7505 8.74999ZM7.5005 5.74999C7.5005 5.45332 7.58847 5.16331 7.7533 4.91663C7.91812 4.66996 8.15239 4.4777 8.42648 4.36417C8.70056 4.25064 9.00216 4.22093 9.29314 4.27881C9.58411 4.33669 9.85138 4.47955 10.0612 4.68933C10.2709 4.89911 10.4138 5.16638 10.4717 5.45735C10.5296 5.74833 10.4999 6.04993 10.3863 6.32401C10.2728 6.5981 10.0805 6.83237 9.83386 6.99719C9.58718 7.16202 9.29717 7.24999 9.0005 7.24999C8.60268 7.24999 8.22115 7.09195 7.93984 6.81065C7.65854 6.52934 7.5005 6.14781 7.5005 5.74999ZM5.2505 20C4.95383 20 4.66382 19.912 4.41714 19.7472C4.17047 19.5824 3.97821 19.3481 3.86468 19.074C3.75115 18.7999 3.72144 18.4983 3.77932 18.2074C3.8372 17.9164 3.98006 17.6491 4.18984 17.4393C4.39962 17.2296 4.66689 17.0867 4.95786 17.0288C5.24884 16.9709 5.55044 17.0006 5.82453 17.1142C6.09861 17.2277 6.33288 17.42 6.4977 17.6666C6.66253 17.9133 6.7505 18.2033 6.7505 18.5C6.7505 18.8978 6.59246 19.2793 6.31116 19.5606C6.02986 19.842 5.64832 20 5.2505 20ZM10.5005 12.5C10.5005 12.2033 10.5885 11.9133 10.7533 11.6666C10.9181 11.42 11.1524 11.2277 11.4265 11.1142C11.7006 11.0006 12.0022 10.9709 12.2931 11.0288C12.5841 11.0867 12.8514 11.2296 13.0612 11.4393C13.2709 11.6491 13.4138 11.9164 13.4717 12.2074C13.5296 12.4983 13.4999 12.7999 13.3863 13.074C13.2728 13.3481 13.0805 13.5824 12.8339 13.7472C12.5872 13.912 12.2972 14 12.0005 14C11.6027 14 11.2211 13.842 10.9398 13.5606C10.6585 13.2793 10.5005 12.8978 10.5005 12.5ZM18.7505 19.25C18.4538 19.25 18.1638 19.162 17.9171 18.9972C17.6705 18.8324 17.4782 18.5981 17.3647 18.324C17.2512 18.0499 17.2214 17.7483 17.2793 17.4574C17.3372 17.1664 17.4801 16.8991 17.6898 16.6893C17.8996 16.4796 18.1669 16.3367 18.4579 16.2788C18.7488 16.2209 19.0504 16.2506 19.3245 16.3642C19.5986 16.4777 19.8329 16.67 19.9977 16.9166C20.1625 17.1633 20.2505 17.4533 20.2505 17.75C20.2505 18.1478 20.0925 18.5293 19.8112 18.8106C19.5299 19.092 19.1483 19.25 18.7505 19.25Z" fill="#242424" fill-opacity="0.2"/>
</svg>
