<svg width="36" height="36" viewBox="0 0 36 36" fill="none" xmlns="http://www.w3.org/2000/svg">
<rect width="36" height="36" rx="18" fill="#72E958"/>
<path d="M15.2895 13.4688L10.1872 18L15.2864 22.5313C15.348 22.5858 15.3982 22.6518 15.4342 22.7257C15.4702 22.7996 15.4914 22.8799 15.4964 22.9619C15.5014 23.044 15.4902 23.1262 15.4634 23.2039C15.4366 23.2816 15.3948 23.3533 15.3403 23.4149C15.2858 23.4764 15.2198 23.5267 15.1459 23.5627C15.072 23.5987 14.9917 23.6198 14.9097 23.6248C14.8276 23.6298 14.7454 23.6186 14.6677 23.5919C14.59 23.5651 14.5183 23.5233 14.4567 23.4688L8.83172 18.4688C8.76521 18.4101 8.71195 18.338 8.67547 18.2572C8.63899 18.1764 8.62012 18.0887 8.62012 18C8.62012 17.9114 8.63899 17.8237 8.67547 17.7429C8.71195 17.6621 8.76521 17.5899 8.83172 17.5313L14.4567 12.5313C14.5183 12.4766 14.59 12.4346 14.6678 12.4076C14.7456 12.3807 14.8279 12.3693 14.9101 12.3741C14.9923 12.379 15.0728 12.4 15.1468 12.4359C15.2209 12.4719 15.2872 12.5221 15.3419 12.5836C15.3966 12.6452 15.4386 12.7169 15.4655 12.7947C15.4925 12.8725 15.5039 12.9549 15.499 13.0371C15.4942 13.1192 15.4732 13.1997 15.4372 13.2738C15.4013 13.3478 15.3511 13.4141 15.2895 13.4688ZM27.1645 17.5313L21.5395 12.5313C21.4152 12.4213 21.2523 12.3651 21.0866 12.3752C20.9209 12.3854 20.766 12.4609 20.6559 12.5852C20.5459 12.7095 20.4898 12.8725 20.4999 13.0382C20.51 13.2039 20.5855 13.3588 20.7098 13.4688L25.8122 18L20.713 22.5313C20.6514 22.5858 20.6012 22.6518 20.5652 22.7257C20.5291 22.7996 20.508 22.8799 20.503 22.9619C20.498 23.044 20.5092 23.1262 20.536 23.2039C20.5628 23.2816 20.6046 23.3533 20.6591 23.4149C20.7135 23.4764 20.7796 23.5267 20.8535 23.5627C20.9274 23.5987 21.0076 23.6198 21.0897 23.6248C21.1717 23.6298 21.254 23.6186 21.3317 23.5919C21.4094 23.5651 21.4811 23.5233 21.5427 23.4688L27.1677 18.4688C27.2342 18.4101 27.2874 18.338 27.3239 18.2572C27.3604 18.1764 27.3793 18.0887 27.3793 18C27.3793 17.9114 27.3604 17.8237 27.3239 17.7429C27.2874 17.6621 27.2342 17.5899 27.1677 17.5313H27.1645Z" fill="white"/>
</svg>
