<svg width="18" height="18" viewBox="0 0 18 18" fill="none" xmlns="http://www.w3.org/2000/svg">
<path d="M15.5326 2.74088C15.5326 2.74088 16.9895 2.17276 16.8676 3.55238C16.8275 4.12051 16.4634 6.10913 16.1799 8.25976L15.2086 14.631C15.2086 14.631 15.1276 15.5644 14.399 15.7268C13.6707 15.8888 12.578 15.1586 12.3755 14.9963C12.2135 14.8744 9.34023 13.0481 8.32849 12.1556C8.04498 11.9119 7.72098 11.4251 8.36899 10.857L12.6185 6.79876C13.1041 6.31126 13.5897 5.17501 11.5662 6.55501L5.89999 10.41C5.89999 10.41 5.25236 10.8161 4.03849 10.4509L1.40749 9.63901C1.40749 9.63901 0.436235 9.03038 2.09561 8.42176C6.14299 6.51451 11.1211 4.56676 15.5322 2.74051" fill="#242424" fillOpacity="0.4"/>
</svg>
