<svg width="54" height="55" viewBox="0 0 54 55" fill="none" xmlns="http://www.w3.org/2000/svg">
<g clipPath="url(#clip0_83_1586)">
<path d="M0 27.5V0.5H54V54.5H0" fill="#242424" fillOpacity="0.7"/>
<path d="M11.8398 27.5951V29.7956H18.8598V49.7756H23.8413V29.7956H30.8613V27.6356C30.8613 26.4206 30.8613 25.4351 30.8073 25.4081C30.8073 25.3676 26.5278 25.3541 21.3303 25.3541L11.8803 25.3946V27.6086L11.8398 27.5951ZM43.3893 25.3406C44.7663 25.6646 45.8193 26.2856 46.7643 27.2711C47.2638 27.8111 48.0063 28.7561 48.0603 28.9991C48.0603 29.0801 45.7248 30.6596 44.3073 31.5371C44.2533 31.5776 44.0373 31.3481 43.8213 30.9971C43.1193 29.9981 42.4038 29.5661 41.2833 29.4851C39.6633 29.3771 38.5833 30.2276 38.5833 31.6451C38.5833 32.0771 38.6643 32.3201 38.8263 32.6711C39.1908 33.4136 39.8658 33.8591 41.9583 34.7771C45.8193 36.4376 47.4933 37.5311 48.5058 39.0971C49.6533 40.8521 49.9098 43.6061 49.1403 45.6716C48.2763 47.9261 46.1703 49.4516 43.1598 49.9511C42.2148 50.1131 40.0548 50.0861 39.0423 49.9106C36.8823 49.5056 34.8168 48.4256 33.5478 47.0351C33.0483 46.4951 32.0898 45.0506 32.1438 44.9561L32.6568 44.6321L34.6818 43.4576L36.2073 42.5666L36.5583 43.0391C37.0038 43.7411 38.0028 44.6861 38.5833 45.0101C40.3383 45.9146 42.6873 45.7931 43.8483 44.7401C44.3478 44.2811 44.5638 43.7951 44.5638 43.1201C44.5638 42.4991 44.4693 42.2156 44.1588 41.7431C43.7268 41.1491 42.8628 40.6631 40.4328 39.5831C37.6383 38.3951 36.4503 37.6391 35.3433 36.4781C34.7088 35.7761 34.1283 34.6826 33.8583 33.7781C33.6558 32.9951 33.5883 31.0781 33.7773 30.3086C34.3578 27.6086 36.3963 25.7186 39.3123 25.1786C40.2573 24.9896 42.4848 25.0706 43.4163 25.3136L43.3893 25.3406Z" fill="white"/>
</g>
<defs>
<clipPath id="clip0_83_1586">
<rect width="54" height="54" fill="white" transform="translate(0 0.5)"/>
</clipPath>
</defs>
</svg>
