<svg width="16" height="16" viewBox="0 0 16 16" fill="none" xmlns="http://www.w3.org/2000/svg">
<path d="M14.7997 11.7557L9.33407 2.26379C9.19749 2.03124 9.00251 1.83843 8.76845 1.70445C8.53439 1.57048 8.26938 1.5 7.99969 1.5C7.73 1.5 7.465 1.57048 7.23094 1.70445C6.99688 1.83843 6.8019 2.03124 6.66532 2.26379L1.19969 11.7557C1.06828 11.9806 0.999023 12.2364 0.999023 12.4969C0.999023 12.7574 1.06828 13.0132 1.19969 13.2382C1.33453 13.4721 1.52918 13.666 1.76367 13.7999C1.99816 13.9338 2.26406 14.0028 2.53407 14H13.4653C13.7351 14.0026 14.0008 13.9334 14.235 13.7996C14.4693 13.6657 14.6637 13.4719 14.7984 13.2382C14.93 13.0134 14.9995 12.7576 14.9997 12.4971C15 12.2366 14.9309 11.9807 14.7997 11.7557ZM7.49969 6.50004C7.49969 6.36743 7.55237 6.24026 7.64614 6.14649C7.73991 6.05272 7.86709 6.00004 7.99969 6.00004C8.1323 6.00004 8.25948 6.05272 8.35325 6.14649C8.44702 6.24026 8.49969 6.36743 8.49969 6.50004V9.00004C8.49969 9.13265 8.44702 9.25983 8.35325 9.3536C8.25948 9.44736 8.1323 9.50004 7.99969 9.50004C7.86709 9.50004 7.73991 9.44736 7.64614 9.3536C7.55237 9.25983 7.49969 9.13265 7.49969 9.00004V6.50004ZM7.99969 12C7.85136 12 7.70635 11.9561 7.58302 11.8736C7.45968 11.7912 7.36355 11.6741 7.30678 11.5371C7.25002 11.4 7.23517 11.2492 7.2641 11.1037C7.29304 10.9582 7.36447 10.8246 7.46936 10.7197C7.57425 10.6148 7.70789 10.5434 7.85338 10.5145C7.99886 10.4855 8.14966 10.5004 8.28671 10.5571C8.42375 10.6139 8.54088 10.71 8.6233 10.8334C8.70571 10.9567 8.74969 11.1017 8.74969 11.25C8.74969 11.449 8.67068 11.6397 8.53002 11.7804C8.38937 11.921 8.19861 12 7.99969 12Z" fill="#FF8447"/>
</svg>
